<mxfile host="app.diagrams.net" agent="Mozilla/5.0 (Windows NT 10.0; Win64; x64) AppleWebKit/537.36 (KHTML, like Gecko) Chrome/131.0.0.0 Safari/537.36 Edg/131.0.0.0" version="26.0.5">
  <diagram name="Page-1" id="fJTaRhAIu595Scbbjd68">
    <mxGraphModel dx="3565" dy="1778" grid="0" gridSize="10" guides="1" tooltips="1" connect="1" arrows="1" fold="1" page="0" pageScale="1" pageWidth="827" pageHeight="1169" math="0" shadow="0">
      <root>
        <mxCell id="0" />
        <mxCell id="1" parent="0" />
        <mxCell id="Uh9wZkquu2cPhVOEW5Aj-1" value="" style="shape=image;verticalLabelPosition=bottom;labelBackgroundColor=default;verticalAlign=top;aspect=fixed;imageAspect=0;image=data:image/png,iVBORw0KGgoAAAANSUhEUgAAAjwAAAQ4CAYAAAANTga2AAAAAXNSR0IArs4c6QAAAARnQU1BAACxjwv8YQUAAAAJcEhZcwAAHYcAAB2HAY/l8WUAAG5QSURBVHhe7f0JgCRpWSD8Z3bP9H3ODCAMCIL8uWEGBTmUY0UFF8EDFBRQ9tvDA8EZRfFAZfHAdVHhA9f9y66iKKKAsqCOigosMDicglzLigf3MdP3OdNdX74ZkV3xPpGVUdmVWcdbv1/1UxUZGRkZERkZ+XS8T77Rv+Od776wdeuW3m1uc+vejh3be8nd73XP3tP+4/f07vTldx7eLkO//svmUPjrvVD/XRXL25ab5x22jtd0lfaL/ly2QVz4jbVHbailncN+Uq3/auwXXfq9f/rHf+z99ste1vvwBz84HHP69Jne5z73+V7/y+9+n4Xbfcltelsv2Tqc7xOf+qTetzz5CcOJyrKx3jysVOGv9yp9sFWWty03zztsna/p3PeN+aQ7lebCb6w9akMt7Vz2kXnuFxfnNa/6w96rXvGK4Ytz7pZzvf7DHvGohZTs3PXu/7/eU//j03tffre71pOWZmO9eVipTfB6r+igtXbbZ+1fmU16LJjph9z6+3BbDzbMNplbUlxtgfW0HT720Y/2Xv6y/9H7Px/9SK//yEd9w0JKdp73wl+o7y6Vt+fmskle76kPXOtju8x3KbzXlzSzD7pqG9vSy7PuttPcEp6R9ZcQ/9Szf7S3Ja14OrNTvvQKzyJY/zbRYbg/WNepon7cGpvfu2mdrGDxqldw9DrGILf5tkm1b6wn3/3v/5/elic+7UkFN2OtVDp4xgDYoGZ+CGumOaNgzQxfgsGL3BVz/0yb13wv3l3vdrde/zNnjtlDW9bfi7V52PbLt4JttQHf9ctbW/vPzKxoH1HjM86qbJNhQjONSS/0bJZ4vewLW+q/sMbSW2K9vC02gQ24qbs/f+0/M7XCzel/0m1pm4yL9We2x+P1so4bIOEZbfgY8zLPecMszOg9MJpNjHWsOnCOW+gUrB/VR/noAz0GubXdJvG9M5/30np43dd5wjNpw1/Mi5Ie0xWsPtt9aXH/3Ozbqp99cC4VzMiSu1vcJ5cKVt2FzT94J8RY8t2xOV6zTdKkVf4LSalGB6mu2CzGrXs7RkOs1OC4Oe7bfivktWmbzT47em2WmNPKX7oVmc06Xrx1nPCs8SsDG8paHkbWo/HbY3TAnSY2rwnH4Bkcnsdt6xSb3fTbIL0Yo9gY1uq1nvu3tB5yz7v3Hnr/hd7tb32+98nPb+m97T393ts/9NH63pVazqJvnJ1gc1u912nWO/z62cNmtCRrcSSam8VvC81itdb/0WQVl3DO+8n639bztbLvuU14cab+Ftf8rPaSzDXhefZT7tb7nm/t9R70FTvrMZXv/clTvV9+xf+pb+Uecs+7DROi0d+lLXexN/vbpkQre03nscOvj73sIpZizh9aa2ttXpW13RdW+dnnuP+sj/fUWlrpV/uXenHqua6D9/5qv8ZzS3jSmZ0P/PmO3jvefar3D1/8sd6DHnyP3juu/3Dv3lf80jABevUbTvSe99Ktg6TmI8PpU3L0qAef7z3hsbuHt5Ofe9GJ3rN+5WP1reXyNinb4uu7nj6r136vu8glWE8bcabW9hXZVM8+x31o7d9Xa63aAhe3Hca9MGFO6/T9P6/XfW4Jzwdfe7fh3z13/e3ene54v+HwyD+88eregx72sF7vxDuHt1NSNEqCDl/6472tt/xD7x5f8qfVNAPHrvjN4d9u3h7lq17j9fo5Pf0euMb77JpvyDLfs+tvrVZ5iWa8X5W5l0xjTh05rtcD6cA81ncuRcsvuvauwwQmndmJyU7y4c/+23qoMkp2Hv3Uv+896UlP6j3xKT/Xu/ej3tt7x1veMrw/zQ9G1vF7dLhsXbHIYbxU7dd6ra3y0sx4115f23ItrL9rU83bPNZ3Lmd4Rmd3UtIyztve/tbeN9zjR+tbvQvJTjSaLp0Bute3LqfQ2QfIxjP9a1bCG79a6w22v85lw2/O9+zarPUaPOsM9pnz58/3PvWJT/SOHD40HL4YW7Zs6R04cLB35R3uMBy+eGkbrsURqHrtZv4KLrEqD7rqfr1b3/pWvVe8+jW9ffv212Onc/Tokd5Tn/iE3uc//4Xe9e99Xz12OrNe35mf4Um1OLFIucveu7y0Hso99CFffaG5K9UEUZo1OACvEyUkbWwU6X22cd9rKdk5dNONF53sJOmxNw3mkea1MrN+545em66opGcfFxctn/0FKdl59zvf2fvOb/2WYeIyrfSY9Nh33XDDcF7rxUwTnpSUpG9lJZ/8zMXvnE3D+ex+wPCr7eN2gEXjxsH6lU5SxwPXuKA8F/e6No9/08QamsHiHD58aPj3Tne+S+9e973f2Lh3R3zZ4LHJaF5r7yI3xlgzaO4Ki5LO7Fz9FV/Re++73z110jNKdtJj0zx+949eXd8znVltnaaZJjzf8ehzF87u3P62+az/+V/+vvfgB91/2Ez16Y9fV4+tXHnl3npoCXVxc260w4wClueGt729d7vtu3vf+djH12PWUjO1GR/pd7na69sdZRi3ZktFUce4KVdloT6zs3vPnt7WrVvHxpYx45qxb3/VLLOSs0SLVvpazPK1rPaO9Hc0dNEai5WasX7/tX88ddITk500j2mbxNJizHILNc0s4Ulndx711dXsRs1QKbmJ/vZv3zz8BlZT+rp6Soa+/5k/VI+ppCRp9DX10ZkjyvToh3xN7+5fcuUwGekyekPM602xHq34YMYGtpn29I2g+W5sHo2WG/Mw+/lOm/RMSnbiFpgU8zSzhCed3RkZneU59o8/MPybfOpTx3rP+qEf7X3ll/7h8HZKikaRvoae3O42eVtfekxqzkqqOp6qGHpR2vEuJmC9ax8C1nzPbS7SpJibuT/BOlXgWb45vIxrc3Rf61cmf0+seBuMZlXPNp0ZW07S03VmZ21em7aZJTx3v8tiopOSmCSdnfm1n73fsN+d9G2rf/8NLx6OS/3rpGlHkc74XPuMb+w95SmPHT5uZP/JH1xszhokPotJ1XrZfFy8xTdpct3b/3fvI5/9VO+BD31IPWYzy7dN02jP74o1tfTir8BcZrqhrPnrOmtzeknje6G47bYMK1rv8Lp0JT1dyc56MrOE5yP/uJjopCRmdPbmp541SHDqROiCRhKTpPuf/m//pnfvfd/X+6NX/FTvD/7gD6rOCdPj6mnSY1JSNZvddzO+BeYlvTsuJmZjdnMqy5rv4V6YGas+wqrf7diwZns4WFK1jUZPNi6YZKmkZ9pkZ6331ZklPK+6bms9VCU+6dtVrURnpJHEXFCPe/q3H+sduPkXL/Sy3EyOYiE0a232B4rmQXy5URYH37bNsE1GH7xdAWtjXNKzUc7sjMwsg0jXxPoPP9W/kOw0r4nVEs7wDDWSnyd8xyN6r37Vm+pbA/V0sYfmpdx2+97ekx/7LcPhv77uL4fDaVyKRz/k4b0/+cPXDO8bec4zrxnct6f3u7/5P+oxbd/7lO8eTvPX1/1FPaZyw9uuv3Bfigff4769l77wV4f3jcZF//JP/zR8zjTtuMdF6f4nP/abh8NpmtHj0t/mMqdle/RDHnZhnmm5Pvj+D9T3tqX70jR3/5LbD6dPf9NyHbrxpnqKyVKh8W237x7M5/2DW3ka8id/+EfD+773KU9r3Zeet7rvuwe3K09+7OOH46Lmt6leN5jnYwbPmcalSI//0IT1i9On4fj6jZNenx9/5g/1HnKP+1x4bBp+wU//bGvbjOY/bjnS86f7mus5kqbP75v9B1q+1ZeOuWl+Tk+KsSObsf7cdsfOmcZKzfV1XA2r8jJXW6m57698u63P/XNkNuu4KCY9GynZSWZ+yuSNbz0/bN5alkaSM2oOG44bREqYhuNSslNP93dvz7/d1SUlNk95/LcNh5/1Y8/uPeLrHtX7+3e/p/d9T/2e4Qf7yFP//b8b/v31X3nR8G+UPuRe90ev6d3pznfufe2jv6Eem+b/6t7j/83XDe9L807Pcae73Ln3cz/x3Gz+0YPufp/ey//7bw6n/e7/9B96j3/it/UOHbpp+LgX/PTz6qna0jxf8bLf6j386752+Hz//PGP9370Gc8aJj1pWdK6HrzssuE807Km5fq2r3/M2AQmTf+oBzx4OM3VX/mV1bIPHpOW68H3uu/wQ7/Ldz29+rB+01+9cfi36R1vfdvwb5p/9J6/+7vh34c+vD6Ltwwp2XjOIAm542AZR+v3v/7o1YP1e/TYZU0JS3qd0zZK2+qZg/VLnvr4b+398auqwvlxUpLy4Lvfe7gd9h88MHyuxz3xCcP7XvxLv9x7yL3ukyU33/n07xn+nbQN0nJG7/67G4Z/H/rwhw9+r+1Bc5YHxNwoYemI9IcVG324xdgwVmU/aG+h6mcajX13g5hu/co100tLpK+mX/3Ah/Xee8Nbej/zA+fyszyjxKWRwCypniZdcmI0j2munJ7O5KQPxJREvOYv/7x3r/vep76nOquRkoAjhw73XvG611xIYNLZkvTh+MZ3Xp9Nn6TkIH14/tQvPL/3Az9cJTLpzE5KdtKH4qTnSD5z5vjw70j6X/2PP/9ne3f8si+rx1RJVUo00mM+9Ol/7R28/LL6nuoMT3qetE6vfP2fXLgvna1ISU4an5b9v/3ub/e++durD+cknRVKH8T/5SUv6j31P/w/9dhq+VKyUy37ddmyp+TpR5/xzOEH/QtePP6M08hoPimheOUb/qQeW0lniw4evGy4XK/7m7/qPfChD67vqdY/JULv+Mg/XNgG6QxPWtZPnzkxvD2SzoKk5UzzeuWf/a9sm6UzP+kxKZl5zn/+2XpstQ4/NliH+33F/Xu///rXZdsyJTTptUzScv/+G143HE5SIvOoBzxo+Hwvf80ftQqoUxKVEqE03z9/+/8ejhs9Js4ruceXXHlhG/zJ37wxm18685USoes/8sFsndbSxR2+Z3jQL+KovH4/BDfOx3Pu/e95z/Bv6mAw9alzsd7/3mo+9736/sO/0Zwuz7murHQNjx7Ja3aSac/yrOVWntkZnpTs/NdfeXHv11/8a8O/b7w+zHqU5Iz+1s1UF/4mo+FGQpSSnvs85vSyk52R9CHzgsGyxOQl3U7jkz96xe8P/ybff+2zhn9f/+rXDv82/cavvXj497HfWjUrJf/zv/3G8O9Sz/HS3166eew3XvHy1odc+lBOZ1qSj32kfd2wlAi98Ddemn14p2QtffimdU0JSjPZSb7jaU8Z/n3bm6uLsI78v//lvw7//s7gQz0ue0qMRmd6upq20mPTtCnpaE6bErG0vE/5908f3v6bv/jL4d+RN73xr4fLnbZB9X+sydK8fu1l/721zX7ox39s+Pf978mv2fYLz/3p4d/f+L3fybZX8vhvf+KFsz3Ri+vtkl7Tcd8W+8XB+JTYpLOEo6axe973vo1tkHpxTW/n/uD+v6y3QXX2MG6DN7/xjRe2wcZV/gcEs1S9N9YrZ0Emi8lOSnCazVvpvua3t9ajmSQ8o2QnXfsqdRaY/h648gm95/x6o+YmJjYxAUoaw9/7k6eGSVNqHkv1QYtvlmZMFhOAkdH49ME78tjBi5XEJpjUXJI+4FKzU/PDafTYpZ6j2fQ1Tjo7ks5EpCasdCYmnWFKH5qTxOQkSU1YyYO++qHDv023u/LK4d8jh/OdMK1jOotRnXUZpRyLkZraknGJV5S2S/Kedy6+du98+zuG809nw4bJQGM7pzNjKRF4xKO+dvhsyzUuARmNa263dMZlOP9BYrJUMvFvvuHr66HcqOkpJUVLeczjHzf8+9EPfmj4Nxk1eeXb4PrhNvj+H752uA1SgjOSOldMy/jwRz2qHrM+tPeEyTFz3W/pdW59r8BcXrOprMYSND8fmrEcBfZ3FFzse3dcspPO5qSYNulZy208k4Tn337Tt11Idu50x/tVl4/43BeG/eo87WceODxL00ps4hmeRkKUHvOVD/uxYdJUfftrqR027tSjqJoruqQPnZF0JiCdJUlnS1IyMvLK3/qd4d9HP+6bhn9HRh+q00pnQlKCk5qCUv3Ni37pl4fj7/cVVw8/GJfS9Vyj5Ga50vKPiptjdCVeTQ94yIOGf//qzxYvF5ISqm8eJg39Yb1RShhHZz/e+Y6qfuebnlAlSssxzXY+fuzY8O9XP/IRw7/T6nquu93zHsO/b/3bxaL6Bzykaq5745/92fBvkpKnahv0GtugOgv2rne8Y/j3cVNsg01j3Nt5XKw763KhWkYfeDFWz7yerWvHWO7rczE1PRvPNOu3VLIzcjFJz1qZScLT7DAwJT2/9wevHtbxpEtG/OgPP713+NIfHyYxF5KfpHGGJxUnp29lpbM6f/Hh/zIc/X//sap8TmeOVsvXfeOjh39/92X/c/g3GZ0NaZ7J6WrqmeT7v/vfDROKlFy94yMfGNb3pPqX1Mw1OrOyGtI6pQ/3SbF7b/sbZlE6k5Xm9ea/qs7ipGQxJY2jM06P+sbHDP+++a//evgme/1rXjuc/p5jzlZtJPsOHBj8rg6icRuks0zVNvjq4e1HfeM3Dv++ZbANklK2wZp+KKyb/KLrg3ZjWN3X8iK315IPW+78pnnejZPypLWaFEtZzhqOTXb2D5KdMONpk5703GuxhVec8KTmrHRWJyU6yZO/4+nDZCd5y9vfMbw8xJOe9KRh4vNdT3rCMPlJTV0pUgKU6nPS19mf99Ktvbe9p9/7xL9+cvjYJJ0lSrd/4Hv+Qz1m+f75Hz9eD7WNvtWTaiia0gdXOsuSvlKdpOaX9MH1Pf8xf/5RXch73/Wu4d9xxiVFaVxKdtJzpILgtazfGBYBDxKtSTGuCW2cdCYjbae0XUdnhx7+tVWT1f0fUJ25S99YSuufznSMznzM0/vf+756qO1YfRZonK6zWx/90IeHf+979VWD36O37UJjG3x8MI+/SpP0HjbYBsniNnjrqm6D1bC4BSYHLFpqj4gf1WOiPybmol/MfnuxW2jJMztLvKkvtnkrxjytOOFJ9TWjZCdJ39IaGSU+6f6U+KTkJSU/6YxQipQEpelTk1i6tEQaTmd2RtfUSn/T7YfVzSbTSB8+KWEZ5w2vrb5RlOpIolRom5p7UlHqa+uvLz/56akvmVxKWtJ0Sz3H7//2y+uhRaOamHFnctIH4aQEapZGhc5LLfu0Rmdz3vLGv+m9/jV/3Hv8E59wISlMf1ONS0oiRzUuo7M+83DXu999+DfVzIxLOpP/8ZJfr4dyo1qc9E2upfz56/7X8G86A9aUb4PXDuc1eRtUZ302tnGHqxiV/FZJylmrtV+T8UvQ31J9TJ04nn/bdRrpwzvpbxmVSHRFZbTfxlhPLnaZFteyrasZaynjkp5jg6Qn36qTzXP7zqRJa3iRz1pKYkZe+arf6l155d7h8I9c+8xh8pLqe9JZoFe84g3Dx6Wk5lv+5A9793zR64fTJV9+l7sMx6VIRs1b0/rpZ/9Yq4+W9BXz1N9NalIYl8iMvomValLSB1T6YBt3JubHnld9E+hp3/bErOYnSYlE6i8nuuvdq4ufprMIzcekD+Zfet7zs5qieXr2T//k8G/aPnHZk7SNmh0aLhrttnmksznJn73u9cOzF49+3GOznTb1t5PWbZRojM54zENKLlJzYXq+7/ymx7eSnrReSyWW/+77/tPwb+rvZ9xV29PX0tNrl/aJ2Bw1OpuTEqK0DR4z2AZNqb+d1doG60t++BodnFcSF6Tdb10Yt5QxNoZxS55i9bSf7cDBg8O//zz4HEhfUW/Fe7vjnz9efYYcOFDNa6VWf7t0m7Q8075Vnjr4D9q0yc5ImvaVjaTnKeuoVnEmCU9KZlKz1kiqu4m1Nyn5GdX6pKumN+t+/vibv30YI3f40tsP/770wY8cNmstbbTbxaj+B36nO3/ZsJO/VCScIvVCPOqDpWpSutNwuCklN+mbR+lr2ekDavTV7ijV9Iw+WFMBcvM5Uv88o4SoKX0Ypw7+ktRPz+gxqf+d973r3a0mtnlJTXdp2dMHc3PZh8tyj/sOt9HRo0frqUeqt8y4rX1gsF5pe4+ag656QPX1+pGHPerfDP+m+5tnPublR3/mp4fbMq1f6igw9deTIvWWnL6y/hPP/8/1lLn0ra/Ul1F6Tb958BqmXpSbjx31wfPSl7eT2bROy9sGf7Uq26BkzX2vzrknx7owXNoNay2X/so73GHwfrn8wpmei5Eee/Cyy4fz2qymeVt8/vNf6H3lAx84dbIzMkp6vnLwH7vPDeY1rQvv7xmbScKTmrV+7ud/vr412EGv3DuMdAbnI2952vBsTipgHt2XmrVGwymhGSU1P3D93w7P6qTxH/jhHx+e/UkxPunp3hy/8YrfHnYWmP5nkD6IUjNOSmbe+M63DxOWpYy+kZXOAk2aLiVNaf6peSvNP0VKslJHe0s97jn/+WeGj0k1NGn6dLYh1XMMOxSsv2K+GtKyp44XRx/SF5b/LncefuiPOlhsmrTFR1/XTglBPCOWbo++gTZN78oXKyUTqcPBlNQlo+2cvi113fVvvfBNq3HSV9L/ZPD6pcem/aW5XX7pJS8edji4VLKy/G2QeldmFkYHxkmxfpIeurVfrC2DZOUOd7xj7z5XXdW77/3v3x1Xt+M+97tqOI80r5IN9/cZuP697+u97i/+6qKSnZH02P/1l2/s/d37FktemgnXcmLWZt7Tcjp7k87QpHqddBHQZm/L6RtazctOHL/023uPfOTDh9/qGtXtJM0EJ9XvfMd/XOwleNHSi516Wk4f5Knw9mKMelZOZ2NSgnIxUlPKPW/3pcMPues/nK41VYJ57IKze5OuP/PZXhvL+tgG/TXdycraD+a3NmPmPM3rNnr4Kr/W6/XVXdFyzWAbrsftMtOEJ0lJz0PvX83yN34+XBSv2eFgMrj9tB/p9x75wD29j/7LzizRSQlQquV50a/9l97bPzSuA7ylF3ulCc/ipQ8+0Pqf+nKNLvuQziilr5yzlOptscrHqFWwXg+Dy7XRlz83XJupd7KytsE8rWxLTXj0tK/ZaFZrcEBZj3vLipZpBttwvW2TuZzfu/2tzw/jwgVBR0bJTqOTwcc94G97n/q/VcFySnxSjJqx0pmd8cnO/KQi55TspITpYpOd5GUv+W/Dv6vRhLOxrfdUJ71lLyY2so2+/G1pL1tovDzD2xOixG0wT4vb7GJiDuY0201lBi/P4vtpfZh5wpPqeT75+S29u9+l1/vkZ87XY4NGp4OpietRX72l94Lv/9Pe3oXX937lJX/W+8lf+oXeS3/7N6tplrTUK7GyV+gXn1tdhPKa+jpNS0nfxHrpC3+19S2gdDtd1TzVfaQaoNElK4C1d+EAPPFgvsKj/CY1lw+2aV+K5kKMXuMYc7JaH+yrtDpFmnmTVvLsp9yt96gHV8lOSmhS8pNdOb0WzwD99mt7w84HV3pWJ10eYZomrZS4vPVv3zzsrDAVqqaC1a4rhaeEJ30bK0nPNZKKY9O3fFKyE6+iXr6Le/ut1oHi4m22w8omWd8ld7xq/X2YXIz2Vpvbdlz/B46hWa9/nN+kzdD53Ku4Dee2H0xhbjU8o4RnZHT19NTUlc4Apb8pEbr9bbf0HvQVO4fJT+pxeRZNWNMmPKlvlnRdq5Sk/OCzf3jsN5SidCbnDa/942HfM+lszkj6hk7q0PA/PesHN9lXj8vpmXS89fB2XU2Fr2/nzlqt/2Z71edjjttyAx10ZrX+cT6TNsHE51yDbTeXfWAKczjDs9arxOorPdkZsW+3rcNtMrOdcfnrZs/o0p/PNprzgWepZb6Yp53V+sf5TFqWic+5hgftuewLyzCDGp606M0AWEPxkLRUdEqfCKNgpeayFZf1Ol68WS7zrOY12iNHEU21i28yc6nhmZ6XZmOrXr91sCPN2WbZTzfR+3FZO+3ytsfm2GqzWctV2VYzPiDFZZ529qu1fyz7eeZ0wF6t9bwY66TbyfI/KjeDtKN3BawrM9wp01FsObExzfYdvCrbYsYHnLi808x+xosyG7N9SYfW5Xo2rJOEh41t+Yeu9f6GWNrGXXLWl1X5sF+R0SdhMxhn3JYaF+vajBZw3a/ngISHGRkdxscFG8dGOGzN2OhTaakoxriVGxcsxdFsY1snCY83WbkWX9uNm/7YP8s1+pCfEOnPHKz+e2H9vftGx4RxMRNzeO3GLWuKDWtGC78RtsEqJDyNA8eSQenW75th3P4Yg/JM+drOaTcYfVjGmJ/5zn2WNs6SVtbL8mbLkW50xQzNYZYzNeeEx4cF6/kNsNn3z9GHfjM2gnHLPW2sb+v5Q4MNYgY70cW+W9br/jvHhGf9H1SYldHbYlywdsa9Hs3YiNZwuTfqJssUsRLTGe3uo2DTmmPC4/8oZWsfQdIrPi5YKyVu/TVep1X80Jz9+2eVFnyGRtugGSzTDF7ui93m63VPWycdD06y8d6k5ctfk813ENpI+6T3T2WVt8Oc3xT52mzO1/ii13pOr816exWy5ZnhOm/kvW2dfEtrks33cQrMWlnHkWpt0kfPxvr4GS1xV2wk63WZ0z5yYa+f0QJutNcm2gAJD+tLvstLR2GMVfhk8N6bYPRpPy6mlF7KScHGscpNWnaPtTf712AVd6B1YCPtw6W+3zbIeq3KG6O9LTbiqz5umbs235LrOePtvlG258TlnME2mfQabZht9Lg33bAqb0ugXNue89x6qHLVNefrocrBfXvqocqB/bvroUUH9ubT7NubT7N37656qLJ7x456qLJzx7Z6qHL6zNl6qHLi5Ol6qHLs+Ml6qHLk2Il6qHL42PF6qHL4SLj/aLg/PP74iXz+J07lz3/qdL5801q47q71UOXsC55fD8HmE49BV197rh6q7B8cXzRpAQDFk/AAAMWT8AAAxZPwAPOXqhqb0RrR7y0M/jSjH2MhRLi/JVUnNiLcbMdgJlmkZcoin761QB0WBpM0A5indFBoxOA9LeEBAIon4QEAiifhAQCKJ+EBZq5fNZkv1teEApaFMZEma0Yqc2nG1MIMw832iMEyNKMfolqKRoSio9FsRhEfAaye9JZtRiqzk/AAAMWT8AAAxZPwAADFk/AAs7eQR6rQacZY4TGxJiYKk08tVd00f9K/ZoQSnfzOQbTvz1VTLQawhgZvQgkPAFA8CQ8AUDwJDwBQPAkPMHML/YUsliPWxMQanRiDSaarkQkPiP0AtYQnDA9v3R913A3M0bi+wCQ8AEDxJDwAQPEkPABA8SQ8wOx1FLA0+79Z/k963GJ0PEX7/jgiNvJ33T/414x4d7wfWEPh/Zz6/5LwAADFk/AAAMWT8AAAxZPwAHMQClpSXzyNiP30DCP+hH5y6qb4CxGeoaV9f5xDLtbk5Ff/aj9/Kwa/mgGsofSmb8aAhAcAKJ6EBwAonoQHACiehAeYvdB+3uxNp/ppTdKKOCLW1EwrPaIZ/YXBfBoRJxiOasRwZDZBfjMsbmcAczTm/SnhAQCKJ+EBAIon4QEAiifhAeYuNKcPxIqWFMHCYFwzuqbv0KwgSj+t2UdpXDPaI3Lh7lgDlNa7GcD8tN5vg/ekhAcAKJ6EBwAonoQHACiehAeYvc4CljhiODLT7y9kEU1+9Dgdjwg1OK0RHQ9vrXN4OLCK4vtv8JaU8AAAxZPwAADFk/AAAMWT8ABzkDeg9wd/mrEwGNuKwa9JEWYZby5D1yPi/elJGxHvDvcvDEY2Y/ArD2DVxLdr6mtLwgMAFE/CAwAUT8IDABRPwgPMXmhAb5WzxBGDiHU+wwdmsUJhdqlrn2bEBVq86lb10xIWOE3RDGDttGoAB78kPABA8SQ8AEDxJDwAQPEkPMDMtepjQoTyl2HEybqupTW11hOEiPfHEaEooOvhcf2A1ZP3ipXekRIeAGATkPAAAMWT8AAAxZPwAPOXaliasQyhZKYqjGnGlDofHopuWs8fViKNakZ4ePv+EMD8LKT3cCPSm1LCAwAUT8IDABRPwgMAFE/CA8xBqGCJN8dEW6h6CTe7pFk2I1XdNKPr+etm/wvR7lwol8Y0A1hHBm9yCQ8AUDwJDwBQPAkPAFA8CQ8wB8OilwuR31oiFvJojUjjmtEhzj+OyW8l+RPkFT+D6QejsxhMlUXH/YNRWQCrS8IDABRPwgMAFE/CAwAUT8IDzNxCP8ZCFq0ClzRNelwj4iSpqqb50ynOMGgtYxrXiLyCJz1jGDOYaFI/PmlUM4DVMzzMNMO1tACAzUDCAwAUT8IDABRPwgPMXWxPbxfQ9FvXroo1MqnnnOZPpzRJM6LhciwdC4NlakZrJbrmP2Or/HSwsY15w0h4AIDiSXgAgOJJeACA4kl4gFUQGtTDzRQLgz/NGDdNFlOK8481Q2mWWfQXsmhPkUtlPs2I0qhmTCsuPzBBeMMsLCxIeACA8kl4AIDiSXgAgOJJeICZq682dSFa9S2hfX0YwbCrm0bEfnm6xOnT0zYj9rOTL3GKwTSNiI+P4vJWU016BDAv6TjTDNfSAgA2BQkPAFA8CQ8AUDwJDzBzsX6mXRAz+BUiVbk0I44INzvFfnZaMxizDFkM/mURRsTZtUfk0+e3gFU1eNNJeACA4kl4AIDiSXgAgOJJeIDZaxXQ5GKNz7DOJxTBtO9foTSPCZE/e/o1+N2IvI+ewbjw+HBzauk5mwGsQHhDpio6CQ8AUDwJDwBQPAkPAFA8CQ8wf6GPm/6Yn9TG3vwJJTSDMXl06Zo+zr/zAaGoqHWtnsHoZnTOL5hycmCi/B2V3uISHgCgeBIeAKB4Eh4AoHgSHmDmUnt5M1pjws1hRHkTfOfkUZw+zC6W5LS0e94JP4PHZDU7UVwAYNU03qnDn4V+X8IDAJRPwgMAFE/CAwAUT8IDzF1/YSGLcT+dNTFRmqYZQbw7ltTEfnhSlU4eYR5pmmbE+0PUz9IIYNWEt1867kh4AIDiSXgAgOJJeACA4kl4gJlbSHU6zejl9THjfuI0rSKbwb8sOnROHotuQhFRuNmp9XyD9c4CWD3h/ZfegRIeAKB4/ce96Qb/9QAyb3/St9ZDG8f7PvWseqhy+szZeqhy4uTpeqhy7PjJeqhy+PiJeqhy5Mjxeqhy6Fh+/+Fw/9Fw/9Ew/xOn8uePyzethevuWg9Vzr7g+fUQbD7bnvPceqhy9TXn6qHK/n17nOEBAMon4QGKlE5dNyPquj9W5cS+hMLd7fmF+4HVk66d1Yz+ICQ8AEDx1PAALbGG5wuf+UQ9tH7c6rZ3qIfGu/7j31cPVU6GGp5YY3OkVcMTanaOHquHKrGm58jR/PaxE6GGJzy/Gh6YnVjDc9W15+uhykE1PADAZiDhATaFWGMTS2xivzuta2eFmoA4wzSqGfF+YO2kt6CEBwAonoQHACiehAcAKJ6EByhSKqOZFOl6Xc1oiTU4MbrEJwRWTew3K70FJTwAQPEkPABA8SQ8AEDxJDzAprAQfvIKnlSUE4tuQtFOvDtEurxWM9oTAasnf/8tDN6UEh4AoHgSHgCgeBIeAKB4Eh5gU+iHn3itrOEFtJoRVJUAixFLfNo6JwBWkYQHACiehAeYu1vd9g5ZAKw2CQ8AUDwJD7A5xBqdVFbTjKDfz6PZh0/6ac0vFfY0It4d7wfmp/leTT+JhAcAKJ6EBwAonoQHACiehAfYHELHO6NSmlEMm/mbEfTTYyZE6/HhCcJNYI4G78rwI+EBADYBCQ8AUDwJDwBQPAkPUKZQUxNutqOfrq/ViF6MfPpeq6OdyRYGkzQDmJ/0Fosh4QEAiifhAQCKJ+EBAIon4QHKFDq+CTfbI0KRTT9EVQXQiGHfO4sxms0o4iOAVRTfkAMSHgCgeBIeAKB4Eh4AoHgSHmBTWrzGTvWT/jUjlOjkdw6ifX+ummoxgLXUl/AAAOWT8AAAxZPwAADFk/AAm9JC+ImXxmrW9wx/BiOb0aJoB9aN1ttx8EvCAwAUT8IDABRPwgMAFE/CA2wKqeqmGa0RodG/Wd9T/fSzGNb5NCLNIos0rhHA6lkYvOmaka6HJ+EBAIon4QHm7guf+UQWAKtNwgMAFE/CA2wKoUSnFQuh5qa/kOp0mpHGLUZV17P4E+fXHgGsln5/8J5txMIgJDwAQPEkPABA8SQ8AEDxJDzAprAQItbY9EPER8Sf+IB86nBjOAJYLfHtl97SEh4AoHgSHgCgeBIeAKB4Eh6gSK1+dQbjmhHvj43+qd+OZrTExwSxHxBg9cR+s9KbXMIDABRPwgMAFE/CAwAUT8IDFCmVzTSjy7CZvxGxyCfNYpqo5tIMYLUsDN6EzUgHAQkPAFC8/uPedIP/egCZtz/pW+uhjesdH/++eqhy4uTpeqhy9PjJeqhy5NiJeqhy+OjxeqhyJNw+fDSf/sjx/PaxMP/j4flPnzlbD12chevuWg9Vzr7g+fUQbD7bnvPceqhy1bXn66HKwX17nOEBAMon4QE2pWGzfiPiiHBz2BdPFmncFBHnB8zP33/oH7N40zv+XsIDAJRPwgO0POQPXpsFwEYn4QEAiudbWkCnjfitrevDt7ROhm9JHTsRv6WV3z509Fg9VDkSvpV1qPUtrvz+42H+vqUFsxO/lbUczvAAAMVzhgdYsa4+MA7s21MPVQ7s3V0PLTqwP59m/558mn17dtVDld27dtRDlR3bt9VDlVPhDIozPFAOZ3gAAMaQ8ADzF65LNU5/MDqLfh6DB2aR32pLD2lGFBdpYfCrGa05VBMtRtBeXmC19B/9sc6Q8AAAxZPwAADFk/AAAMXzLS1gxTq/pRW+lXVw/956aNH+ffk0+8NjWt/S2jn5W1rxW1Dxaunxauatq6V3XD09fkvraJj+aPjW14lTvqUFsxKPOT/9p19VD1W2b7u0HqpsG9x2hgcAKJ6EBwAonoQHACiehAeYuXafOv0sxkljJ0VHNzgtaZKJMZhpMzqfMERcx05x/sDMxH600luyGem3hAcAKJ6EBwAonoQHACiehAeYva56lYWFVrRGpcka0TXLKE7fisFMm7EwGNuM4QWxGhHvT8vUjCg8vPV8wOy03m9pXDMG7zkJDwBQPAkPAFA8CQ8AUDwJDzB7qUalEa0+Mvr9VrSEeUwvtuIH4e7+YLma0fX04eH5xIMIN4E56nq/pXESHgCgeBIeAKB4Eh4AoHgSHmDm4nWq4rW0Us1LjPaIXJxnZ6N99wQTxZqe1vLF6LCypQEmWU4/VxIeAKB4Eh4AoHgSHgCgeBIeYP5Sm3ojUi838Se2waeueZoxmCSPNK4ZQZw8SmU5zYha/QSFB6SHNCPqWDxghuL7tVXzNwgJDwBQPAkPAFA8CQ8AUDwJDzB7ocBlsVKn+mlXuIxpcw/zqKZajC6xJqgl1eU0Ij7/4F94vjAmzbMR8fELg2maMRiVBTBL8Q3ZHiXhAQCKJ+EBAIon4QEAiifhAeYgbzyP9SvjoiVM0KwBSj+dwuOjeK2szpqf4XM2omP+cfr8FjBLrbdjHDEICQ8AUDwJDwBQPAkPAFA8CQ8wc6nXmeZPvM5NvC7VMII0phnN+aWfLvHxLY22/SoGv5rRsXzDhzRjMEkW46ZpBDA7Nx0+nsXRI3kcO3ZSwgMAlE/CAwAUT8IDABSv/7g33dBunAaYwrbnPLceqlx97fl6qHJg7+56qHJg/956aNH+ffk0+/fkt/ft2VUPVXbt2lEPVXZu31YPVU6dOVsPVU6ePFUPVY6dyG8fOXaiHqocPhpvH6+HKoePHKuHKoePn6yHKsfC7ZMnT9dDlbh801q47q71UOXsC55fD0H54jFnOZzhAQCKJ+EBAIon4QEAiqeGB1ixVg3PNefqocr+fXvqocrB/fntZP/efNz+UPcTa3h278xreHbsyGt4TocamROhhuZoqLE5Gmp4DoWanSOxhifW+BzPbx8P8z8enj8u37TU8MB0nOEBAIon4QEAiifhAQCKJ+EBZi5eO6sfonWhqzGVhF3XnlpIs2nE1NJjJsbgVyPiOnUsfuf9wOqS8AAAxZPwAADFk/AAAMWT8ABzt5x6lgulM3W0RoSIo6YVH78w+N2MuNT9hRCDSbIYTNWMls4JgHmS8AAAxZPwAADFk/AAAMWT8AAz16p3SeMa0erTZlwRTF5C044u004fHtC1OC1dE3TdD8yVhAcAKJ6EBwAonoQHACiehAeYg7wCZmFhIYtxZl3iEq+1FeefFqMZ/RCtBwAbmoQHACiehAcAKJ6EBwAonoQHWH2xgGYYafxihJut6FJVDy0d7RHBsG+gxeiHiAsUbrakhzQDWF0SHgCgeBIeAKB4Eh4AoHgSHmDmFsJPSyxoWUZRS5qiGSvWVXQzts5oMWI/P12rE2cBrC4JDwBQPAkPAFA8CQ8AUDwJDzBz/dZPGrcYrYKWQcQamBip7GVSTKvVr87gXx5pXCOCeO2tuEpxAYezbASwuiQ8AEDxJDwAQPEkPABA8SQ8wMyNKWHJolUfM4iF3uRIdS/N6NJ+zjwWFhZCpHGL0RKXN82jEYN/WcQRaZbNAFaXhAcAKJ6EBwAonoQHACiehAeYvVC/shz9hYWJMbVQNJNm0YxQktOKwSR5DB7UjNgPz8WsM7B6JDwAQPEkPABA8SQ8AEDxJDzAKggFLqmIJkaHNEUzwhxbWnU5aVwj4vziFLEnoDjDhfgzmGSK1QFWmYQHACiehAcAKJ6EBwAonoQHmLnFSpgq4ohwcxhxRLxW1azFfnRiPzu9wb880rhGhJqeVs1PWoksgLUk4QEAiifhAQCKJ+EBAIon4QFmLtbDxOtipQqXrojaNTLTSc+a/+TP1091OI1o1RANxmURte6PzwCsJQkPAFA8CQ8AUDwJDwBQPAkPMHPtepg8ht3SxAgjYj85o/GLMZ3BHLOf9K8Zse4oThDrkPJ70+PzyO9NAawlCQ8AUDwJDwBQPAkPAFA8CQ8wc6mEpRmxmiXW5wxrdEIRTOwHJ/Wc0/wZPCrEZMOnaETr0WFEuNl6fFjc1vT1VBeifT+wmiQ8AEDxJDwAQPEkPABA8SQ8wMx11ecMrzUVojUqzSeL/CfVxeQRxTnk4iLF2bX65QkLOJrrKOIM4v35vcBqk/AAAMWT8AAAxZPwAADFk/AAMxf70In1L+OkMplmrFyayWIMF6MRcUS4OfiVRjYiLGBcx3i9sMVnrgJYWxIeAKB4Eh4AoHgSHgCgeP3HvekGzcvAimx7znProUr/0R+rh5iXhevuWg9Vzr7g+fUQMI4zPABA8SQ8AEDxJDwAQPHU8ABTizU7rD9qeiDnDA8AUDwJDwBQPAkPAFA8NTzA1PS7s/7olwcmc4YHACiehAcAKJ6EBwAonhoeYGqxhuen//Sr6qHK9m2X1kOVbeH2pZdsrYcW3XzLLfVQ5czZ/PbZszfXQ5VTp8/UQ5VTp8/WQ5WT4f6Tp07XQ5V4+0Tr/vzxJ07m9586M/n5zoTlOX02v3325nx9br75XD10cdTwwGTO8AAAxZPwAADFk/AAAMWT8AArtrCwkEca14j8VjWmZaGfxeB3FtXjmtGeIhenn6xrbr3+YGwzwuz7IbqlZ2kGME8SHgCgeBIeAKB4Eh4AoHgSHmDFYnlLqkjJYhn1Lf3BHc1oFcnEuaZpmtESpu8weNYs2tJzNGK62beF2QHzJeEBAIon4QEAiifhAQCKJ+EBVqyrHKXr/qQ1TSwMak2RxjUj3j9ZrNnJb417fHi++HShpmg0ehTtEcBqkvAAAMWT8AAAxZPwAADFk/AAKxbKVy5OelwzwoiFwZ9mjMZfiFBiE262tGt2wiMmz37wK41sxODfpOlbJUnxAcBcSXgAgOJJeACA4kl4AIDiSXiAFVvo90OkcYvRKmgZJ07TmkmXNM1idFXIdN0fZtcprwhaxgNSIU8zgLmS8AAAxZPwAADFk/AAAMWT8AAzECpiws1WjJXqWBoRbrZqXsbNtxntEZn+YB7N6DJ5boP5DcY2Y6Gfx/BBWaRxjQDmSsIDABRPwgMAFE/CAwAUT8IDrFiqgGlGa0SMcWJNSypraUR/MC6LwejJs+yYYvgcixF/otbcYj9BqQ6oEalspxlx8sHYEMA8SXgAgOJJeACA4kl4AIDi9R/3phvajdUAE2x7znProcozfu+e9VBl145t9VBlx/b89vZwO9l26SX1UOXScPvmW26phypnbs5vnz1zth6qbN+WP8eZcP/pcPvk6Xj7TD1UOXnqdD1UibdPtO6Pj598+9SZ/Pbp8Pynz95cD1XOng3r/4Yvq4cqZ1/w/HoISJzhAQCKJ+EBAIon4QEAiqeGB5harOFh/VHDAzlneACA4kl4AIDiSXgAgOKp4QEAiucMDwBQPAkPAFA8CQ8AUDwJDwBQPAkPAFA8CQ8AUDwJDwBQPAkPAFA8CQ8AUDwJDwBQPAkPAFA8CQ8AUDwJDwBQPAkPAFA8CQ8AUDwJDwBQPAkPAFA8CQ8AUDwJDwBQPAkPAFA8CQ8AUDwJDwBQPAkPAFA8CQ8AUDwJDwBQPAkPAFA8CQ8AUDwJDwBQPAkPAFA8CQ8AUDwJDwBQPAkPAFA8CQ8AUDwJDwBQPAkPAFA8CQ8AUDwJDwBQPAkPAFA8CQ8AUDwJDwBQPAkPAFA8CQ8AUDwJDwBQPAkPAFA8CQ8AUDwJDwBQPAkPAFA8CQ8AUDwJDwBQPAkPAFA8CQ8AUDwJDwBQPAkPAFA8CQ8AUDwJDwBQPAkPAFA8CQ8AUDwJDwBQPAkPAFA8CQ8AUDwJDwBQPAkPAFA8CQ8AUDwJDwBQPAkPAFA8CQ8AUDwJDwBQPAkPAFA8CQ8AUDwJDwBQPAkPAFA8CQ8AUDwJDwBQPAkPAFA8CQ8AUDwJDwBQPAkPAFA8CQ8AUDwJDwBQvP7j3nTDQj0MALDubXvOc+uh5XOGBwAonoQHACiehAcAKJ4aHgBgQ4k1PM/4vXvWQ5VdO7bVQ5Ud27c5wwMAlE/CAwAUT8IDABRPwgMAbGiXHdiTxb79eezdu0vCAwCUT8IDABRPwgMAFE/CAwBsaKlDwWa0RgxCwgMAFE/CAwAUT8IDABRPwgMAbHD9PMLNFBIeAKB4Eh4AoHgSHgCgeBIeAGBD6y8shEjjFkM/PADApiDhAQCKJ+EBAIon4QEANrSFfh7jSHgAgOJJeACA4kl4AIDiSXgAgA0tle00I0rjJDwAQPEkPABA8SQ8AEDxJDwAwIa2sBAijWtGX8IDAGwCEh4AoHgSHgCgeBIeAGBD6/f7eaRxjUi/JTwAQPEkPABA8SQ8AEDx+o970w3pK+oAABvCtuc8tx6q9B/9sXpoac7wAADFk/AAAMWT8AAAxVPDAwBsKLGGZzmc4QEAiucMD6vi0uf8VD1UufkFP1cPAcB0nOEBABjDGR5mKp7JWcroDM9oemd8ALhYy+mXxxkeAKB4zvBwUZZ7JmfklW95Qz1UefLDHlsP5Zz5AWBazvAAAAw4w8NE057JieKZnS7xzI8zPAB0iWd4rrr2fD1UObhvjzM8AED5nOFhrK4zO6/8ra+vh3JPfvpf1kOViz3DM3pcV60PADjDAwAw4AwPE43O9Cx1RicaneFZae1O17e6nOEBYCSe4bn6mvwMz4F9u53hAQDKJ+Ehk87oNCOd2Zl0died0WkGAKxHEh4AoHhqeDa5dBZnktHZnfP//Mrh36V81/Mur4cqP/faX6iHKne54r710HhdNTwjankAiHxLCwBgQMKzyaUzJM2zJKOana7anVlLZ3SaZ3XSmZx4NgcALpaEBwAonoQHACieouVNblS03NV8NW3R8si0xctdltvMpZgZYPNodTwYipb3K1oGADYDZ3g2qfh19HiGp+uMzlK6vp4eTft19S6v6lWdH35HL18fZ3wAyuUMDwDAgDM8m9yrb/OWeqhysWd2Rpaq5RlZ6ozPT33rT9RDyzM6k7MUZ3gANo9Wx4PXnKuHKjoeBAA2BWd4Npl51e506Trz06XrjM6IMzsAm48zPAAAA87wbDLxDM/v/cyN9dDyjM7UTPu4aKkzPss9kzMSz+hEzvAAlM+3tAAABpzh2WRGZ3i6ztB01dzM6gzPxdbmLJczPADlc4YHAGDAGZ5Noqt2Z6XfohqZ9sxRPMMz7Zmcpc4Q+bYWwObR+pZWOMNzYK8zPADAJuAMzyYRz/As1yvf8oZ6aLx4ravlnuEZnZlZ7hmdab+99a0vuKEeAqB0zvAAAAw4w7NJdJ3h6TqT0/KPLx7+efLT8zMvS53hmbZ2Z7lndJY6Q6RmB2Dz6D7Ds9sZHgCgfM7wbDKvfshV9dBFqs/sjMQzPC989KfrodwPX3e7eqgSa3hWekZnKc70AJTPGR4AgAFneAoXa3emrtVZQvx21lJndpay1BmfEWdyAFiu1hmea8IZnn3O8AAAm4AzPIVb6ttZr/ytcAblLs+sB3LxTM5Spj3Ds5R45idyJgeAyBkeAIABZ3g2iVYtzxJneJZ7RmdkVmd2RkZneJzJAWC54hmeq53hAQA2I2d4NomlanmWa9ZnciJndgC4WM7wAAAMOMOzyXWd+ZlXjU4XZ3oAWK72t7TO1UOVA/tcLR0A2ASc4SETz/iMzvB0nZmJZ4KWeyZnxBkdAC6WMzwAAAPO8LAsS9X6jM7MdNUCjTiTA8CsdX1La79vaQEAm4EzPCzL6AzOUmdo4hkeZ3IAWC3O8AAADDjDAwBsaM7wAAAMSHgAgOJJeACA4kl4AIDCpPLkxej3+xIeAKB8Eh4AoHgSHgCgeBIeAKAoC/1+HoNxEh4AoHgSHgCgeBIeAKB4Eh4AoGj9QUh4AIDiSXgAgOJJeACA4kl4AICi9BcWslgYhIQHACiehAcAKJ6EBwAoXv9xb7ohXWICYNm2Pee59RDr1dkXPL8egvLFY9LV156vhyoH9u52hgcAKJ+EBwAonoQHACieGh5garG9/Bm/d896qLJrx7Z6qLJje357e7idbLv0knqocmm4ffMtt9RDlTM357fPnjlbD1W2b8uf40y4/3S4ffJ0vH2mHqqcPHW6HqrE2yda98fHT7596kx++3R4/tNnb66HKmfPhvV/w5fVQxU1PGwmrRqea/Ianv379zjDAwCUT8IDABRPwgMAFE8NDzC12F7+03/6wHqosi3W7MT6nEvy28nNsSYn3C69BifWKE1r4bq71kMVNTxsJvGYdNU15+qhysF9angAgE1AwgMAFE/CAwAUT8IDrFgqBGxGa0SMcfr9EGncYiwMxmUxGD15lh1TDJ9jMeJP1Jpbf/C7GQt5LAyXeTHi5IOxIYDZSe/hxUjvMAkPAFA8CQ8AUDwJDwBQPAkPMAN5e3m82YqxQk1LuBlrZMbOtxntEZmFVGfTiC6T5zaY32BsM/oLeQwflEUa1whgdobvscVIdXkSHgCgeBIeAKB4Eh4AoHgSHmDF+gsLIdK4xahqcBoxTpymNZMuaZrFCE34LV33h9l1yit4lvGAVDfUDGB+Bm9yCQ8AUDwJDwBQPAkPAFA8CQ+wYqmbmWZclPS4ZoQR7W5rqvEXIpXBNCLcbMkrbtI8wiMmz37wK41sxODfpOnbJTvhAcDMxBLA1NeWhAcAKJ6EBwAonoQHACiehAdYsa5qlK77k9Y0raKXOEUa14x4/2R5Bc9CuDXu8eH54tOFmp7R6FG0RwBzE95v/b5raQEAm4CEBwAonoQHACiehAdYsVhuM/iXRz+PcRYGdzSj1Qgf55qmaUZLmL7DYvVOFW3pORox3ezbwuyAGRrz/pTwAADFk/AAAMWT8AAAxZPwACuW+rjIIo1rRH6rGtMSLn4zanofRfW4ZrSnyMXpJ+uaW1Wc1Igw+86Sopb0LM0AZiW+H11LCwDYFCQ8AEDxJDwAQPH6j3vTDRqPgalse85z66FK/9Efq4dYKwvX3bUeqpx9wfPrIShfPCZdde35eqhyYO9uZ3gAgPJJeACA4kl4AIDiqeEBphbby1l/1PCwmXTW8Ozb4wwPAFA+CQ8AUDwJDwBQPDU8wIrpl2f16XcHFsVj0NXXnKuHKvvV8AAAm4GEBwAonoQHACieGh5gxbr6wDi4b089VEl9YkT79+6uhyoH9uW39+7eVQ9Vdu/aUQ9VdmzfVg9VTp85Ww9VTpw8XQ9Vjp44WQ9Vjh49UQ9VDh3Lbx8+cqweqhwO9x8Jt48dz+cfnz8u37TU8MCi1jHomtgPj2tpAQCbgIQHACiehAcAKJ6EB5i5/kIevYXBr2aM0e/nsXJpJosxXIxGxBHh5uBXGtmIsIBxHfuDabIYzKIZwOoJb9fhLwkPAFA8CQ8AUDwJDwBQPAkPMHML/TxaDeqpJiZEa1SaTxb5z2BGIaI4h1xcpDi7/mBkM+ICjuY6ijiDeH9+LzBPrfff4JeEBwAonoQHACiehAcAKJ6EB5i5WK8S29Njjc+4Op9WPzfhZ/CoEJMNn6IRrUeHEeFm6/FhcVvT11NdiPb9wNzEN9zgbSjhAQCKJ+EBAIon4QEAiifhAWZuIfVT04h4nalW+3qKMKJV4xPun1bqOaf5k/41o9XvTphgYTAuizBFekgz8ntTrK24fFsGv5qxdUuIrR0Rpo/zG/zLAlZT2uWakd6CEh4AoHgSHgCgeBIeAKB4Eh5g5mI9TKx/ie3r4yJaGIxtxrTSs+Y/+fO1644G4xsxGJlH1Lo/PsN8DTZrFrHGZuvWLVnsvLSfxb4QBy+ZHHH6OL/4fHF54vLCTKV9qhHpHSnhAQCKJ+EBAIon4QEAitd/3JtuSE1bKxbbYKsW8kWtNtp4OwpLFZvMh/1oNMT7gdWz7TnPrYcqV117vh6qHNi7px6qHNi3ux5adHBfPs3+vfk0e/bsqocqe3btqIcqO7Zvq4cqp8+crYcqJ06erocqR0+crIcqR4/ltw8fPVYPVQ4dPVEPVQ4fye8/Eh5/LMw/Pn9cvmktXHfXeqhy/r/+fD1U2bO1Hqjt3pofdJ9xz3x7bg3//d3aUVhzLhx0z+Uvee8lHwrrfy6f/vi5eqC2cD6//3yYv2M8k8Rj0NXX5Dvk/sHxxRkeAKB4Eh4AoHgSHgCgeMuu4YnNuelaKU39Lfnt7SGV2hYeH5qXW0Lzbu9sWMozob1Y+y+sne4anrwe58D+vfXQooNhmljDszfU8OwKNTw7Qw3PqdOhhudUXkNzPNTYHDmW1+h01uyE+48cz28fPb66NTy3evEv1EOVZ94r316XhmP0peEYHe4e/G84jAjOhzrKcAju3RyO0TeHCV78wVDzFGp8Tt5SD9TOdxzj2dxaNTxjjkHO8AAAxZPwAADFk/AAAMW7UMMzbY2OPh6Yp7h76NdpfWvV8IQ+MGK/O+NqeA509MOzb/fOeqjSWcMTamROhhqe2O9OrOGJtw8fPV4PVQ6F20dDTU/s52feNTwv+NsX1UOVba1jbj1Qax3jw/1TvqVa75l4jA2H6N7ZcEw/HSZ44QfC6xFqes6dz2fQ9Z51TClb1zHo4H798AAAm4CEBwAonoQHAChe/5vf/M5hy+KWUKOz65J6oLY3NADr44GViO3l+nVamdWuT4gTXPJjk69jE2t40nVtotTG3tS6ltbu/Jizu6OGp+taWsdOnKqHKkeO5TU5hzv64WndH2p+joV+eGINUawxmlas4XnRW/IanpXW6KxU3GXiPhTfU7Gm58Qt+f0vCDU98f74nu07pqzIah9TVlrz1FnD41paAMBmIOEBAIon4QEAitd/8tveNWwpizU6z7p33l6+Pdy/0fp4OBMm+NV/yNuDD8U+HsL0anqmE19v/TqtzLTbc971CbfE+oQf+cl6qHLVNfkcYh87Y/vh6biW1r5wLa1Yw7NjyhqeeK2rox397rT64QnTx8ev9rW0XvLWF9dDlcnviLUX3yLnwnvqVNgJX9Q6ZufTnwnT73RMmWi9HVOmrXmKO9ClHdfSSnWDYRUAAMoj4QEAiifhAQCK1/+hd7572BL2vaFfnR2h/a7dr05o7wvteeHmzIXmu84an9hvT7xuy698IG9vvTG0D6vpmSzuD/p1is8XnjCYtj19rWue/v8fzrfHp37wJ+qhSuyHZ3+8ltaYfni6rqW1N9Tw7FlpDU+41lW8FlbsV6dV03Mk3I798IT5t/rhOT3bGp6XhhqejSa+J28J+2A8Zv+3f8i3b6wR+d7wHnBMyUdstDrKE7Hmqf47siXUEV59bf6A/XvV8AAAm4CEBwAonoQHAChe/59Pf2TYFBbb4y6J7X2heW5ya93ai+17sbnzbGgPPRVqdv5ruG7LTTfXA7Vz5/MGyI7m1OLE9uCtob33YKjZuebeeT3GZu/XKdpoNU/x9rMf8ax6qNJZwzOuH544zZ7JNTxd/fDEa1W1rqU1ZT88h8LtI2H6I6EGKNYIzbsfno1ewxPfIfE9Gmt6Yg1IfHw8hjim1AO1jVZH+ZJQ8xRrtr74zO46Qmd4AIDiSXgAgOJJeACA4vU/c/NHxzYETtueud7FlYztrbH99ESo6fnFUNNz4ub8/ngdmC7t7ZuPiPdP26Ac128hTBDv79JVs3P5Jfnta++TtwfvCNOX3q/Tr4b25qNhf4k22rXsoh/8mmfWQ5Wr47W0Qs1Ouq5NdDDU8OxfYQ3P6dDPzYnQD07sJyf2o3Mk1vCEfnfU8MzXtPtgF8eU9X1M6ap5Ch/JrRqg5zwyryO8KtTwpOOLMzwAQPEkPABA8SQ8AEDx+p+7ZXwNT+niSscanFPhS/4vDDU8nzubT38+dAoR599q/wydGGwPqee20CAaLnPSEvskCIvXOxPahxfC+sb209geu2VLvoCXXVoP1H7kPnm9xc5Q07MtrO9qt6evVHw9Y/tz7Nepdd2f0P4ebbRr2UU/8NV5Dc9V1+Y7XLxO1sFwnaykdS2tUNPTquHZubJrabVreMLto8fqocqRUMPTqvkJt4+Gfn5iDVGsMZpW6TU8pXNMyXVtj3h/HPHMh4VjUKuGx7W0AIBNQMIDABRPwgMAFG/T1vBE8Tv98ToesV+eX35/aL+PRTTB7lCEszt0cvCMe+btrfHaZltjg2pwLvZhEGp2XvKhUE8Q2oNPdCz/vrD8P3LfvL4irk/s42Gta0xmLewurfbmruv+RBv9WnZdNTyp/bzpwJgantg3T5wm1vDsCv3w7Jyyhif2kxOvpXUo9KsTr611OPbLczyfPl6rSz88TOKYsjKddYR71fAAAJuAhAcAKJ6EBwAonhqeWtwIsV+e2I/Nr/9D3l5/qqM99RmhT4RLO/tEqAdqWzpaWM+HNWjXJNUDtVij9JKOPh12huX7/nvn9RWxH6Gtsd+d+m+p4v4T29+ntdHa12P7ebyWVqzPObg/v53s3xv64Qk1PPu6+uHZMWUNT6ixadfwhBqdWMMTa3xCDc/xMP/janiYwmY/pkyrVcMTr+e3b68zPABA+SQ8AEDxJDwAQPHU8Cwh1sDEa03Fmpg4fWwgDZeW6oVualZ8HZP49LG9Ny5/6IanF7oZas0w1hR1XYclTk/ZWjU8rT4w8nqcA/v31kOL4rWz9u+ZXMPT1Q/PqVAjc/LkqXqocuxEfjteC6tVo9Pqhye/1tbhULMT++E5GWp44vJNSw0PLFrOMcgZHgCgeBIeAKB4Eh4AoHgSniWkkpRmpBqVZmzbmseOjkj97jQj9VPTjMG/LAb/sugSp4/zi88Xl2fcMjcjrm/cHoN/WbDJpRqwRiwMdopmDIvMYkRpP2pG0HH3GF2PCPeH5VsIEXf6fhrVjDBHYO2k446EBwAonoQHACiehAcAKJ6EZwmx/X3L4FcztsYYbMkswv3x8YN/WUQLMUL9QOpXZ3JUfQONYjAqjzD/uDyhPKG1/DEG/7JgvuLrt9L9I0bqp6kZ46ZpRjRYiuynP3jOZrR2sBRBGtOM5vzST5f4+JY0iywGv5rRsXzDhzRjMEkW46ZpxGprLcNgHddynxn8y4K1FV+Pjb5/tB+/IOEBAMon4QEAiifhAQCKJ+FZJ2J747Ttp7eEuPn85LilFb0sYnvrYJZ5hOVlvuL2Xm/7R1uqeVmM4TJ3REuYoB9+OoXHR7FvoFiD05ZGNqJj/nH6/Nb8xcVbb/vMYJZ5hOVlvuL2Ln7/GLypJTwAQPEkPABA8SQ8AEDx+p+75aMX1RzGbJ0Pr0JqI2366KFD9VAltXk2xRfxsycO1EPLk66H1ZT6Dmp62O0n35/64mF+1vv+8drvfFY9VLnq2nwBDu7dUw9V9u/fXQ8tak2zL59mz+5d9VBlz64d9VBlx/Zt9VDl1Jmz9VDl5MnT9VDl6PGT9VDl6LET9VDlULh9+MixeqhyONx/9Gh++9iJfP7Hw/OfDss3rYXr7loPVV761hfXQxXHFCYpbf/4ga9+Zj1Uueqac/VQ5cC+vc7wAADlk/AAAMWT8AAAxSu2hif1IzBP/dD+OK24dOdDg+rNsT31psP1UOXW2/NcNa7u+w7trYcqV1+W1x/EBeiHBtH337SvHqo8IrSnXhJS5Y3W3m7/mO3+8brv6qjh2ZfX5xwIt5NYs7N/T357795Qw7Mj1PDsyGt4Yo3MiVBDE2tsjoQanMNHj9dDlVjTcyTcHx9/NMw/Pv+sa3heEmt4HFNWlWPK2u4fsYbn6mvzGp79angAgM1AwgMAFE/CAwAUr//pm6sanq7Wwdh82DX93IX2wIX2iMzZ02fqoVpogAyTD27HNcxvb9uZ1wu0tkjH9op9IJwLy/PmT9YDtXj/LQt5jUQ7c82n/4rL8/bUT5/O2zdvt+OSeqjyvpv210OVh7faU/PbsY+ENd9fwva1f0T59CvdP17/lB+qhypXX5M/f6zPObA/b+9PDuwNNTzh9r49eQ3P7o5+eE6fubkeqpw4eaoeqnTV8LT74Yk1O+F27JcnzD/2AxT7CZpWrOF50VvyGh7HlBnLV39wszUi45iyuvvHD35N6IdnTF9gzvAAAMWT8AAAxZPwAADF6//LmY8MG95ie1/XdS5Wuz21q4+Ds6embC8N958PaxDbO+Mabtu5vR6qdW6AfIKu5XnzJ/Pb9zt4tB6qxPbjLf0wx7A8W8P0YerB+ue573tvzNtTv+bKfIZbww4Q+0hY7f3F/rG2+8cbYg1PaD+P/e7Eep1kf5gm1v3sC9fS6q7h6eiHJ1xL63C4HWt0DoUanthPz9HjeQ1PnH98/lnX8LzwzXkNj2PKyjimbKz944ce1lXDs9sZHgCgfBIeAKB4Eh4AoHj9//l/qxqemPnE9rKH374eqMX21Hhdi2jq9tbQ4BfbDzvbTzvaX8+Fu2P76TtuyusDJs9tIKxQqz02boBw/0OvrAdqb/1UPsHVlx2phyqfOX1LPVS5/c78Ffx0uP/KnXmfB586mbdv3nr71nqo8q6bDtRDI/nyx9f70tXeX8L2s3+s7f5x3VMn98NzYH/3tbQOxGtphTqfPaGGZ09HDU+skem6ltbRjn53Ys3O4dBvz5FQw3P0WKjhOR2upXV6tjU83/SKF9VDFceUnGNK/bdW2v7xuu+aXMOTji8xzwEAKI6EBwAonoQHAChe/3WfvH7YcHfljrw97QOH99VDlUeE9r7YPBjb12I/PjGzitOHmytuP81vtds3Yx8It+TNfb133JT3eXC/y/LrgsRniMsfZtf79Ol8zGdPHqyHKg8P2/dtn87n/xWXT25PvTK2p57K779dbE89FdpTt+Wv/w2hT4Rb7cqf//bhOij/cDi/NtJK95d8adqPj9vf/rG2+8dfPu2aeqjSaj8P9TgHx1xLK/a703ktrZ2z7YcnXgvrcLwd++WJ/fDEa2nFGp5ToYZnxv3wPPp38xoex5R8hGNK2Z85f/qUZ9VDlVYd4T7X0gIANgEJDwBQPAkPAFC8/n//6AeHDXf90KB5SWz/bLV35mK/PTGT+prQh8IlYX6t9tTQ/nk2tH9P3X4abp9byJ8w3n/9odCeGq4r8tkzob0y1EDFPhc+fTof8dlTeZ8DjwjXDYntqV8Z2lNji21sv14I9/fDK9LaHufzGdxwY17DdT5sry2hBbnrujdR1/7ysI4+N+Ls7R9ru3/85dOurYcqXTU84/rhOdhxLa29u3fWQ5Vdu/LbO6es4Tk6ZQ3PkSN5TcWhVs1OfjvWCB0Pzz/rGp6v/91fq4cqjik5x5SyP3P+rNUX2Ll6qLJ/397WPgEAUBwJDwBQPAkPAFC8/hs+9dZhy1rsh6erT4O8tW4gtLe9/6a8Pe7Bl+ft1bH9LT7fpTvy9vibQ58IsT216zol14frlLSmr/8uChN03s7dErZHLFJaCPc/8vb57a721Hn3ifDO8PrdZufheqhyh51xf8mXd8X7yxVhfwnz277z0nqoYv9Y2/3jL57aUcMT6nNiTU8Sr7e1f09HPzxTXkvrZMe1tI6EfnMOHc1rdo6Ea2fFfnji/cfD/Oddw/N1v5PX8DimOKY0lf6Z8/xv/Nl6qBL74dk/OL6EtAMAoDwSHgCgeBIeAKB4/T//9FuGDWGxvS1mQqF1sLcQxsTvzL/vpvy6GA+5LG8P3RqeIPbLc+nOvE+CadtTz4UG0reH9tT7Xpb3cdDvaC8NzaGD568HavHRnziV9wEQt9dnT1xWD1UeHvqIePun64HaA67I2zM/czqf/x2mbE/9REd76rtuyq9T8iW78ue/fWhP3RraU8Pmmn5/uTzsL2GGO3fZP5rWev+47qk/XA9V2n1g5PU5Y6+lFep6pr6WVqj7m/ZaWoePx353wrWzYj894f4j4fFx/rGGKNYYTatVw/PyvIbHMcUxpan0z5znPeZ59VClVcPjWloAwGYg4QEAiifhAQCKt2VLb2GQ9aQ4n8VnT9+SRWrvbEZqz2tG+k58FhfmW0XV4tiM+Wo/Y/7z6cE6NaM/WOZmfP7MzVnE9fvcmXNZpPbYZsTnT62Jk+L0yTNZxPuj2+3YkkWU2k+bEcXHp/biZqQ5NmMwKovUftqM2e8v8xVfn8U9o/qxf+SP79o/onxtBw8IUj1EjDRVFoNfzWgZTtSIKcXXII4IN3v9tIzNSOOmiDi/WYv7xHrfZ9I2aYZjimPKSvaPKJV0NSPNpL3UAACFkfAAAMWT8AAAxdsyau/r0tW+FxsQO6dfZa32wn7ePhojTj/4l0V7DfMp8ltVZtmMuL3+6cypLGJ9Q7pOSzPWWlz7qOv+uP6d089ZfL3H7RPNiNMP/mXRXqN8ivxWeftH3D5xxHBUiLTYWQx+NaMe24jJ2o+fLC5PXOY0i2mimksz5iwswEbbZ+I7Juq6P65/5/RzFnafsceRZsTpB//C3hPXKJ8iv1XeMSWufae0zI0YbRMAgKJJeACA4kl4AIDi9a/79JuHrXNXhutUpPaupn4/z41abXrhOibv6bqWVmqkbLgkpF4rvZbWLaGR7/pD+fzud/BIPVTZOqxmWtTvhxks5At4y/m4vvl1QG4J22PYjtiQelFoClP3toQRD7w8X97Pn53xdU2256//e27M1+c28bomu/Ln2xpaVVe8v1yeX2co9bvRtNLr3tg/Zrt//Fm4ltZV1+aPP7g3v5bWgf357WT/vvzaWQfCtbT27N5ZD1X27Mpv79g++Vpax8O1rI6fyK91daTjWlmHjua3D4fp4+OPHcvnf+JU/vxx+aYVr6X1tS//1Xqost73GccUx5Smle4fP/uY59dDlavC9fwO7NvrDA8AUD4JDwBQPAkPAFC8JWt4Pns6bx+L7XGfCu1xt43tcVPW8MT2zG07dtRDlbOn8/bvVvtkuN3VnnrrXTfVQ5Xbh/bIeG2OL9mRr/8nw/p/5sSBeqhyv4N5e3+vHxYw3Pxk2N6fP5XP7wGXHa2HKrE99cop21Pj63frbfnr967QPnzbjvbUz4fttfL9JbS3h9R8Z6jxsn+s7f5xXazhuSZ//MFQs7N/X7uG50Cs89m7qx6q7NkTbu/KjxFdNTwnQg3PseN5jU2rJudoqOkJNTyHjh6rhypHw/zi7fj8s67h+fE3/Gw9VHFMcUzJbLBjyrT7x3//lp+vhyqxjvDA4JgTXnIAgPJIeACA4kl4AIDibVnopWvEpHqalPssRmrua0ZLmCC1ljWjpTV9/nPufB4nT57I4pbz57I4tzCYrhHnBzNtRpS6UGjGcJJmDLdBM6L8/tH1RS5EGteIeJ2Uz56+OYte/1wW53u3ZHHufIiFtM6LcZvtW7KI63fbHZdkEd1mx+BxjVgIP+cHM2nGLYPnbMb5wWuQRXoNGrEQohej02AlmhFunj11Oot4f5fmuqafuH1jxP0vrm+M9Bo0I61xM4bt6434zOmzWQy2eBZx/4jbt7ku6ee2g9e0GdFtdw7GNyLqenyX/N0yMFjNZvQHGyVGfFB4SEvX/VGcPkZ2HaP0/IPXJY80bjHS1YuaP3F+7RFz1nFMOT84jjRjsGdnP7fZPjguNCLutdPvM/kGcEzJo/uYMtjqk2LwnM2IC1zaMSVqLlv66TJ4yzrDAwCUT8IDABRPwgMAFK//p59667Dx6/ahH55hg1dDuLcX+yBITfBN77tpXz1U+aqDp+qhkdDmmtqdG1JdziRbw3VVegv5Ep4PudzfHcqvu3O/g3kfGpeEfoDidUVSm2lT67omh/I+RK4+mPch8OnQ50bVRr7oX0IfBp85cVk9VHng5XkfC58/k2+fO+68tB6qfPZMvsCxz4R/PZlv71tvz9fnHV/Mr2N0m9031kOVO4T95dKww1wSX5+wB/V7eV3R+w7l+0urz4y4P4bbUbzuzc3n8+11Nuxf//vGfHnud1n++qU6rKbYj1Tc/+L/Jd4drhNz9eV5HxefOp33U/Ul2/PHf+J0/np9/sTl9VDlQVfkfcZ8/my+fl8a+sT4TJjf7cL+s9J+eK4OfWDsD33sHBzTD0+8ltb+cC2tfaFfnl078354dk7ZD8/RcC2to7HfnXhtrdDvzqEw/dF4La3QD0+8ltes++F59ht+rB6qdB9T8vX5wtl8H7/jrnyf+FzotyXWYXziVDimbMvvj8eUWzum1EOV9jElf3xVa7vo3Tfm63f/cO2rjX5M+ZLQb9GVO+ILlD/fz//bX6yHKrEvsAP7dzvDAwCUT8IDABRPwgMAFK//mx/74LAh8Ssvy9tz3x9qUq4K7b3v+WLe3nbfg3lNwrtuzNtrH3hZ3p59fuHmeqjyu5/823qocvNC3v4cXdrP2w+fevtH1kMjefvhDTfl7f9bQnvwA67Ia2T+/qZ8/e8ban5uCOt/LrQnXnX5oXqostDL1/f3/vVt9VDlTGj/zefW620L7dP32vP19VDlQVfkNVIfOJRfF+X+4fX5uxvD+l2Wt5e+/F+ur4cq53r56xErVraH7fldd3xoPVT53Om8/fUO4Vpp7w/L+5DL8u11SWi+7ffz7RXb11M/Fk1nwv509ny+hV/2r2H/C+sba7ouDf9XeNKX5uv7qdP58nzmxMF6qHJVaM9/ZdgfzoUat/xWev58f3jaHR9cD1W+EGq47hSuE/S5vHm/d2Voj4/X7bnN9vz+d4WapL982o/UQ5WrQ/t5vHbWgVCvk8S6nljTs3d3qOEJ19Katobn2In8PXP4WH4MiNfOOnwk1vjk98caoGOhRmjeNTxXvPRB9VAlHlPyPSIdU/J9+N/c5qvqocqdwz7z+bBP3XZHfhT411P5+twq1AX+TjimxPeYY0q+vt8ejinvuTFfn1hXev/L19cxJdYFx2PKrcO1z+Jn6q125TVet9uRP/9C+JT8lW96YT1Uueqa/P4D+/Y6wwMAlE/CAwAUT8IDABSv/9KPfGDYMPbAK/IalQ8cytvTrr4s/47/O0MNyL1DvzPX35j3e/PR49fVQ5Wbe3l7784r8va9W0J7Z3RJaG889cU8d9uykLfn323PY+qhyqWhxTj2OfC+0CfA/cL6v/2L+fqna8E0fSSs7/l+3sC544p8+q721a1hec/emK/vjn5es/RdX5q3v0a/F9rTT4cao22X50sQ20ujS0LuHJfv0l7+ejz1S7+6Hqq8/6a8j5CHXT65vTtdsawp1lDdHNrTf+tf31QPVU728tfjkrC+cX6hC4xWe/uJL4YJFvL7W/1WheXfdUVonw71BNGWsD/cfGP+/NvD++O77/g19VDlkn7++K3hdqvfqXA79iv0pu/5iXqoEvvhORD61Ik1PcnB/fm4fbEfnlDDszvU8OxYYT88R0INzpFQw3Mo3G5NH/rhifOPzz/rGp7LXnlVPVTpOqbE9+yZsA/tmvaY8q/hmBJqXC69PN+Jzsf3WLDZjinxGH/ii/VAbeF8fn94S7a25541PqbEfpPOpwvQNdwcaqTeEep+b7Ur3wBv+vzf1UOVc2F7H3vGe+uhylXX5tvjwF41PADAJiDhAQCKJ+EBAIrXf+GH3zVsSPuqUMOTt8al9s68ve3mULPyu//y9nqociLU6Oy4PJ/+XLx2VrgdaxyifsjVtob2zXhto1NfyG9vC+2/T79T3gdFL7Q/vjK0T584n7cHxz4WzofbsUYj9msT23Oj2G/Q1rB+sU+NEzfmzxftvCx/wrj9z3bUUC2EFuR+aJ+NNS5bB2OaTn8xX/4d/bxPh3vtzfsZeuhleXvt733izfVQJS7vmdDP05nwem2/oh6otda34/VoXXcn1OzE/0uc+ELcnvn+veOK8Pg4/3A7XPqtF2va4v5xS2yPD9v7O0N9xrvCtfD+z/G/rocq8f150zPy93+8jk2szzmwjGtpxbqf2A9PZw3P6fwYdPxU6IcnXOvqSLjd7ocn1PAcy4+Zh4+GfndWuR+e7b9/j3qoNuU+vDXsQ9vCp8CpL04+pmy/PJ/hLaGmJNZlxiO8Y0o9MBKPKeE9feKL+fKs+jEl1C1uDzVfTwn9+HwiXP/xzZ9/Zz1UORVqpM6GGrBbQp1p/Ew9+Z0frIcq4/oCC1sEAKA8Eh4AoHgSHgCgeP3veudzhw1hO0J7XuwD4Ulf+oB6qPKKUNMS+xw4FdrbYh8A51t9AkxuH+50Pl+B2I/I2S/UA7V+aJ/eFvoQCCUzvd2X5yNubrVP57djvyunvxja60NN1I4r8vbSfld7axgRJ++dDysQlud4WJ7tV+TrH9uD+2GDnP5iaJ/uevlCe/TuK/L29UvCtdHO5JdRaV33ZvcV+YhYHxD7RbolrE+7/Ts37evRErZH3B/j/WfC9txxq/z5u4QuLQbzy9d3S3g/x3qN2IdGXL/dl+fTx3qLQ09+Tz1UadXwxGtp7c/rc5IDeyf3w7N3b6jhCddO2rljun54WjU8oR+d1rW14rW0Yo1PeHys4TkRaohOhRqjacUanvP/75fXQxXHlHz9HVPy5+/SOqZ8IV//fqjp2RK2d/xMDYegzs/U2G/RuXAts1M35tt7yw/+33qoMq4vsLAIAADlkfAAAMWT8AAAxes//Z+ePWypi5nP1jDm+I15e+DNoT1tZ+iDIfbr0tk+GcX2yQ6t5sywfGe+kN+OC7TnVnn7f7zOyvkt+ePj853vWuBwd2wfPR22b7Qj1FDEGqMorH7n9tge+mw4c2PcXrntoT269fq2Nkd4/lBjEvfA3bfK+3Ro7T5h/WO/MPN+PXaG16Pzvw5hdWP7e2xvj69H1N5+ufj42G9VPxQQxPd7S3wBwu2T3xH6wAjt5/HaWQdDvU5yIPTDE/vl2RP64dkz7bW0Tp2qhypHj4XbxyfX6MRracX7jxwL/e7E26dDPzwzruHZ9sq710MVx5T8+R1TJs+wtf3C/LaHmpv265lv0d3hM7VVszTjz9QzT/pIPVQZ1xdY1yYFANjwJDwAQPEkPABA8frf9S8/NGwJi5lPq30zNNfFfmZOdfRBsD30ARDn32rf7Gi+i1rti6E9sqv9Ml6rKm6QLaEBsrV9gtbihwbd2PrZah+v/460+lSI7d0dTreu5RR0bO/tt4rbb/L2jFrtyR37Q8fLMZhgvq9HHBEfH/fXVj1EWKDYnh9vx+0zrfb+nd+Oy9NqTw+3u7Z3dOrbP1wPVa6+Nq/h2x9qdg7u31sPLYrXzoo1PFNfS6ujH56joZ+co6EfnUOta2dNd/+x2A/PvK+l9aq8hscxJeeY0iE8vlWD1fWZGpZvtT9TT31HRw2Pa2kBAJuBhAcAKJ6EBwAoXv9p/1rV8ERx5PnQXtbuk6EeWEKrPTGkWrG9clpd12GJ7Y3xOi5d7bux35KVam3f0IlCq0+F0F7eal+NfSKExe3avq2XLz5/Rx8S2zvmHx+/M9YLxO0/ZfvuSrVej7hDh817KtYPdK3/TdNtv8727Clfn6mvqzTl9j8Za3hC+3msx4nX1kr278/H7Q81PftCDc+uUMOzs6OG5/jJvN+d48fz27EfnUNHj9VDlXitrFY/PEdjDU8+/xPh+Wddw7PzD+9RD1UcU+q/NceUyVr9Kk3b19caf6a2jkFj+gKLywAAUBwJDwBQPAkPAFC8i67h6Wp/jFo1BPXfC1aYesWaoqjzOiZh+eK1tGLRw0pbH7u2b1yfrj4vdsQ+KFrLX/+9WGGB4+7QVUPVWr7weq92+3qXFb8+YQWmraGZWtfrM+f9P7aft/vACH3shHqd5OC+vG+e/XvDtbPitbR2hn54dkzZD0+o4Tl6LK/JORRqcmLNTrwdr8V19Pjq9sPTquFxTKmHKitd3JUKi7/ujykb7TO1XcPT7gvMGR4AoHgSHgCgeBIeAKB4F13DE9tXd1yWt9e1GuTC7VamNWV7Xmuhw/K1mh/jA8Lt06FPg9g+Ouv24Lg4re0b+8jo6JOhq8+DmW/fMEG4u9W+29WeO+s+GWZtoWP9Yw1b13VwVtqeHZ6+/frUfy+IDwi3V7r/d9fwhD52Qk1PcjDU9ezbE2/nNTu7du2shyqxH55THTU8x0ONTetaWR397hw+0lHDE/r1OXFqbWt4HFPWF8eU6Zavy3L6AmvtwwAApZHwAADFk/AAAMVbdg1PZ3tesNL23pVa78u/4bdvWIHz7TXKrPXyrtTKX6+wvnNe4ZUvb9DxerVqeMJ1bA7szetxxl5LK9T1xMfs3ZvX7OyO/fB01PCcbPXDE2p4Qg3OkSOxhie/tlas8WlfS2tt++FxTFnfVv4eDes75xVe+fIGM369ltMXWGsZAABKI+EBAIon4QEAirdkwpPa05oxbG9rRPoO/aRIfSBkEec3Z/H54vKMW+ZmDCbKYjiPRqxUa37h+cYtUzPi+ozmM4p5GzxlFuOWsRnxAYPfq7q8K9Va3rA+49a5GYN/WcxbeooshsuwGOOWsRnDhWzEcB6N6JTa95sRxRkOZxpGhJstabbNCLoe3nV/fIKFwXZoRri7Pb9w/7y1nj8tYyPGvc7NiPvIaD6jmLfBU2YxbhmbER8w+L2qy7tSreUN6zNunZsx+JfFvKWnyGK4DIsxbhmbMVzIRgzn0Yj5GyxHPQQAUCwJDwBQPAkPAFC8ZSc8sb2tK9a7ccs8KeZt3HNOivVm3DJOio1u3DpNivVm3DJOimnF9v1+byGLcT9xmlYd0OBfFh06J48ruTD41Yhws1Pr+QbrncUqS884Taw345ZxUmx049ZpUqw345ZxUsxdeML0nnSGBwAonoQHACiehAcAKJ6EB5i72IfNuJ9pa2YGD8kjiHfHGptYIjRYghBhHmmaZsT7Q9TP0ghgtcT3ayLhAQCKJ+EBAIon4QEAiifhAWYuNZk3ozUm3BxGFIpiuiaP4vRhdp3d5MSKnmafQcOfwWMm1hzFBQBWT3pPNiK9gyU8AEDxJDwAQPEkPABA8SQ8wPyFgpdGJcyFn2afPOmn3U9OHl26po/z73xAKPqJ/XyEVRyMDNFhysmBCdrv776EBwAon4QHACiehAcAKJ6EB5i9VgN6LpTDDGMwYRbt+1cozWNC5M+efg1+N2LUG88o0mOaEW5OLT1nM4AZGrypJDwAQPEkPABA8SQ8AEDxJDzAzLXqb2LETmsG0aphCSPCzU6hBKd6UBbtZchi8C+LMCLOrj0inz6/BcxTPAalt7SEBwAonoQHACiehAcAKJ6EB5i52GtNvO7UsIglRtAqqQnRJU6fnrYZ/cGCZDFc0mYMpmlEfHwUl7eaatIjgPkJ77+FBQkPAFA+CQ8AUDwJDwBQvP4THvQNGpcBgKI5wwMAFE/CAwAUT8IDABSv/8lzv6yGBwAomjM8AEDxJDwAQPEkPABA8fo//Lf3HVvDc4+73asemo8Pf/SD9dB8WP7JLP9kln+yeS9/4jWYzPJPZvkn24zL7wwPAFA8CQ8AUDwJDwBQvAs1PNoLJ7P8k1n+ySx/N6/BZJZ/Mss/meV3hgcA2AQkPABA8SQ8AEDx+i/79JPnci0t7YWTWf7JLP9klr+b12Ayyz+Z5Z9sIy6/MzwAQPEkPABA8SQ8AEDxZlbDo71wMss/meWfzPJ38xpMZvkns/yTlbD8zvAAAMWT8AAAxZPwAADFu+gaHu2Fk1n+ySz/ZJa/m9dgMss/meWfrMTld4YHACiehAcAKJ6EBwAo3rJreLQXTmb5J7P8k1n+bl6DySz/ZJZ/ss2w/M7wAADFk/AAAMWT8AAAxVuyhkd74WSWfzLLP5nl7+Y1mMzyT2b5J9uMy+8MDwBQPAkPAFA8CQ8AULz+E3/2zhd1LS0AgI3CGR4AoHgSHgCgeBIeAKB4/Q//wWPV8AAARXOGBwAonoQHACiehAcAKF7/4x95qRoeAKBozvAAAMWT8AAAxZPwAADFk/AAAMWT8AAAxZPwAADFk/AAAMWT8AAAxZPwAADFk/AAAMWT8AAAxZPwAADFk/AAAMWT8AAAxZPwAADFk/AAAMWT8AAAxZPwAADFk/AAAMWT8AAAxZPwAADFk/AAAMWT8AAAxZPwAADFk/AAAMWT8AAAxZPwAADFk/AAAMWT8AAAxZPwAADFk/AAAMWT8AAAxZPwAADFk/AAAMWT8AAAxZPwAADFk/AAAMWT8AAAxZPwAADFk/AAAMWT8AAAxZPwAADFk/AAAMWT8AAAxZPwAADFk/AAAMWT8AAAxZPwAADFk/AAAMWT8AAAxZPwAADFk/AAAMWT8AAAxZPwAADFk/AAAMWT8AAAxZPwAADFk/AAAMWT8AAAxZPwAADFk/AAAMWT8AAAxZPwAADFk/AAAMWT8AAAxZPwAADFk/AAAMWT8AAAxZPwAADFk/AAAMWT8AAAxZPwAADFk/AAAMWT8AAAxZPwAADFk/AAAMWT8AAAxZPwAADFk/AAAMWT8AAAxZPwAADFk/AAAMWT8AAAxZPwAADFk/AAAMWT8AAAxZPwAADFk/AAAMWT8AAAxZPwAADFk/AAAMWT8AAAxZPwAADFk/AAAMWT8AAAxZPwAADFk/AAAMWT8AAAxZPwAADFk/AAAMWT8AAAxZPwAADFk/AAAMWT8AAAxZPwAADFk/AAAMWT8AAAxZPwAADFk/AAAMWT8AAAxZPwAADFk/AAAMWT8AAAxZPwAADFk/AAAMWT8AAAxZPwAADFk/AAAMWT8AAAxZPwAADFk/AAAMWT8AAAxZPwAADFk/AAAMWT8AAAxZPwAADFk/AAAMWT8AAAxZPwAADFk/AAAMWT8AAAxZPwAADFk/AAAMWT8AAAxZPwAADFk/AAAMWT8AAAxZPwAADFk/AAAMWT8AAAxZPwAADFk/AAAMWT8AAAxZPwAADFk/AAAMWT8AAAxZPwAADFk/AAAMWT8AAAxZPwAADFk/AAAMWT8AAAxZPwAADFk/AAAMWT8AAAxZPwAADFk/AAAMWT8AAAxZPwAADFk/AAAMWT8AAAxZPwAADFk/AAAMWT8AAAxdvyhus+Vg8CAJRpy5+84SO9j//zofomAEBZUp4zbNJ61Ws+OBwBAFCaV73mg73/D2R/lHZPuoYVAAAAAElFTkSuQmCC;" parent="1" vertex="1">
          <mxGeometry x="-1319" y="-146" width="255.28" height="482" as="geometry" />
        </mxCell>
        <mxCell id="Uh9wZkquu2cPhVOEW5Aj-10" value="" style="shape=flexArrow;endArrow=classic;html=1;rounded=0;fontSize=12;startSize=8;endSize=8;curved=1;strokeColor=#000000;" parent="1" edge="1">
          <mxGeometry width="50" height="50" relative="1" as="geometry">
            <mxPoint x="-1052" y="171" as="sourcePoint" />
            <mxPoint x="-829" y="171" as="targetPoint" />
          </mxGeometry>
        </mxCell>
        <mxCell id="Uh9wZkquu2cPhVOEW5Aj-16" value="&lt;font style=&quot;font-size: 24px;&quot;&gt;Preprocessing&lt;/font&gt;" style="text;html=1;align=center;verticalAlign=middle;whiteSpace=wrap;rounded=0;fontSize=16;" parent="1" vertex="1">
          <mxGeometry x="-965" y="127" width="60" height="30" as="geometry" />
        </mxCell>
        <mxCell id="Uh9wZkquu2cPhVOEW5Aj-17" value="" style="shape=image;verticalLabelPosition=bottom;labelBackgroundColor=default;verticalAlign=top;aspect=fixed;imageAspect=0;image=data:image/png,iVBORw0KGgoAAAANSUhEUgAAAuwAAAMsCAYAAAAPv/f8AAAAAXNSR0IArs4c6QAAAARnQU1BAACxjwv8YQUAAAAJcEhZcwAAHYcAAB2HAY/l8WUAAGnnSURBVHhe7d1rs2PHeR5s8Dg8czikRCWyLMvSWLalGueDK/6SVP6a/5orlU85OE7iOI5zkhxLIimSkkgOOTy+uRE+eZfA1Yc9G7OnN+e6qrqwB6vRq7tXA7iBARYeu3PnzhcHAABgSY9/eQkAACxIYAcAgIUJ7AAAsDCBHQAAFiawAwDAwh77wx//qbPEAADAorzDDgAACxPYAQBgYQI7AAAsTGAHAICFCewAALAwgR0AABYmsAMAwMIeu3PnjvOwAwDAorzDDgAACxPYAQBgYQI7AAAsTGAHAICFCewAALAwgR0AABYmsAMAwMIEdgAAWJjADgAACxPYAQBgYQI7AAAsTGAHAICFCewAALAwgR0AABYmsAMAwMIEdgAAWJjADgAACxPYAQBgYQI7wNfQU089dbh58+bh9ddfP3z7298+fPOb3zzcuHHjy60AXCcCO8DX0PPPP3/47ne/e7hz587hz/7szw4//vGPDy+//PKXWwG4Th77Pw/mX3z5N3CNPfbYY4fHH3/8+M7qM888c3j66acPTz755LHk+myPzz///Fg+++yzw6effnr4+OOPD/fu3Tv+neuyjevvG9/4xuGP//iPD7/7u797eOWVVw5vvfXW4V/9q391+OlPf/pljYcr6/LZZ589rtVcZv396le/Onz00UeHL7744lgA+L8EdviaeOKJJ44feXjppZeOH4O4devW8e/nnnvuGN6zPSqk37179/Dee+8d3n333cMvf/nLw29+85vDhx9+ePjkk0+O9bjeVg/sL7744uEf/aN/dCz/+B//48MHH3xw+Ku/+qvDz3/+8+Ma9cIR4P/nIzFwzSWI513KfF45wef3fu/3juU73/nO/wvu+ShEAlJK/k6AS6DLZ5vzsYnvfe97x9vmYxRpr96Nhwcl77C/8MILx3WYtZr1lxeX2/8NAuD/EtjhmstHYBLCE3r+5E/+5PBP/sk/OQb2vLuej7q88cYbh//5P//n4b/+1/96+Nu//dvD//gf/+Pwi1/84vhuegJSbpfPOf/oRz86vPbaa8d34xOaAIA1eFaGayrvQubd8Lwrno8V5KMPeZcyQT0feXn77bcPP/vZzw5///d/f/hf/+t/HUN7Ln/yk58cr8u2fEzi/fffPwb0fJwm4f8y77Dndt4dBYDzEtjhmqqQnY+8fP/73z9+tCWBO59H/4//8T8e/vW//teH//Sf/tPh7/7u746fW/6Hf/iHY0lY/+///b8f/vN//s/HOil//dd/ffjf//t/Hz/Xfr9f9ktQT598pAEAzsuXTuGayufW81n0fP48H4PJx2LyrnreQf+bv/mb40dh8gXS3pf3EqzzDn0+R5ygnbN05Mt/uV3OGBN5EZA62V/+zhcC8wXVtJuP1ORFQz6PnLZym5zlI19mTRu5Ph+xqXfv8+/tO/h5cZD2Uje3y8d08u/ti4bUz+2z//Qj+83+U793VpvsK7dJyVlIUvfXv/718XZ1m7SdfmV7jWP7giP9yO3Sp3y8KC9o8r8Xey9q0laNtca7HWv2mbZy+/Qhl9vjU31JGyk1X9v+pG76Um2k5N97Lvql0+yr+l5zkT5FzUP6m3moLyfn+r25mFFr9/d///ePJcf0L/7iL47/E5S2s7/IXOS7F+lT5iHjzRrNfusL1elrtmV+ctv0L3NTfayx5Tinfh2X1M9c5rhmXKlfx6OkXo5BjkfWUu0vJdeX7TrJ/tNu2mrNT25ba+Z0HLlNtbUdQ9Z/9rNdx6ftV18z3rrPVruR25z2M222+gmsQWCHaypfMk3gqdCTJ928a57Ak7Ce0Jwn4dETcZ7MKwzVk/c2CGQ/eff+W9/61jFk5SM02U/q5vPvCYb58mBkn/l8fN7BT71cn9vkR3vSTgX/7DMSHBKWcqaaN9988/g/AAlu234nzLz66qvHj/3ks/kJMNl/ziZSwXFP9p0+11lIsp/8j0Nul9tkvBl3+pcv32YfuU2uS/+y//QvwShjSeDNi6G8qNkLOAmD+d+OfA8g480LqFyXtjKf2Wf6m7FmjvLiKmNNcIrMS25TbeTvekFUwTlznr7ktpmvtJN/n/YlLhLYMxf1wi0l+89Hq7LvBMCMN/OXoFjHKX/XWrkfs4E9x+UP/uAPjv3KXKZe6mS/WX/pa+Ypc5Tb5fikf+ln5jr1EvjTzu/8zu8c5zfHJePKfL7zzjvH/3VK/azfOh6lQnWOR77EnXbSXoXstJN9ZJ3k9vkfrvxvVfZd96c9CdLpR9rbjiNjzLqrNVcvfrPPrP/0L/+DlnW8136OWY5d2qv7bNrN/rJOcpu0mTWUfmb8vRd+wBqe+D8PQH/+5d/ANZIAkSfwhNEEzTwJ54ulCSsJV62gcKrCZD35n4a/BIUEioSdBNsEu4SGhI0EggSg7D/hJbdNKE0YSLvZlvB6GnRy2wTU+rsCRfafkvBQ/c/1FSZ/8IMfHMedsWY/6UcraGRfCavpe+YooTQhJ0Ezfcv+07eMKXXyd8aRviT0bEv6mLElDGZuc/uapwSs9K+CV9rLeBOU6gVK2sj85O8EwIwt8719wZF9pA+Z01zm9tWfbKt5qn9nv7ltxp/+pGzVnGW+Uj/9TjDN+Lcyv5mr1K252h6r9Hm7/zrOKdn3/Qa9tJcxVsmxrBdE2/nNC7185CvzWmE72zM3NU/pa/6dy2zPHCdIZ34y9/XCrV4IpW5Kgm3GV6G71tRW5ifjzpzkPpBjm9tlfrOv3L7mKNdlf1lr6X+O8en8ZFv6l7rpV+Y867TWX9rKPlMy12m3xpoXNmk/L8hPXzClzdw285G5qnWYOat1WP2s45pxpz+1joB1CexwTeWJOUEmQStPvHmnLO9s5x2+PJFX4LmsCn7ZXwWKChEJCQk52Xf2m7CVdxbz72xLSMpt00b6k3dHs3377nL6nlCWsFVhJx95yLt+UcEw+017ucy23DbvQp4GrJI2E3Cy/7SRfebd5fQxEmT+6I/+6DiHGVv2m77lXc3UzRjq3c0Ep/Qh16dv2/nN2Ord/9u3bx9DUs1L6qe9tJu+VsDKbdNu2q9xJgQmvKW/CWvZnlCWflRf0odsq2OR/aStvaBZx20U2DPv+R+UzEPGkHlLn1IvxzT7ro+gpI8VeNOP9Cnt3o/0KeOokv7vBfb0Ly8ist8ch6yRCuiZz8xrvZBKn9JuxpBQmvlK3bzQS1jPPrLuUj9/p63MU8aVucxY095W9pl91zvWaT/jrnVcx7ZeRKSt7D99yb5O5yf7ybYE8PwPSNZo6uf2tV7Svxz/tJdtGUP6kLbrOGa/GV8F9twv6kXjH/7hHx7XZO5bqZ92cyxzTPMiImNIm7kP5Hbpf9bQdt6BtQjscA0lXObJNgExl3kSzhNyBZ69J93cpt5Rq7+3JddVva1tYM+TfMJG2k/gScBJwMi+EyASZFISABJMEjjyTnD6l/CS4JCS21WYSUhIgKgXAmk7dRISI/9OMMm2hOGqkzazz6pXMpbsM+ElQS0hJ33KRx5yZpzsM9sTmBJscplwlLayPe9eZv8JN7ldgkz2n78zztw+QTHSTgJVPtqRoJRjkflLvXxcJW3l7xyTzEmCcG6fNtPvetESGX9CWfqfOtvAnJL9V7jPMUn97D99Sd9zm61RYM9+ciwTRBPWE/ASYNO39Lv6nrbT98xR6me/Oa65fbbdb9BLny4S2FMnt8m6ypgznvSv5ijzmdslYKduAnvayG3S3/R/O6b0O21lzJmjOm5pp15YRY059TLfOQa15rPf9DfHJu1nTlJv+wKg+lXt1QuAvAOej/qkr6mT9vK/Y+lj2sx+0l7qp/+Zh/Qjx+I0sKfv2Z41mP8FyJrObdPPOpa1ptNu5qXmKeOrtZkxpE1gPQI7XDN5ck4YSCBN0MoTdZ5w8+ScwJm/9+QJPLdrlbSbcqqCX8JogkgCQvaVcJFzuucy4SHhM/tO+EiYTuhJCEj4SFhOqbCUugkP2VYBKf1L++lDfZ44waKCToJXwnEuU3KbhOLU20qoyvbtRwjyUZiUBKgEkoS5jClBO/XzzntOeZkglH2nf1XS34w316fPGVv6lDlL23kR8cMf/vDYXkJn9pMv/WZucruMMe3kMvvPHKTk3xV2I5cJoQlWCVi5bf6u22ffuX3qZK4StHLsY28eRoE9t0+dBPW88MucpO/pd+Yif9exSh/SfoXPBL0EvhzvjDlzctGglz6lnSqjwJ71lz5mXxlHHa+MvfqXktumbsad8WU91VqtU5lmDjKWrM9I3RzPjDXHJPtIeC0ZW+rneGR/WQs5Fmmnjk0ua//bd9hrfqq9hO+E6oTrrJ1sy0fZcjan9K/WRh3v3C7jqTazj21gzzxlPeSFV16Aps2MIW2l3cxphfUquW3aTZtZw7kvpVRwB9bjtI5wzVRg3wbtPHHnCbhCzp4ErDypJyjkow/1hdUq+Rxttte74i3ZT4JEBZcKAxWYEhby5J96ub7C7jbkVN0EhwSUCl0ZT0JWSt5NTBCJjCvBJ7dPCMpYEu4T4PJ31Yv0PdsSwtJG+pK2c9uEo8xX6qdeSv6d6xNW0va25HYV0jKOhN60l/5UXxN6KsCmfsJhvVNa403Jtoy1gnjazxyV9CH1c7vMVeplfmq+Uj/bq430N/tMoE34rbHMSvjLHKXvaSO3Tdvpe9pPf7OPmpfttsxB9pmxp420dRXqWGV+qi81R7nMi4xsq3fPay1nvrfjSv3MZernuhyHjCH1T9d/xpr2cpscm9wmc5F2Mi/bY1P7r/ayDjO32/YSkPNiOyE8fcwLgayv9K/a3fYv29J+xp0XA6fSRtZ59pN2c59In3K7emc9t69jmfazLf3MvzOnWQPpT9YTsCaBHa6ZPMEmcOaJOn8nPCZUbN+V3JMn9PwX/D/9p//08M/+2T87/It/8S9+q+T6vNOad2UTKloSnBNyUvJ3S/qyLWXb/wp6CcIJLnnhkXCT0JGyDToVaBM40l4CY8JixrUNjAkdCR8puX36mDCX26WN3DbzVcE7dSrgZ9zpW/o4kv0ksKbk77wzmYCVdzbz93bMM1J/W8refGWuErZyzHNdAltK6szK7RLU0v/cLvOUoJh2a/u2pB8Jrtl35jF9Srg9DaQPSuYk400fEkJzTNOPkuOZMWTuc31K9TcBNpepU/J3rkvJust4chxrDZTWcYk6Nhl//s4+a/+RY5J1uj0utd6yvmvO07/0ddu/7Cv/rvFm7W/HW7brd/sCNfNT62Nb0pf0NS8qcqzTh/Tx9H4ErEVgh0dEnqTz5J5QUsGkQm8+cpDP1OYdurxr3At+eaKvdxYTdFoqzGQ/CYZ1RozTd/dzXT6+UoGhglPKNjglrFQQqXcw0/eUbdDI/hLWc33CS0JJ+lrvjifEpN8JVrk+bWXfmYP8L0NK/k6f0u/MR9rPeLYyR/W/Afk77WxfGFxU2k87OSY5DvmoSvqS+cpHe6rk4xR1nNKv3GZvvkayFrbvKKetjLf2uz1GKfliap2pJfuqvp4G0gclATZznICZY7kXcOt/mnJZ4Tn1cpnrc+xLbpu2UnJ95i5zkLI3j5mjrJP8L1TmIfOReanjkuOUY5PtFfpzWX+XtJOwnuvTx7xg2OtfxpN/p07Waa3VU9VerYeU/DtrJPet0+OYUqdpzbHL7a/yOAL3x2fY4ZqpIJxAmifePFEnlCQo5r+5EwD25HYJAAnb9bGKXCawpI0EhLyLl9CZd/1yfWRb3nXPO7EJd2k/nwfObbcB41Se/BMecrsEwISavIOfks/eV8jJGBIsEiASiLLftJ0+ZF/b8JsglncRUzeXCTDZnjFlDjLGhM582TSBJUGoPj6RwJMxRvqdviWkJHxmLlM/IT2fAU7oynUVYrKfBLy6fWReUj91M8aEyJylJ/N6WndGglPGlH5kXjKGKpmrBK1cn7lMYMwxSR+y37yzX8esXkTVcatxpN72M+z1IiVjyDu0qZ9xJHRmP62S7ZnjzHXmN3OfMbfWXUv6lHaqpO+9z7Cnj1n36X++c5D97sl4s54SWtO/rOnWdzuyj4w5c5v6WSNpP7fJeoqMMyVrPy9mMgc5JvnfqqzjOrvO6fxE5iTtZT1n/iPbcpuMJ33Ku+f5iEpr/hLss+/Uz22z3refYc/6zZrJsU7JfKVkHacvuX9t+7ftZ62hrL2MPfNa6wNYi3fY4ZpJyEggrJJ/5wk3ATTBoiWBKMGqvrCXH59JQEqgTbCZkSCVkqCwDVV7EjQSBhOeKmQmWCR4JBwlnKYkcKTvCcYVjhLMtu9KRsaaMSTYJKwluKSt7Tu+uUzbuT5tJoQk2OR21deav4SlBLnMR71wSZ/T3mnYyWWuS9vbfubvzH3+TruZl5TevJyq8SbA5oVI5iol4TB9Sfiq+Ur/Msbsczs/+TvtXETqp52Mof6dOUv7vZKxJVRnLWVuczzqRcKDVMet1nxP1U2/evVzfZU6DqfrLnOSUF/Hpv5HKNfl2OS41TpO2d4P67jUvyN/Z86zLfeh0XiyrcayVy/t1HGsfeXv0bFMvbyIyLHMi4YE9b138IE1COxwzdQTeL27nCf9BLl6N7glt6l3/BK0qiS4zgSu7Dcl+6t/tyQMJMzk3fScazrhN33MO5f/7b/9t8Nf//VfH/7qr/7q8Jd/+ZeHf//v//3xF0jzIqL1LmPJPjPmtJN+J8jmXccKsgnq9Y5y6mZ8CSO5zam8g5pfeswZXf7tv/23h3/37/7d8awaebcz9fPOYwLaj370o8Of/umfHn784x8f301PEDoNdZdRASsBMGebyXwlEOb6fGkwfcr8ZJ4yX//hP/yHw3/5L//l+L8G9S5wpP5F5TaZpxz/zNXf/u3fHvcxU9KP9C0verb9eJDS196623PR+qeyxhLSs5bzPx150VlrJ8ch87Cdl8xh5rIC9v0cl/tR+8l9KC/G82uotWZGJffF3C/3/hcCWIPADtdQhaw8Oefd8YTIehe2FSgTtBPyUz+BIyV/V+i/iF4Iqnf88t/4eVcy/+2eMJF3xRPu6t39fKwmJe/yJ3wmhG+DdW6zF3byTnjq5oVH7SclLxDqs+sJ7xlr3j1M2Qvs2Z4+JRTnowDpS/qVv9PPvOue+U2YzrvrCW31kYPsN3Owfeczfc31KXv9bsl85QVH+p35yguQtJkXGpmXzFfNVc1X+lzviLbmaaTWUMaQ45/1kI/WbI9Nr6QfmaeE0/Tj6+J0PnNscvxzbPIiLmPN/y5k/LWWa85ymRd8vf+xqnWTOc+xr3fGW7ItdVrr6nQdZq3n/pG1kz6eHre9kn5nTc3+Txtw9QR2uKYqcOZdsTzxJ0wkTOay9077g5Z95x3uhOj0JcEkwS7v4CUY5CMoCQcJxPVf8fmv+dkXDqmX2yUoJqjkRUrenU6YTrBK4E2wSQBN25mjhJmWtJG6aS8hJ+fDzjuOedf93/ybf3Psd4JMxlOfWU+Iy+3y4qH6nUCVvoz+p+NUbpfjlv8dyG3TXoJW3qnNfKVP+dhSxpyS8aQ/FdDuV/pc/a8XeDkOmYeUhL5eSZ185Chzl7n4usqLv6yprOWMN++sV8jNuk54r/WYkhd5OS6tIJ55z5zn+OXFddZSb73UC7qUOk5btQ5T8nfaT9u1/veO3bZUvzO23v0EeLgEdrimKrjmSTdP1Al7CZQpebc9T+69d+4elOwzITRhJCXyoqLCQb3ISDhMqEhISCiaDbqpn3CRMJLgmtsksCespyT85sVM6iQ8VZDZSh+rJFylzbSVvmVO84IiQTnvtufvtJc+1rv5GV/aTPsp+TtjTbBLX1J3Vo5T6ieQpd30JWPLC5r870CNI/NVQf0i89WSdnIcUuoFR/Uh482x6ZXMa+pl7Jd54bC6zHH9z1XGnDWyDbl1bDIXqZt6mcO9cB2Z99RPWzmOeSGw9z9jWZu1NrKmU+r+tLVdh+lDbpO1kTazbe/YbUvWVL2A+DofR7juBHa4pvJEm/9+T0kAyJN0vhyZM17k4xV5cs+Tfs9o+2XMPvknJNYLjfw9UiGkwmb+naCcM4kksCcA5foEqgSR035kzAlWKfm7NQe1n8xtwkxs66ft7UduEpDyRdH0I3+32t2TPlYpp7evfaftzFX+R2FmvlrS58xR+p+gl/WT/qdkHz3pR4Lhdh6/rk6PTWusORY5Jjk2dfz36mYtJfRnXeU2ua8mjJ++AMtt8+9cn8/N15erT+XYpb28yMuLgNzv6yM8M+sw2/MCI2VUF3h4BHa4pvJEnSfpfFwi7wInpOaJP2djyZcl80XPPHHX57rzkYv6UmYCbj7ake31EY+8y5qQmrINjheVdtK3KgkB6Vf6Ue9AVx8qWKQPdWaXkWo/gSdhMy9c8q532ki7CR4JMHlHPwHmVEJQgkz6kXCd+UrI2punXJe/02bmJe2l1FzlXc30oV4cpM20l3I699mWPqYkgGVO0m7aym1T0mauS93UyRzl9in5O3NVn3PPC5PUvV+Zw5qnrKMc8wTOvOirOan9b+cj12dtJdinn5nL1rvJXwc5Plljma/cTzIXmZc6tik5VjnembfMYdZxbrd3P8r62f7PWI5jjmlum7WROa25zhxnW/aZsL43z2kj/cu7/Wk394usrdw2beay2k0727WYbSk5ptnnzP0PeDichx2uqYSBCgV50k4wrmCVJ+Q84dfnyFPydz1ZJ1TkyTxnvciXKXNdAmPerc9HMfLkn39Hbpv6qZM2EgjyZbsE1Zb0K7dLiMk+8y5hSgJHAl4CxTYcpq/5GE/qJNDkc8FpPy9Cqh+n6mMhKRUsc11uk/7l88UZR4LWVuqkbsJ6zqWdFzfpT81V/k6fE2LqlI4JZAlF+Wx5vphZ85Nx5gVA2kzJ7VKqnfQt48p1aaPCUeYy9fMOftrJMUy9bM/tMkf5dwJ52sjtM5f535OE5fw74TElbaRPedGQPtb/BtRxy1jTRo7b9jzs2Wfq1ru49SIm9XPbzEf6kL+zv8xx2st6yXnIM47I/GYMtd9Zddyq5LhnfnPct2E381HnYU9fc3zzOfK82NiT/ueYpv/pW8ZbL2j3ZN+5H2SsaTP7r+AbuT7zUsc0/651nOuyLcctxyVrOcc5xyXzUS/osp6rvdxPsy3HNqE546o5zprIvGQMOd7pV9rMPjP2BOqMY3se9pqr9Cltp14dx8xBHc+0kf7n3xXWs77Tfs1t+pvjAKxHYIdrrJ6sE0zyd57QEwQSGBIoEgDqiTpPynki34ak/Du3SeirHxjKO38JFxXA8mR/kcCe/qRk36mfywqX6Vv6s+1L+lmhNWEl+50J7AkYKblNwmPGmDYSZPIDRglpCbCZl62MN33Ii4SElepD9SuBJn1L8Mq4c33mN/OTQJkXNGk3L5LSdn2MIJdpJ+OseU+pkFRznv5GglECYtpqzVf+zvzX7dOvXF8vFrK/tHO/gT1jiIS9CqG139ym+l/Hqkr+nfHmGOXFS9ZP7XdW2t+2uWpgz5rNfOQyc1p/p34F4nrBWWshayxzmzay/21gz7jSr1q7Ndf1d/ZR6zAlbdXxzrFJO/luRY53rcGSY5D2cxzTVuqnX/l3+rr3GJB6uV29uMgaAtYjsMM1VwEgoSmBIyVPwBUg8ySdQJF31RJC84SdUJCAlifnBNA6PV2CX25fAToq+OV2edJPYBi9w14SwtJWQkeFhoSECpHpd9rJC4W0m36m3zOBPRJYEkrysYH0M/tLsM5ZPDKubK9xlHonMn1KH3L79K2CV0r6WHOUQJqgmzHnfyDy7227CUyZx3q3PHOftnP7ajPtZey5Pn3Mi6KUzHXmIG3VcUypviWs5rY5hrku+0hQyxjTTo5J9n8/gb3k9tlW765W/9PftJ81kzGkD2knc5e66UPmI8cpt9sGxxlpK2OrkjZWDOzpR+Y1bWX/mZvUzX5y2/Qv12dO6pdCM/cJ9Tlep4E90mbWUMackrpZg/XiKJe5LmstxzX9ypxkDmqecn2OVc1TrZ/0NfvKZb0Iy+3S1xzHuh9nHDU/2/9Zy3XAegR2uObyRJ0n7oTFeqLOv/PEm8sq+XfqJEQkXOSJOsEkT9YJzHnCTqhJIKgQEHkHLk/6kdvnNglMrQBUEjDSVgXuBJTqZ65POEhbFfzSr4SUtFsBNP3MbVrSz4SPfBwhATDBJuGsgtN2HC3becrfKZnD7DvhLf3LeHOZPqf/23YzzlxXt83fNdb6d4Wo9ClBPW2l7TpWaS+l2snf1adcl7nJvhP8ctt6lz9BMWPOx3/SduY1+446bmkr12euUy/j2toepxpDrqv959/ZV/qQY5N+px8pabOO0XZOZiQw5sVSQmVum3nJPGec2X+1V+8S57rsK2PPetkG4K3UT2BOv9PX1E9J//dUUM4c1Nxm7eXfkX5kbmqMNS8pqVPHtdZJ+p/jkjnLmDJHucy/S9rJeHJd2s6/t/eP9DV9z1pO29mWftYLm7y4Tpu5vuap+pZxp05KHcdt29ln+px1kzbqWNb6yW2A9Tx2586diz3KAkvKO58JPwlCeXJPYMvfCQ/1rnLkCTll+ySeJ+p6Yj99wk4bCUBps96Vq7DZk/1l3+lHAleCVPWlAkraqv1nW94JzO0SKBJasi319qR++pPPdf/zf/7Pj2EmLzwSZnIO8wSvPdt5SshP//JCofpWao4q5OQy/W0Fmtw+Y6ygnPZP573XXuqmHzVfuUybuX2FsbpNSuomaGZbgnTmK3WqvTpu6VPq5jYVyvZU/6vUnFT/s5+0nX2krfQlbeXvbEu5iLSf+c9c5TLt1rratpd5yDjTp/Ql+03YbI0j9fLud26X+U69zE9ut6eCcOYrdSvQZlyRfabUekn7+bvmpuYkt80xyHV5EZnx1fV5oVHtlRzvtLE93rlNbp+xp35um2OYj27luwP5n4O8mPiLv/iL4zrPvk/nfbuO6nEg/95b2+nf9jjmulo/wFoEduBaShBJmElg/7M/+7NjOMlPxSfIJLjnnU5YWcJ57L3YybaUfD/jRz/60TGs54VF3sn/l//yXx7/F2nvdsDXk9M6AtdSAns+X53P5uddz7xTWB9BaL2bCquoQF7lVK7LO+N59z3rPP/7lHWd/y3IO+PCOjxaBHbgWsh/6SekJ8DkIxL5Al2+jJgwE/nYQT7yUYEGVpYXmflScNZwLrOe81GeBPN8MTQvRLMtJdvyMZys77wo9YIUHj0+EgNcCwnrCer1efp8VKB+1TUBPV+o/Mu//Mvj5d5ne2ElCel//Md/fAzo+fhWXnDm8/NZu3lnPWs9dRLcU7L9b/7mb45nK8qXsvPCFHh0eIcduBbyjmTeTc8X8OoHX/JOZNSZQxJq8sU5YZ3VJZTny6lZ0/kRo3xGPT/SlbWdF6L5d95dT52s65wxJmvcR77g0eQdduBaqHckc7aMvCuZd9wTzhPW/+7v/u74RdOcQSPvUsLq8q75H/7hHx5Ded5Nz/8a5awx+ehXPr+eF51Z33Wq0ryrXqfvzP8oOZsLPFqchx24FnJKvbyjnmCTMJNT6NW5xXP+63y2t04xCKtLOE/Jej09zWJedOYjL1nTCetZ37nMR2ey3RqHR4932IFroT7DnsCejxNEAk6d5zpBxmfXuS6yhuu87lnb+ff2XOlZx1nfeRFav0mQv72zDo8mgR0AABbmS6cAALAwgR0AABYmsAMAwMK6n2HPL6vlSzH1BS8AAB4tOdXo9vJUvjCdzJgzH+3JWZDyxelc9uTL1qnTOnlAvnQ9c3KBbO/VG90+46xTrPZke8bcqlfbt18o31P7a9XL3HUDe851nB8nySUAAI+eCpStYJqzdyUr5nJPznQ08zsZORNS6uQMSXtyfbaPgv/oBcIosCdk5+xNrRcgJdtzpqfWG9u5PnOSFzM9aWd7BrRTmbtuYL9169bh9u3bx0sAAB49CesJla3A/txzzx1/tTeXe+rXenPZk5Bdp+ndk0B/9+7d42VPBftW8I9eaK+gPfqESX0SpRXIE/qff/75YWDP9sxdq96bb77pM+wAALAygR0AABYmsAMAwMIEdgAAWJjADgAACxPYAQBgYQI7AAAsTGAHAICFCewAALAwgR0AABYmsAMAwMIEdgAAWJjADgAACxPYAQBgYQI7AAAsTGAHAICFCewAALAwgR0AABYmsAMAwMIEdgAAWJjADgAACxPYAQBgYQI7AAAsTGAHAICFCewAALAwgR0AABYmsAMAwMIEdgAAWJjADgAACxPYAQBgYQI7AAAsTGAHAICFCewAALAwgR0AABYmsAMAwMIEdgAAWJjADgAACxPYAQBgYQI7AAAsTGAHAICFCewAALAwgR0AABYmsAMAwMIEdgAAWJjADgAACxPYAQBgYQI7AAAsTGAHAICFCewAALAwgR0AABYmsAMAwMIEdgAAWJjADgAACxPYAQBgYQI7AAAsTGAHAICFCewAALAwgR0AABYmsAMAwMIEdgAAWJjADgAACxPYAQBgYQI7AAAsTGAHAICFCewAALAwgR0AABYmsAMAwMIEdgAAWJjADgAACxPYAQBgYQI7AAAsTGAHAICFCewAALAwgR0AABYmsAMAwMIEdgAAWJjADgAACxPYAQBgYQI7AAAsTGAHAICFCewAALAwgR0AABYmsAMAwMIEdgAAWJjADgAACxPYAQBgYQI7AAAsTGAHAICFCewAALAwgR0AABYmsAMAwMIEdgAAWJjADgAACxPYAQBgYQI7AAAsTGAHAICFCewAALAwgR0AABYmsAMAwMIEdgAAWJjADgAACxPYAQBgYQI7AAAsTGAHAICFCewAALAwgR0AABYmsAMAwMIEdgAAWJjADgAACxPYAQBgYQI7AAAsTGAHAICFCewAALAwgR0AABYmsAMAwMIEdgAAWJjADgAACxPYAQBgYQI7AAAsTGAHAICFCewAALAwgR0AABYmsAMAwMIEdgAAWJjADgAACxPYAQBgYQI7AAAsTGAHAICFCewAALAwgR0AABYmsAMAwMIEdgAAWJjADgAACxPYAQBgYQI7AAAsTGAHAICFCewAALAwgR0AABYmsAMAwMIEdgAAWJjADgAACxPYAQBgYQI7AAAsTGAHAICFCewAALAwgR0AABYmsAMAwMIEdgAAWJjADgAACxPYAQBgYQI7AAAsTGAHAICFCewAALAwgR0AABYmsAMAwMIEdgAAWJjADgAACxPYAQBgYQI7AAAsTGAHAICFCewAALAwgR0AABYmsAMAwMIEdgAAWJjADgAACxPYAQBgYQI7AAAsTGAHAICFCewAALAwgR0AABYmsAMAwMIEdgAAWJjADgAACxPYAQBgYQI7AAAsTGAHAICFCewAALAwgR0AABYmsAMAwMIEdgAAWJjADgAACxPYAQAYeuyxx3ZLb1uVxx9/fLo88cQTly5PPvnkpcpemxcte2Nrlb05q3Kc3zt37nxx/GvHrVu3Drdv3z5eAgDw6EmgTIjN5Z5nn3328Nprrx2ee+65L6/5bR988MHhrbfeOty9e/fLa/Z98sknxzq53JPrP/zww8Onn3765TX7sv3evXuHzz777MtrvuqLL5rx9xi2b9y4cRxzT7Zn7K16Tz311HFOctlT7bTq/eIXv/AOOwAA96/eBW45fce4V7bvOp+W03ewWyUB+Bxlr+2Llr1xtMrefFQR2AEAYGECOwAALExgBwCAhQnsAACwMIEdAAAWJrADAMDCBHYAAFiYH04CAKAp5xPPDwnlck9+9OeVV145Xu756KOPDu++++7xR4966gePWj+MlB9CGv0gUnz++efHH1ka1WvJOPMjRq3xlpqXnLN9T66f+QGmUTs/+9nPBHYAANqefvrpw/PPP3+83JOw+eKLLx4v99QvlLZ+wbQkaCes53JPfp00Ibz3K6WR7VVa8mNELdmWEJ0fM+rJ9oTsVr3a3ttXjNr56U9/KrADANCWIP7SSy81A/ko0Cdkf/zxx8N3vBOwE9Z7Qbu3bVb9emhLbZ8J2gn2rXqz7WR72mrV+8lPfuIz7AAAsDKBHQAAFiawAwDAwgR2AABYmMAOAAALc5YYAACacnaYl19+uXmWmNFZTnKqxpyLvXV+9VKnYuydCWZ0xpXSOkVipI3R2V1620v20Tsd40XaqbLHaR0BAOh65plnjoE9l3vqh5FyuSendHz//fePlz2jwF6h9rJBOtfnh5Fa2xOye9tL1cvlntH2MuqvH04CAKArQf3mzZvNwP7ee+8dQ2Uu9+TXSX/zm98cL0dGgT3hdzZIt+ple84Z3wrSo+0l2/O/Dr12ettLtvf6+/Of/9xn2AEAYGUCOwAALExgBwCAhQnsAACwMIEdAAAWJrADAMDCBHYAAFiYwA4AwH3LedM///zzZvnss88eStnryznLaNy1vc4t3yrb+q3yxOuvv/7nX873Vzz77LOHV1999XgJAMCjJ7/CmR8AyuWe/CBSfun0ww8//H/hc1vyC6d37949Xu4F69mStiIB9nQfpyW/htqql+t72yPbq06rRP3YUWt7/WjS3vYq2U/aae0vvxLrHXYAAO5bQmWC7l7ITqkgvLftQZSZfVWfWqXGdJlSbVTwvkwR2AEAYGECOwAALExgBwCAhQnsAACwMIEdAAAWJrADAHDfcjrCnPLxqaee2i217emnn+6Wqr+3LaW2j0r2Nyo53WKr1CkWczkqqTcq5/DYnTt3/u+JInfcunXrcPv27eMlAACPnmeeeeZw8+bN4+WenCf8F7/4xfFyT87T/t577x0vR3IaxJaE3wrKPdmeUN6ql+vzAqC1PaE9wT+XPdmedlr1RttL+tHbX+bWO+wAANy3BOmEzdN3savUO9/1TnmrVJ2q3yp7+zgt6U+rjLYnQKds3yW/3zJjpq7ADgAACxPYAQBgYQI7AAAsTGAHAICFCewAALAwgR0AABYmsAMAwML8cBIAAE03btw4vPjii8fLPR999NHhV7/61fFyzyeffHK4e/fu8XJk9MNJM+csz/acT71VL+dYz7nYWz+clNv1tpdsz3nhW/VG+ymjem+88YbADgBAW8JkfuU0l3sSsj/99NNm2B5tL1988X8jaV2eGgX1knq9urW9VWe0vWR7QvY52unVe/PNNwV2AADa8m513knO5Z5R4IyE8FYQ35qpcw69vs4ajfkieu0ksPffowcAAB4qgR0AABYmsAMAwMIEdgAAWJjADgAAC3OWGAAAmkbnCa+zpbTOdDJ7hpi4TmeJid64z+Wtt94S2AEAaKtQOgqmre1XFcIflgcd2N9++22BHQAAVvXOO+/4DDsAAKxMYAcAgIUJ7AAAsDCBHQAAFiawAwDAwgR2AABYmMAOAAALE9gBAGBhAjsAACxMYAcAgIUJ7AAAsDCBHQAAFiawAwDAwgR2AABYmMAOAAALE9gBAGBhAjsAACxMYAcAgIUJ7AAAsDCBHQAAFiawAwDAwgR2AABYmMAOAAALE9gBAGBhAjsAACxMYAcAgIUJ7AAAsDCBHQAAFiawAwDAwgR2AABYmMAOAAALE9gBAGBhAjsAACxMYAcAgIUJ7AAAsDCBHQAAFiawAwDAwgR2AABYmMAOAAALE9gBAGBhAjsAACxMYAcAgIUJ7AAAsDCBHQAAFiawAwDAwgR2AABYmMAOAAALE9gBAGBhAjsAACxMYAcAgIUJ7AAAsDCBHQAAFiawAwDAwgR2AABYmMAOAAALE9gBAGBhAjsAACxMYAcAgIUJ7AAAsDCBnWvvscce65bHH3+8W5544olLl7Szt+8HUQCAR8tjd+7c+eLLv7/i1q1bh9u3bx8vYUWjEFtBumW0vfTqfPHFF4fPPvvseDkyqjPbxkw9AOD6e+edd7zDzvU1Cuu1vVXO+e76Od9hH5mtBwB8PQjsAACwMIEdAAAWJrADAMDCBHYAAFiYwA4AAAtzWkeWNHu2lJyl5X7PmFK3zxleenLKxk8++eTw+eeff3nNb8v2Tz/99HjZk309/fTTx8s96c/MaSbTj+yr1Z9w2kcA+HrIaR0FdpYzG1xT56mnnmoG7gTaBOlWsM3tnnzyyebty0cffXT41a9+dbzck/CcbaPA/uyzzx7vS7nck74888wzx8uejOnevXvHyz0J6xmz0A4A15/AzpLqne9RYB+9Y50AnWDbCtK5XS/wlw8++ODw1ltvHS/3JDh/+OGHzQBdXnjhhcO3vvWt4+WejOX5558/Xvbk3f67d+8eL/ckqGfMAjsAXH9+OAkAABYnsAMAwMIEdgAAWJjADgAACxPYAQBgYQI7AAAsTGAHAICFOQ87D0XvHOuzP2g0+oGlnBf9448/7p6HvXce95JzrOccqK0fThr9kFHJOda/+c1vHi/3pC8vvfTS4caNG19esy/nX09fWvsbnX8+52evAgCszQ8n8VAkYPcCe8J6QuvoFz9HwXQU2Gd/WTQBOaG99UNF+VXRbGvtp+QXTl955ZXmL52Otpfsp7e/zMl77713vNxTt2/9AiwAsA6BnYeiAnsrtOfXRxNaZ4J0fn00oXxPgukosM/sZxTIsz0vDkYBOC8OXn755ePlnueee+7w6quvDgN79pO+tPaXFxfvvvvu8XJPbtt7oQMArMMvnQIAwOIEdgAAWJjADgAACxPYAQBgYQI7AAAszFliuHI5O0zOfd46S0zO2jJzfvScAeb9999vniVmdPaW7CNnZsllT86mMjoLTO988KXOs97aX05l2dteRuOq88b3zhIzcxpKAODhc1pHHoqE25y6sRXI65SPowCcUxP+5je/aZ5vfCQB+ebNm8MfKqqA3PqhoQTsF198cRi0M+ac0jGXezLe3guZkqDdO13lKLCPAj8AsA6BnYcioTThtvcO+swvcSao//rXv27+AmmCb++d79kfKkqwTThuBdzcfub86RlvXhy0xp3x9vZTUqd3HvUE9bfffrsZ2Gf3AwA8fM7DDgAAixPYAQBgYQI7AAAsTGAHAICFCewAALAwZ4nhyuUsKb3TOs6cISZyasKcCSXnFN8zOk1inY5x5rSOVfbkVI05f3oue6o/OXPNnrQ/c7rFnOGldx710ekuaywzcwwAPFxO68hDkcCaH0dqBdfZIJnb9wJ5bW/tZ7S9jF5ApI2E/oypZxTIR0G85Pa90zJmW87T3to+Gg8AsA6BnYdiFLRn5V36nPu8FZSzn9ELg3OE19nxJEjnXe+E9j21fRTY09/UafX7XOMCAB4+52EHAIDFCewAALAwgR0AABYmsAMAwMIEdgAAWJjADgAACxPYAQBgYc7DzpXL+cpz7vLW+dFnjX6wKPvJtt750WfPVd6rV+OZOQ9774eRanvrB49K+pI6vT5l2+zYAIB1+eEkHpqE21HAHcnte79UOhOkZ/swCsfby5ZsT9Ae/QLpqJ2Y2RcAcP0J7FxrCdujMN6rM9q+1QvSuX70jnfptQMAcMovnQIAwOIEdgAAWJjADgAACxPYAQBgYQI7AAAsTGDn2hqdcaW2t0qdYnG27LWxLSOz9QAAtgR2rrVtYN4rCdr5QaJe+fTTT4dl73bbsrfvvQIAcFECO9feXjCeLafvot9P2Wt3rwAA3A+BHQAAFiawAwDAwgR2AABYmMAOAAALE9gBAGBhAjsAACxMYAcAgIUJ7AAAsDCBHQAAFiawAwDAwgR2AABYmMAOAAALE9gBAGBhAjsAACxMYAcAgIU9dufOnS++/Psrbt26dbh9+/bxEgCAR89jjz12ePzxx4+X9+uLL5px89q7zLyUXhu//OUvBXYAANqeeOKJw1NPPXW8bEngbIXOhPXPP/98KrSfK9hfNkRf5Pa9ur152erVefPNNwV2AADannzyycONGzeagb1CaSt0JoR/9tlnZwnsM230+jJr9va9etWPUVujOm+88YbPsAMAwMoEdgAAWJjADgAACxPYAQBgYQI7AAAszFliAABoyikdn3322ePlnpwB5pNPPjmeunFPbc/lyDlO65gzrvTOGz86K8vo9mVUr7an9IzayVliBHYAAJpySseXXnrpeLnnww8/PLzzzjvHyz0J6x988MHxsidhvRfYE2ir9CT85hSUraA8sz2nsmxtL2kj9Vqnu8zt8yJn1M6o3i9+8QuBHQCAtmeeeeZw8+bN4+We999//xgqc7nn3r17h/fee+94OdIL7aN3ossoAI+2J4BneyuIl2x/+umnm/VG20u29/aXue1HfgAA4KES2AEAYGECOwAALExgBwCAhQnsAACwMIEdAAAWJrADAMDCBHYAAO5bzpueXzHtlU8//XRY8sNKKXvbquy1fdGSX2QdlTof/GXLuTzx+uuv//mXf39Ffob21VdfPV4CAPDoya955ldOc7nno48+Orz77ruHu3fv7gbkbM8vneZyL4SfllZoT1sJwaftn5YKyrlshfH68aX8fVoiP2KUOnvbq2R71dtT21s/0FSyvVcvP0jlHXYAAO5bwmuC8l7ITultu5+yDef3W/aCfJXTYH6/5ZwEdgAAWJjADgAACxPYAQBgYQI7AAAsTGAHAICFCewAANy3On1hTvu4V3rb9spTTz21W/bq3m8Z9bdOtTgqqXfZkvnbu75Ktj92586d5nlnbt26dbh9+/bxEgCAR88zzzxzuHnz5vFyz3vvvXf42c9+djxf+J579+4dfvOb3xwve0anQkxwTaBOiO3J9gree3L9008/fayzJ7fP9tbtS7XT20/OXz/TTl6QtOplbr3DDgDAfat32Hul3r3uldG76Bd9l32vH1V622tbvcN9VeX4TvpOOW7/cq4BAIAFCewAALAwgR0AABYmsAMAwMIEdgAAWJjADgAACxPYAQBgYX44CQCApvxg0ssvv3z8EaA9ox9G+vjjj48/qpTLkfx4UusHlHJO8pwfPZc9VS/nL9+T63s/VJTtORd76/Ylt087rXq1vbWfUv1ptfMP//APAjsAAG0J6i+++GIzsFfgbAXTTz755PDRRx8dPv300y+v2VdhffSLpzN6ob5+jKhVpwJ/r41IG7162T4T/Ef7++lPfyqwAwDQlp/fT2DP5Z4E+d478J999tnx3fdc9iSof/75593APhvoLxP6E5x7gb6M6o0CfRm185Of/MRn2AEAYGUCOwAALExgBwCAhQnsAACwMIEdAAAW5iwxAAA05ZSNzz333PFyT87TfvPmzePlnpzW8e7du8fLnpwhJqd+zOWeXJ8zzYzOAJPtM/Va6uwuuezJWV16p23M9TPnYR+18/d///cCOwAAbQmcveD57LPPHrNiLvfkHOzvvvvu4cMPP/zymn0J673ztdfpIUfnc0+9vDjonUayF+YzzpzCchS0sz2nskzY3pPr8yKm9UKnVDut/f385z8X2AEAaKt3nFvnCc+776+++urxck/eXX/rrbeOlz2jd+IT1BP6R+/Up94o2PcCe4J2L0CXBPG8SGkF9mzv/c9Eye177bzxxhs+ww4AACsT2AEAYGECOwAALExgBwCAhQnsAACwMIEdAIAHLmdmGZWca71XcqrGvetPS6/eqI1sn93PqOyNsVV6BHYAAB6YhNG9MHtaKii3Sk7TmJLTOj7oUvuaKXt9vUjJ2E/D+2kR2AEAeKD2QmirnAb5+y174Tilty3ltJ37LXtju58SAjsAACxMYAcAgIUJ7AAAsDCBHQAAFiawAwDAwgR2AABYmMAOAAALE9gBAGBhAjsAACxMYAcAgIUJ7AAAsDCBHQAAFiawAwDAwgR2AABYmMAOAAALe+zOnTtffPn3V9y6detw+/bt4+WD9sUXzW48FI899tiXfwEQqzxOX7fH59l569XLtpl2Uufzzz8ftjUyM8ep06v3+OOPn6WdmTZ4sHIsn3jiieaxeO655w6vvvrq8XLPBx98cHjjjTeOlz0ff/zxsU4u93zyySeHu3fvHi97Pv3008NHH310vGzp3Q+efPLJwzPPPHO87HnqqacOzz777PFyz9NPP314/vnnm9tLtmfuWvXefPPNNQJ7Jm3mAaTqzNRtOceDR3gAAb4uZh9TR4/Vs+1c9vF15jF6FaM5K6nTC9rZlvAxauuzzz47hplc7pntz8wxSIBLkNuT6xM+WttLBcFWvTrW1+V4f13VcWodB4H9wQf2J15//fU///LfX5FO5ADk8irMPIjMPticQ+8BwoMH8Cipx97e4+9VPDZXeLtuj8Gjucn2Cux7pQJ7Sv5ulWy/d+/eMfBU/b2SwLN3fUrC/t7125I61a/8fVqyrUL4dhynJVJv9Hx73Y73103mv3ecRoEz6y1BfBS0s3ZSJ5d7st6yPZc9dV8Y1WvJWBPWaw235EVMxpzLPbk+ob21vYzaydz1ewIAADxUAjsAACxMYAcAgIUJ7AAAsDCBHQAAFiawAwDAwgR2AABY2PCHk37wgx80fzjp9FyqLdneOxdmttV5W3uqnVa90e1nz+WaOjkXZuv8m3U+0tH5OSN1evuc7RPX38z6rvKgzay5mbX5dV27V3EMzqm3bnL96PG397haRvXq+lE7tWZ6a6f3uJnr8/g8WnvZXmXPaPtWr07G2xtznttmzged7b16dX7qUTupl3Owt85jPervrByj3vPk6LzSZVQv7fe259iMnmdnzc7NOeav9PqdbaNxnWPcM+p4t/bnh5Me/A8nDQP797///cMrr7zy5TW/bfQAU+oBpPdA1HuAKaP9je5EtfhHC3z0AJLrcxBGB7IeaFoPaHUHaG3n+ph9kO/dV2p9j9qq7b16vTU+ez8YPUDPtnPdZF6rtPS2zap5u+z8Zd3ksbO1trKtF/Sy5mYff3vtjOZsq7dusu56P1gy2l5Gj+O1vkftpJ+p0+pv5qN3v71owGgdh1yfOjPHKXVaxynOtX5785Jts8ep93yaY/jCCy8c6+zJ7W/cuNE8zlu9cWfbaN4i9aq09LaVzFuVPbl+tD578781U2ck+0p/Wm0J7A85sCeo9wJ7FncmbfQAkgnLL6+1Jm60veSONNpf7wBkoc0s8Byg3gPA7IEcPZCkLzk4vTsk18PMA3TqZO226tb6Hj1hRNoYrfWW2ftB6mSNt9bnbDvXTeY1x6A3v71tszJv55i70brJmhs9/o6e2CLtjIL9aF3GaNx5vMzjYutxs7aPHjdHj+Oz7aSvqdvqc81/a14yZ++9914zgJS08eGHHx4v94yOc8n89x5n4pzrtzUvmdfevJXRccpz7csvv3yssye3T2AaPR9Hb9yZ19wHZuY3dS47vzPzN3r8nZnfmKkzMjqeAvuDD+ySIgAALExgBwCAhQnsAACwMIEdAAAWJrADAMDCumeJeemllw7f+c53jt/Q3jNz1oDIt3R79WbbqW9xt77ZO/pmdr7dXKUn34bON3tb387Ot4Z7p6Eq+UZ16rW+/Z7r8833VjvpZ+q0+rE1GhP7Zr7Nnzq9swLk+qzd0dkFRus3bWT76H4QaaPVzmgtZHvW1Khe1l7WZmv95fre9lL769UbtdEa61bNSaturh+d3SFSZ3Q8e/uZVfPSUsdndJzS1zx+tvo78/ibs8iM1l2t31692TnpjSlzknXVetzMbWfWXW7fe/zN7XNGhtb2kv2lTmt/mY+csaI1L9mWs17MnNWidzafzG22jeY420frfPY49WReesex5q1XJzKvvefbPEfmtI6XPUtMxlxlT+Ysx6h3v4/cfjS/Mdqeeemt4VqfrTq5fvbxt3ccqh8zx6nXTs5w8tprrzXPEvP+++8fz3TiLDH7sn10lphuYE8nckrHXO7JA1TvvLEl2zNprTtCJi11Zu4AvTqj248WZBkt4Nk7Srb3njDqQOZyz2ghlPSzCvNqPY3WTdZmL/Bkbc+cljTbR8Fp9gnjMms923rru2TdZu211m+u773gLKnXe+Ab3Z8y1pknyNTpzd/oOJZRvdn+jGT+Mzet4zB7nLKueo/Dub43L7k+dUbjyfYqLbNzMhrTaNwz85LtWVetepn7bG+t7zJan7VeWvM7+/iQuesdh9Hcl6ozU/eyZo7BSOr0jmfmvvf4Uc+Tre2l1nnrONX9JJc9dRx68zsz9xlvlT2Zk4ytte4y3mSH0bhHj7/Z3nucL+lH6rT6MwrsCeECe1u2XyqwZ0e9HyyYmZDIpPTuKDG6A6wkd7As3NYdrYzuCAk7+V+M1jsHmfcXX3yxOf8l/eg94LEv6y1rcrTuRuv8XA8g6cvME0aM7i+9tTC7XrJus/Za6zcPZDNPlKMHotH9JOPMnIyOU+r0gvZo/ku2j97pnOnPSD0Bto7DaHtJP0fn706d1uNvxlHluhjNSYzWebZl3eWyZ1Qva6F3vx1t37pOx+Cq5D7QexzKsZkN7DkOrftBjk/v8aPM3F9mjmPWZZU9GW9v3V0kUPYef3P7mTde0o/0qdWfmcD+1ltvCewNo+PkPOwAALA4gR0AABYmsAMAwMIEdgAAWJjADgAAC+ueJaa+/dr6luxFvlWdb2a3vpGb62e+Vb2K0dkHSupk7lrfqq5vD7fOApPre2eRKbWf1rfoZ+d2dJyi9Q37Mruv3tzNzm/06o36knU7c/aG0Vk4Zr6NHqP7S+Y2bYzmOGbmuTd/M/M7Wle5Pmt09C36bO89jqSdrPHWfjIfmbPRvIzmN9fPnG+82mntb+Z+MmO0znN95mR0nLJm0t/W+ks/M6be/KXOZcdzlUZzEqlTZU+uz5rMMeipeq12Mq+9++1o+9Z1OgZXJccnWaR1nOrxY/Q4VMehNcfZ3juLTBndVy5yDHvrsx5/e+PO42/rcbOkjd7ZTkbby6g/OaPgt771rePlnpzZJWeJyWVPHsucJearhqd1zIHpPWFksFncMwv0XAt8Fa052ao7Y6vu6A6XB6GbN28eF01PFlTvQNdxGsmTeu8BK9ePnnhmj+VoXjKW0QNRPYC06qUvvf7kASE/5tB6YCj1ANJ6gMi8ZV5GQbCOQ69PM8cpZua5Nb9ltD0yx616uT7bWw/gZbTORw+MmZOZJ9LMfy+Q5/bZNmpndJzq+plj0FPz2jsOM8dopr+jvl52LCsazV22Vxnp1av5bc3haDt9o+OU62ceh2aOQ+9+NOsit2+NKWbH3WsjUqf3fJrH3V7gLGkndVvznKzyve9973i5J296vf3228fLHoH9PgM7D1YWfu5ErTtcFkt+uGoU2LMgeudrz6JMUBk9kMwEntxJWtsj+xjtpx6EWuPOHaT3jmsZBcHo9Sd35l//+tfHy55RsE/7M0Hw62j0ZBE5PnkQaj3QZ9vof/JG6y6yvbd+c5xmn5Bn6gCsrnLG6PG3FRRLbt97HL9169bh9u3bx8s9CervvvuuwN6Q7c7DDgAA15jADgAACxPYAQBgYQI7AAAsTGAHAICFCewAALAwgR0AABbmPOwPUc5hnXOats5rWudXH/3S6ej8nXX+6dF5wrM95z5tncc623NO0147s+ev7p2Hfeb86pF5S73W/EWvPzln93vvvdc832vJ+V5z7tjW+Vxrbh/Fc3fPnIc9x6d3HuCc5zbHsXW+25l1F3W+9la9HJ8qI4/isQS+fvIYncff1mN1Hndnfik2j9/JGK3H8ddee+3wwx/+8PDqq69+ec1vyznRnYe9Ldv9cNLizhFcR/WyKBNmRiEkQSf1eoFnpp0ZvaA3Cngl23Nn6tXr9TV35IT23h06KjC22sr155iTr6ta461jnutzDHtrYhTWI8cg9UbHwrECHiUzj78zz7e9nPHNb37z8OMf//h4uacC+8wPFQrsXyWwLy53pNw5ekEmckfqBdcsypmgPaqX66tcVm9M9QAyM+6ZYN+ScJc7fcY8cq5xA8B1k+faXmB//fXXD3/yJ39yvNyT8PyrX/1KYG+YCez3l3QAAIArIbADAMDCBHYAAFiYwA4AAAsT2AEAYGHOErOw2bOlZHvvbCn5JvTs6e5m6vWM+hpVp1d3dtyp1xt3byx1lphc9oza4frImhmtq+jVmbn9OcyuO+vz0TG79lqPiVsPeh3Prslav9bw2pwlZt9VniVGYF/cbLgY1bvIg2dL9tEL0rV95sniXE8ovToZS+80lQnquTPPBHauv6yVPNmM1tWoXq6vsqfWy2XXTW6f9TlqJ+s3xTr9euutua08tvZO81t6bc3sJ3prLttm1mTW7swbJzxcAvs+gZ0l5QmgF2Rq+8wTRZWWc4SPPAEksLeeCHL9TGDn62F2fY7Wea5PndH6vewazrqcCTLZT2+d8/VQj5m9dRdZu3nS763zXhsz+yijdT5zP8jaTTib+T0MHp6sK4H9q3Jfcx52AABAYAcAgJUJ7AAAsDCBHQAAFiawAwDAwgR2AABYmMAOAAAL656H/SLnY+2ZORfris4x9lEb59hHXMX85ry+vR/kyFhmznMdqdsa+0XWS2/+cl7qKntyfc7ROnP+315/VlzbM+tqps7IOdqIq1q/OcftaH1mTKnTq5dtrbFnLLPnRO/NX63PUVvZPjoPe/q04jrtOdfaumw7s7d/0PObfvR+H6BkbeZxunW+7BkXGfNlxz06D/vMPh703N+Py667mGnjHPuZmb+Z87D/nzzZPA/7hx9+6DzsHdl+qR9Oyh2/F8BqsDN3ptwZZxbFKnIn6N0RRtvLqI1eKIiZfWReq7TMtDOStZDF1LrDZh9VLiPjSPgYrZfsZzR/vRCTNZk7feuJoqSNXn9Gc3/VZo7DaPuM3D7zP9POaH6uYv5GTzhbM/PT2j5aL2U0f7l91mZvDUe2Zx236lU7vf5cxfxfxGj+R9u3LttO1WnVy9xVuaxeG1krvTdMSrb3nrdHLjKWXr3RvJWszXv37jUfh0f3p+rvbJ+vwsy4Y1RvtG10+9KrMzt3o8fPb37zm4cf//jHx8s9CezvvvuuwN6Q7ZcO7Llx744/c7BzZ5t54lnF6E5Q23t1YqadzO2ozkjmv/eAFjPtjOSOeuPGjW7gOcd+Mo5RwIiZ+eu1kX303tkpM+s3+xn196qM5iXX9+Zsq1cv27IWZtoazc1VzF8eeEfr9xwyjtn125u/2XayLnsvPGfX7yoyH701Vdt7dco52sn23v0pc5e5Pccc9trIWhk9H0f6OXu/3JM+VBnp1ZntR9ZmAnsrWGUfvfWb7eea/3PIeGfmvuq16o7aGd2+jOpk3qr05FiOAvuPfvSjwze+8Y0vr/ltCc8J7AnuPQJ7O7Df30twAADgSgjsAACwMIEdAAAWJrADAMDCBHYAAFhY9ywxo7MqzH67eOYsBTNG+xr1Y9bMt69HZycpvW/0Z1uvnZn2o+alN/7ReEqvjfQ132DujWlWbz/ZNrNWMp7e/EVv3FmT+ab5aF/Znm+a9+qN5r+Mxj3TxshoXmpOWtu3enWyjzw2jNZDjWk09p6ZvkZvDtPXrN/W49nWqD89uW3WysyY0pfe2Gb6kXXcW5+z63dG6vXqzrYz0ltTma/RmovU681ttdOrE6N6GXNvbs8lfRitl8j2Ki2j4zQ6zjOqv6NjlfWbM4L01u9VnCWm2rmsmfkvo/XXm7vcbnT7mOnLzLhzLHtnicnZYf7oj/6oeZaYOq2js8Tsy/ZLndYxO3rhhReOl3tm7yipMwpGowUVuX0mv7W/mTvczOKNmTvSqJ1s79XLttED2kxfM+4qe0b92Oodz9y+yp6a/9btt3p1Zm4f6UfvCWw0v9lPbz2VUSCKtDFqJ9t785PrZ/oTveNQ23rbZ9bDqJ20kQez1gN4yXh6YxqNt/rbOo4lc5tj1Wqv2mmNp+T2s+t4T91udPv0pbc+LzLu3rqZXb8jqdOb37R/mXkro+OU66v0zLQzevyNUTsZb29uI7dt3X5rVGf2OPXqjbbHzH5GY8rcJnyMHh8yd6N11Vvfub53+61enZn7SemNO9t662VrtD7PsX4jdVvtZE5m5i776r2B++qrrx7+4A/+4Hi5J0H9nXfeEdgbsv1SgT0H5+WXXz5e7slgZ+4ouQOcK7CnnexzT/qROq3+1KId7WtUL9fP3CFH9bIti6F3hxvto2TMvXHnTjZqazR/Mdp2kQfOmXo9mbfeuLIti781v7P9nVm/M+MZ7W9mP5HxVtkzs31mPYzaGc3v1mh+etvqOI/2k3kbPeGOxhx1nEbH4bJG48r1o8eHGPU318+s35HcfrSf2XnrHYdsy5hbdXJ9lZ5s763z0fyX3L7Xn8xdlT25XZWeUZ06zqNjle05Bq16ub7KZYzGlbmd+d2DUX9H6yq3m5mXSJ1WvbTRyxdbveOUbb31UmruWvVy/bnWb6uN0puXksei3vG8devW4fbt28fLPQnqb7/9tsDekO3Oww4AANeYwA4AAAsT2AEAYGECOwAALExgBwCAhQ0De76Z3Sv5lu3e9dtS38Stbyu3Sr7t3Csz9bbttcqMXr1qZ2//Fy1R39C+bBmpfo/KXj9T9upuy6zZ/o6M2qntvbK3XvdK6rbUtr05OS2Zx3zLfq/MznOVnt72un3t735L2tjOZavU/PXKSPV5puz1tcpe/dMSoz6d9n+vjMzWGZXTtbpXRjLuvfm6aJltZzvfp2XG3u1OS+1r776WUv0Y2ZvzvdJz2rcHXUZG/Z0x08Zsnb01e1pSr1Vibx62perUutgro+0p1dY5VN/2Su1vb+2mzPYl8zOav5RZp/3cFh6sS5+HffY0U706OdAziy+Lrnd6slzfO/1TzCyqWnytuunrzOnWcvu6Y7XMzN1Ir6+R/Y/6UXr7y7a64+/JttFp9SK3nxnXSI2rd5xyiqTWuLNW0t/Rabxq3D2jYzAjfbl3795ZTivW60/NS+auZ9TOOY36O3N/yzHqrc/ZdVfronfMZ9oZzVu298aV63vru6SfvcfFWr+tPqf97Ouy8zszb5Hbj+YvfWmNu/o7mpfMXZ67Wuu8+jHqS+ntr7dt9jhme69O+pk5HvU38987Drn96BjN6h2Hmv/RafFG62Z23KP5jV5/04ecSjD76hnNX9qfWZ/ZnjlK3T25PnM3Wr8jM/M26mukL73THOZ0jt///ved1vHElZ7WsRbnZcrMgsniPEepxdcq57LX9mnZ69+2pE5kfs5Rek779qBK7PVtW8retirnstf2tuyt19OSer22Ym8u9sreOjgte7c7LZeR2+/t96Kl+rE3Jxcp57Kdn14ZmakTe2OpMtqeMrJ3m17ZW7sp2daT8dbx7JXT439aKnzs3XavtPS2ldO29kr1qVdSb8ZofkdzHKf9e5BlRvX7fsusvdtuS9XZm9sqp7fZlpgZc+ps1+tpyXrI5XYee+Wy9trclm2fWiX25mRbZuqkzNjr52nhwRkGdgAA4OER2AEAYGECOwAALExgBwCAhQnsAACwMIEdAAAWJrADAMDCuoH9IufnXMneuUEvUqqNq7A9D+pemZX+7p2nNSXb9treKyM1R60yWyf2tlW5CrWf032fFtr21tBeGdmb923Za3OvzLQ1W0b2blPlKm3Hfh3U/JzOWZXa9qBt181ly+kYtqXs3e6iZa/9h1VYw946OS0je8d3r8Re+9vCgzP1DvveQaly1fYW0YMoo31dxN68bcveD0Vsy95ttiUSzLc/CLIt6W/q5RfcemW0r9F+ti8QemWmzkwpe9tmykVuO6p7Tnvtn5bL2mvztMzYWycXLXGu9Run4zgttU5bZe822zKzj9kycjpXe+Uq7Y2hStnbti3nqHMu28fZXtmb9yplr59VUm+v3YuUtJG29u4j2zK7jq+iXMTe7WdK2dt2Wmbs3e6iZdbebauUvW0psV2H91si62VvLW1L6uzdflt4sL52H4mphXwZ2zvEg7S34E/LTL2oPrdK7N12r7TstXs/pdq6rG179+Mitz9Hf0cuO55zm+3P3hralhm1r70SaWcvxGzLaF97bbdKz2j7o2pm7mJUb7adc9mu1fst1ee9cq59xF7791PO4VztXNY5x7SSmXHtrZOLlqh99UrZa6MKD5bPsAMAwMIEdgAAWJjADgAACxPYAQBgYQI7AAAs7LE7d+40v9r79NNPH55//vnj5Z7ZszOU7TeNt3J9nTaoJ/vJ6dta+8v1o/60+nAR1d9RW6N66eunn356vGzJbUf7yT6eeuqp4+WezEeVnlF/o04XtifH5uOPPz5e9qQfveM4K/148sknm+sm12d7a17Sh9H8x2x/R8dpJH25d+/ecP5G0o/eccqc5D6dy57cvsqecx3HOk6t41jtz8x/b9wx09cch946ThtVWmb2Mxp3jMYTtY5766bXn7Q/6keMxpT7Ufowuj/NGI15tD1Gj4vp6yeffNKdt63WPjNvvf3MSvu94z3aXjL/Wb+t4zBznGbWb/WntW5yfR5nRvMy6k/6ku29Ps32t8qeut/ncqQ3dzUvrf2U1Mm6ac3faP2mD+lrry+lNz/Zf+7/o+NU9Vr9vXXr1uH3f//3j5d77t69e3j77bcPH3744ZfX7Msx+OCDD46Xe3KfTVu57MncfPTRR93j2ZuXjPWZZ545XvbkGD377LPHyz2Vo1vbS7Y/99xzzXpvvvnmOLC/+OKLhxs3bnx5zW/LQkmZubNEawHn+pknjBlpo7efKj0Zz0XG1dPb3+gJI7frjafkjpZj1Zu/mbHk9mmr1U71p7V9NJ6SuU293gPNbH+zuFv9mXnAS197/YhRvVyfMupztvfqzD5h9NZUZD5696fMRx6IWvNScvveerjIuHv1aj+tMdX1vTFHtqetVr3qx0jmv/fCKW2kTq+t0ZxE+jp63BuNOdKPXkAb9aX6MVoP0ZvfWbl973inv1X25PqMdTSu0X5yfGdfIKeNVjvZxyiYtm67lblNG631UOPprZfIeLI+e+u39zg9O7+jdTMzLzHaX67v3d+yPWNpbZ+VNhLwWvMya/Y4jeZntH00byV1evXS35n8Vce7Ve/ll18+/N7v/d7xck8F9lz2COz3GdgT1HuBve4oowUTvQes0UIoaWPUTu+OkttmW6+NqHH1HiCqjPT2lX1kUbYeIHLbjGfU39TJQW7dsWOmr5mbtNObv15/Ml8zgT3bR/Vm5nc07tH2tJ8+jPZT42qth1w/CnBRY2rtL32ZCRCZ/yp7Rscx97Xcp0cPRLl97345O3+jeqN1NRpvyfb0tVUv+88xGvW3jkPrgb7WQ+84ZR+j/YzmN0ZjjvRjpj8tdT/p9SOy/RzHqdpp7W90nLItYx3d30Z9GR3nMmonY8n9KZd7RrcvmY/eehjNW6n12ZqfjLv3vJN5z7bR+k1feutmNC9b2VfvePceX0fj3eqNKfuYWQ/RO56zx6keh1vzk+tHL3h681YyL737S/V3tEZTr7c+E9S/853vdAP7L3/5S4G9IdtHgb2/ogAAgIdKYAcAgIUJ7AAAsDCBHQAAFiawAwDAwgR2AABYmMAOAAAL656HPeegfOWVV47nmNxT5/ccnQc0eueiHZ3fs/TaiGzrnf+0bt9rIzKe0bhmxlxa+8s+Rudhz1hG/U2dnLuzd77WGdnP6Dj0+pP10Dtfbsn22fPm9qQv6W9r3LW9NZ4cw/RhdCxTp3ce29w+4x61M9rfaD2U0boYjTvzNTq/b+T2qdPaz2g8ZVSvxtPqb2Rbqx9bqTPq70jmP+uzdRzSxmj9zsxLzW9v3DOqP7110+tL9j+zHs51nEbtpK9V9uT6jLU3ptLrS9q4yO8etGTeeo+/dfteG5HtvfVQ20ftZD1kTK31mW15vGqNO/PaW9sl/Rw9/mZeWuPZ6h3LGk+rTrbPPv726qSNPP7msqfmv3UcRsexpE7vfjczf6MxRbb35m92XaUfveOd3+z5nd/5nePlnpw7/a233nIe9oZsv9QPJ73wwguH119//Xi5Z/TAULIQquyphdlaCFu9RTXaT++2p0Z3gou01aqbuRsFtMzNaF+pk7lr3bFz+5n+Vr2ZunsyZ1kLo7mbqTfTj2zPmFvjjl47o36W1OvVnRlPpE6VPbk+Dy6t7aXG3RpXrYfe9l6g32q1UUZzU3r1RuOJ0fYY9WWmn5F6OQat+tnWewLM9b3tZWbcaWPUzmjdjNrIWsmTyuiJKXr9zfVVRmbqjMY92j6SYzR6oROjMWVORo+/M+u39tOrN2ojMi+99TuzfUb6MnocGY1nVvo0Gs9I1Wu1k215Pp5pqzeuXN97/C2Zt9785fa9ddObk62q16o72k9JnV5OSyjt5cWE8ITOXPYI7PcZ2PNK6dvf/nbzFVMWdh7sRgs8C6HKniyAdLK1ELZ6i6q3j3Oq/Vx2X5m7XmCf3U/uSL0HiNl2ZoweIHoPDFu9erP9nak36stoHzNqLKN9ZXvv/nKR+9PoeF9m+9bMmGb06qUfVfaMtpfsI3M32teMXhvZluPUqlPbL/u4mHaq9IzWzaidPCHN/CLlqL+9bec2u5/e3GW+zhHYs+1c97dRndFaKL3jHaPtM0bPOzG7j5m56ZkZT7b3Hh9qPbTuRyV97fU322aO98z8jdqYGXf06mQfVXrS1+S09HtPQuk3vvGNY+jckxD+xhtvCOwN2e6XTgEA4BoT2AEAYGECOwAALExgBwCAhQnsAACwsO5ZYl566aXjWWJyuSffsO2dLaGMvoVcpwtqffv41OjbzKPtlzUaz1ZvbkZnKZjdR+pk7lp1q52ZtkZ6bYzWQUm92TUzcq5xXdbozAKROr37S7anzMzj6HhfZvuD0BtT+tHrS20f9Tf76M1f3X6mnZ7Rcap+pPSMxpR2Rn2Jmf702snZH3rng94a9Xk0t+dykf20xp45650O81Rvn+e6v11kXPdrtB5627bS19FZTi7S1mXM7Cd1eveT2fVQfe31eeZ4Z/tlzxIzYzQ32cfMftLXnDGl9TiRM5zkLDE5I8qe999/32kdO7L9Uqd1fPnllw/f+c53jpctGfDMghg9oGURpE7PaD+j7edS45nR61MeGEYveGbHNLrDjbZH1WnVzfVVekbbM6arOFbVj1Z/LtKH3phmx5PjXaXlHPOSvo6OwWh7VJ1e3dkgctlxZR+j/cwch9l2erJ9dAxn+hIz+xqZqdMbc47hzOPvrJn+XNY51t3M/bFcZkwza25G2pgd9+hYnusxaNSXc4w7eu3M9jf1Mu5W/dH2i5oZe+r06l12+6yZNrKmEl5bayuh9LXXXmsG9oRwgb3tLIH9u9/9bjewz8hi6D3QjLZvZYJ7kzzaPqvXl2yrMtLrT64fPUD0br81qjPT19GYsu1c7wiMxjUz5pHReGJ2PzPtjNrK9pn/kZoxamP2OPSM5i/bRuuhzMxNz+x4eu2MxrM1099endH2MtPOjN64atytOrl+9vF35CLjvl8X6e9obmcCWrZXaRm1cY65TRsz97fR/JxjPLPOMe4YtTPT39S5qufbWb1xZdvM9l6dMlNnJGuqF9jrHfZc7kkIzy+dCuz7ZgL7ed5SAQAAHgiBHQAAFiawAwDAwgR2AABYmMAOAAALe+L111//8y///op8Q/bmzZvHy8uY+TbzzLeYR9/gHm0/l+0+ap+90tLbdm4X+ZZ4q+7oGMbMmK5qXqqd2t9eOYfZts65z5GLHO9zqLG1ysiozjnbyOWo9MxsH9U5t97xnrnfzq6XGluvzJitN3K679PSM9p+Tue4P84cx9Krl3HnbCkt55yXq5rjmf2kTpWWq+pvOce6uCrpa+/sQ3WWk5wVZc/s2V1yJrXUaf0+TdZutvfWcGR7zhAzqtcyOitOyZmbMvZc7sn1M79zMWonZ84Zntbxd3/3d7undZxZcKlTpWe0/Rx3tpk6s2Oa0Rv3aDwxUydm6oxUP3tj691hZ43GdI6xbF22v5E2Wu3UeGb6PVtvFaO5683L1jnmb7Sf2Xmd6e/IufoyGve5xtTbnm1VekZ9jdn+Rq/uZcazNVuvp8bd6+9Fxt3T62+2VRnp1Utfryqwx0x/R0bjmenzTL1zj/2yRnM3M7c1d5edv1GAzakLv/nNbzbPw56w7rSObdk+Oq3j8B32hPXeO+znWDBRi6ZXRvVmzNSbrTMq11HvGM0c6715OC2jehexd/ttmakzKiMXrft1sx3/XhmZrbutt1fOVWdUysz94apcRV/25uK0zLpI3T2n+90rM1Y6hjF6/L1If/fmZKZcxN7tt2WmzqiM7N1mr1RdftvpPLVK1Prb255g+sILL3iH/USuP9c77D7DDgAACxPYAQBgYQI7AAAsTGAHAICFCewAALAwgR0AABYmsAMAwMKuJLDvnbPzMuW62Ov7/ZRV7PXtMuW62Ov7XmHf3lztletir++XKQ/bXp965brY6/tlysO216fLlOtir+97hX17c7VXLutc7dB26R9Ouojt4jgtsy5SdxWnY92WkZk6V+10DNsy6yJ1V3E61iq1jb7TeatS266b03Fsy6yL1H3QTsdwWqrO18npGPdK1btOTsewLbX9ujkdR5XaRt/pvFWpbSP50aTeL5374aSv0Q8nnS6S+y3Xzd4YLlJWs9fH+ynXzd4YtoW+vTnblutmbwz3U1ax17e9ct3sjeF+yir2+nY/5brZG8O20Lc3Z9vC9eAz7AAAsDCBHQAAFiawAwDAwgR2AABYmMAOAAALE9gBABjKaR33Sm0bOb3dXpmtt0IZ9bXsbbtIObZx586d5jl9cg727373u8dLAAAePXVe8tZ5wp9//vnD66+/fjwX+56cR/yXv/zl8VzsPR9//PGxbi73zJ7PPedgv3fv3vGypXdKy4z1xo0bx8uebH/uueeO51Dfk3OwZ25a20u299p54403vMMOAEBfvdO7Z/tO8J7etq1qZ5Uysneb+y0jAjsAACxMYAcAgIUJ7AAAsDCBHQAAFiawAwDAwgR2AABYmMAOAAAL6/5w0s2bNw/f+973Dq+88sqX19yf3snpH4aZ812ew6M27tXGW4z7wTDutTxq437Q4y2P2rit77WsMu70Iz8SlB9Q2vPss88eXn311eOP/+z56KOPDu++++7hww8//PKaffmho9Rp/eDRaHv57LPPjj++lMs9GXdv7PmBqPyIUeuHokrmJGNv/cDS6IeVSuo988wzzXbyw0ndwJ7Jv3379vHyMmpiZhfGg5IFV+UqPGrjXmW8xbiN+0Ew7kfj8aw8auNeZbzFuNcY96g/CaT5ldP8suee2V8o/fzzz49hPJd7cn3aaG0vo3ZG4844E9ZbL1BKtmfsrXppI3PSCuIlt0+91guEN998sx/YX3vttcMPf/jD4+VljCYmetsuore4Rwvu3B61cc+Mtxj35Txq454Zy0rjvux4i3F/1VWNtzxq454ZbzHuy7lu4+4ZvUOcd7rv3bvXfMe7jPqT69PGKLBXvV47aaO1fXb+E7QTslv1RoG+jOolsPdbAAAAHiqBHQAAFiawAwDAwgR2AABYmMAOAAALG57WMWeJaZ3WMd+urdKTb+L2vq0bozZK71u7uT7fsB1tH31bd9SXGvOo3jnG3RtvWWXcM+MtozpXMe6ZfkaNuVXfuB/suEfjLSuNe3ZfK4y7xjqqt8q4R+Mto77UmEf1zjHu3njLKuP2eGbc9yNnSrlx40bztIRpf2Y/M9tn2qlx5XJPbp/TPvbamT2OGXPrOOX63ukaS+rlDDutdt56661+YL9169bhBz/4wfFyTyYiA86k9GR7zpvZq5dJGx2ADKTKnkxIb2Iysb0JKdWXVn+uatyj8ZZVxj0z3rLCuEfjLcb9cMc9Gm9Zadwz+1ll3Ff1eFYuO+6rejwrlx33aLxllXHPjLesMO7ReItxn2fcLeln+tsaz2h7ybh785c+ZEyjcde4UndPtvd+WGlWHadc7sm2vJDJZU/NT2vcb7/99jiwf//732/+0unsgLM959/MommZWXgZSA52a0AZbO88oKMJKdWXVn+uatyj8ZZVxj0z3rLCuEfjLcb9cMc9Gm9Zadwz+1ll3KPxllXGPRpvWWXco/GWVcY9M96ywrhH4y3G/XDHPRpvWWncM/u5qnG/8847PsMOAAArE9gBAGBhAjsAACxMYAcAgIUJ7AAAsDCBHQAAFiawAwDAwrrnYb958+bhe9/7Xvc87DMn3M+J63snsI+cdL514vkyOk9lzoWZHyLone8ytx3tJ+fdzJha/c31M+fvvey4R+Mtq4x7ZrxlhXGPxluM++GOe2a8ZZVx98ZbVhn3aLxlpXH3xltWGfdovGWVcc+Mt6ww7uv2eFYetXFf1eNZOce4e+Mt5xp39tMbd87D3g3sL7300uE73/nO8XJPBjozcZFJbsmAnnrqqeaASw08l3tqwK120s+UXl8iYzrXAr/MuEfjLSuNe7SPWGXco/EW43644x6Nt6wy7tF4yyrjnhlvWWHco/GWVcY9Gm9ZadyjfcQq4x6Ntxj3wx33VT2elcuOezTecq5xpy+9cQ8D+4svvnj49re/fbzck4Yzab0JiepwLvfklUd+urU14JLto3qtfcTMAYz88lXvF7By+2x70OOeGW9ZYdyj8ZZVxj0abzHuhz/u0T5ilXFf1eNZuey4R+Mtq4x7NN6yyrhnxltWGPdovMXjmXFvzYx7tI9YZdxX9XhW0s9envZLpwAAsDiBHQAAFiawAwDAwgR2AABYmMAOAAALu9RpHUenoSmjb+Nm28xpkLJ95jQ7rf3kG7i9bw2XOm1Qq159m/dBj3t2vOVhj3s03rLKuEfjLca9xrhH+1ll3KPxllXGPRpvWWXco/GWVcY9O97ysMc9Gm9ZZdyj8RbjXmPco/2sMu7ReMu5xp3+Ztyt/g5P61g/nJTLllbjW6OJyfU5hc7MgKvcj5qQ0YHOmFKnNbZcfxXjrrG2bj/rqsadfvbGW7J9hXGPxluMe1/6adxfleuv4vGsXHbco/GW9HOFcY/GW1YZd421dftZVzXu9LM33pLtHs++qsY8amfEuB/uuHP9VTyelRp3q8/DwJ5fOP3+97/f/KXTWRnIaGLyKuWyA47eAcqE5BVXayFsjRbDjEdt3KPxlpXGfRXHuRj3/Y97pr+rjPsc4y3G/VUz4y3GfXGj8ZaVxn0Vx7kY9/2Pe6a/q4z7HOMt5xj3u+++6zPsAACwMoEdAAAWJrADAMDCBHYAAFiYwA4AAAvrniXm5ZdfPp6HPZeXUd/GbRl9W/ciet/GzbZ8C3fmG7vn/BZyy9dt3KPxlpXGfZnxFuPuO8e4Z/q7yrjPMd5i3F81M95i3Bc3Gm9ZadyXGW8x7r5zjHumv6uM+xzjLecY969//et+YH/uuecOr7322vHyskaDPsekjGQiznGgL+JRG/fseIz7wTHuB280nqsYb3nUxn2V4y2P2rhnx2PcD45xP3ij8VzFeMto3Hfv3u0H9meeeeb47vqNGze+vAYAALgq9+7d8xl2AABYmcAOAAALE9gBAGBhAjsAACxMYAcAgIUJ7AAAsDCBHQAAFtYN7Fd5AnsAAOC3JYt3fzgpP5j00ksvHX9ACQAAuFofffTRXGD3S6cAAHD1/NIpAAAsTmAHAICFCewAALAwgR0AABYmsAMAwMIEdgAAWJjADgAACxPYAQBgYQI7AAAsTGAHAICFCewAALAwgR0AABYmsAMAwMIEdgAAWJjADgAACxPYAQBgYQI7AAAsTGAHAICFCewAALAwgR0AABYmsAMAwMIEdgAAWJjADgAACxPYAQBgYQI7AAAsTGAHAICFCewAALAwgR0AABYmsAMAwMIEdgAAWJjADgAACxPYAQBgYQI7AAAsTGAHAICFCewAALAwgR0AABYmsAMAwMIEdgAAWJjADgAACxPYAQBgYQI7AAAsTGAHAICFCewAALAwgR0AABYmsAMAwMIEdgAAWJjADgAACxPYAQBgYQI7AAAsTGAHAICFCewAALAwgR0AABYmsAMAwMIEdgAAWJjADgAACxPYAQBgYQI7AAAsTGAHAICFCewAALAwgR0AABYmsAMAwMIEdgAAWJjADgAACxPYAQBgYQI7AAAsTGAHAICFCewAALAwgR0AABYmsAMAwMIEdgAAWJjADgAACxPYAQBgYQI7AAAsTGAHAICFCewAALAwgR0AABYmsAMAwMIEdgAAWJjADgAACxPYAQBgYQI7AAAsTGAHAICFCewAALAwgR0AABYmsAMAwMIEdgAAWJjADgAACxPYAQBgYQI7AAAsTGAHAICFCewAALAwgR0AABYmsAMAwMIEdgAAWJjADgAACxPYAQBgYQI7AAAsTGAHAICFCewAALAwgR0AABYmsAMAwMIEdgAAWJjADgAACxPYAQBgYQI7AAAsTGAHAICFCewAALAwgR0AAJZ1OPx/gtZETkXA89sAAAAASUVORK5CYII=;" parent="1" vertex="1">
          <mxGeometry x="-783" y="61.99999999999999" width="206.22" height="223.87" as="geometry" />
        </mxCell>
        <mxCell id="Uh9wZkquu2cPhVOEW5Aj-18" value="" style="shape=flexArrow;endArrow=classic;html=1;rounded=0;fontSize=12;startSize=8;endSize=8;curved=1;exitX=1;exitY=0.5;exitDx=0;exitDy=0;entryX=0;entryY=0.5;entryDx=0;entryDy=0;" parent="1" source="Uh9wZkquu2cPhVOEW5Aj-17" target="Uh9wZkquu2cPhVOEW5Aj-22" edge="1">
          <mxGeometry width="50" height="50" relative="1" as="geometry">
            <mxPoint x="-562" y="302" as="sourcePoint" />
            <mxPoint x="-425" y="177" as="targetPoint" />
          </mxGeometry>
        </mxCell>
        <mxCell id="Uh9wZkquu2cPhVOEW5Aj-40" style="edgeStyle=none;curved=1;rounded=0;orthogonalLoop=1;jettySize=auto;html=1;exitX=0.5;exitY=1;exitDx=0;exitDy=0;fontSize=12;startSize=8;endSize=8;entryX=1;entryY=1;entryDx=0;entryDy=0;" parent="1" source="Uh9wZkquu2cPhVOEW5Aj-34" target="Uh9wZkquu2cPhVOEW5Aj-1" edge="1">
          <mxGeometry relative="1" as="geometry">
            <mxPoint x="262.5" y="875.75" as="targetPoint" />
            <Array as="points">
              <mxPoint x="-112" y="1217" />
            </Array>
          </mxGeometry>
        </mxCell>
        <mxCell id="Uh9wZkquu2cPhVOEW5Aj-41" value="INPUT" style="text;html=1;align=center;verticalAlign=middle;whiteSpace=wrap;rounded=0;fontSize=16;" parent="1" vertex="1">
          <mxGeometry x="-534" y="136" width="60" height="30" as="geometry" />
        </mxCell>
        <mxCell id="Uh9wZkquu2cPhVOEW5Aj-42" value="" style="group" parent="1" vertex="1" connectable="0">
          <mxGeometry x="-421" y="5" width="1143.32" height="323" as="geometry" />
        </mxCell>
        <mxCell id="Uh9wZkquu2cPhVOEW5Aj-22" value="" style="rounded=1;whiteSpace=wrap;html=1;fillColor=#ffcd28;gradientColor=#ffa500;strokeColor=#d79b00;" parent="Uh9wZkquu2cPhVOEW5Aj-42" vertex="1">
          <mxGeometry y="136" width="120" height="60" as="geometry" />
        </mxCell>
        <mxCell id="Uh9wZkquu2cPhVOEW5Aj-23" value="&lt;font style=&quot;font-size: 29px;&quot;&gt;CNN model&lt;/font&gt;" style="text;html=1;align=center;verticalAlign=middle;whiteSpace=wrap;rounded=0;fontSize=16;" parent="Uh9wZkquu2cPhVOEW5Aj-42" vertex="1">
          <mxGeometry x="30" y="86" width="60" height="30" as="geometry" />
        </mxCell>
        <mxCell id="Uh9wZkquu2cPhVOEW5Aj-24" style="edgeStyle=none;curved=1;rounded=0;orthogonalLoop=1;jettySize=auto;html=1;exitX=0.5;exitY=0;exitDx=0;exitDy=0;fontSize=12;startSize=8;endSize=8;" parent="Uh9wZkquu2cPhVOEW5Aj-42" source="Uh9wZkquu2cPhVOEW5Aj-23" target="Uh9wZkquu2cPhVOEW5Aj-23" edge="1">
          <mxGeometry relative="1" as="geometry" />
        </mxCell>
        <mxCell id="Uh9wZkquu2cPhVOEW5Aj-25" value="" style="shape=flexArrow;endArrow=classic;html=1;rounded=0;fontSize=12;startSize=8;endSize=8;curved=1;" parent="Uh9wZkquu2cPhVOEW5Aj-42" edge="1">
          <mxGeometry width="50" height="50" relative="1" as="geometry">
            <mxPoint x="135" y="162" as="sourcePoint" />
            <mxPoint x="277" y="162" as="targetPoint" />
          </mxGeometry>
        </mxCell>
        <mxCell id="Uh9wZkquu2cPhVOEW5Aj-26" value="OUTPUT" style="text;html=1;align=center;verticalAlign=middle;whiteSpace=wrap;rounded=0;fontSize=16;" parent="Uh9wZkquu2cPhVOEW5Aj-42" vertex="1">
          <mxGeometry x="175" y="126" width="60" height="30" as="geometry" />
        </mxCell>
        <mxCell id="Uh9wZkquu2cPhVOEW5Aj-27" value="&lt;font style=&quot;font-size: 19px;&quot;&gt;STATE&lt;/font&gt;&lt;div style=&quot;font-size: 19px;&quot;&gt;&lt;font style=&quot;font-size: 19px;&quot;&gt;WITH details for bird posisioning,pipes,velocity.&lt;/font&gt;&lt;/div&gt;" style="rounded=1;whiteSpace=wrap;html=1;" parent="Uh9wZkquu2cPhVOEW5Aj-42" vertex="1">
          <mxGeometry x="288" y="78" width="221" height="126" as="geometry" />
        </mxCell>
        <mxCell id="Uh9wZkquu2cPhVOEW5Aj-28" value="" style="shape=flexArrow;endArrow=classic;html=1;rounded=0;fontSize=12;startSize=8;endSize=8;curved=1;exitX=1;exitY=0.5;exitDx=0;exitDy=0;" parent="Uh9wZkquu2cPhVOEW5Aj-42" source="Uh9wZkquu2cPhVOEW5Aj-27" edge="1">
          <mxGeometry width="50" height="50" relative="1" as="geometry">
            <mxPoint x="586" y="195" as="sourcePoint" />
            <mxPoint x="678" y="137" as="targetPoint" />
          </mxGeometry>
        </mxCell>
        <mxCell id="Uh9wZkquu2cPhVOEW5Aj-29" value="INPUT" style="text;html=1;align=center;verticalAlign=middle;whiteSpace=wrap;rounded=0;fontSize=16;" parent="Uh9wZkquu2cPhVOEW5Aj-42" vertex="1">
          <mxGeometry x="562" y="101" width="60" height="30" as="geometry" />
        </mxCell>
        <mxCell id="Uh9wZkquu2cPhVOEW5Aj-30" value="" style="rounded=0;whiteSpace=wrap;html=1;fillColor=#d5e8d4;gradientColor=#97d077;strokeColor=#82b366;" parent="Uh9wZkquu2cPhVOEW5Aj-42" vertex="1">
          <mxGeometry x="701" y="93" width="128" height="111" as="geometry" />
        </mxCell>
        <mxCell id="Uh9wZkquu2cPhVOEW5Aj-31" value="&lt;font style=&quot;font-size: 25px;&quot;&gt;ACTOR-CRITIC model&lt;/font&gt;" style="text;html=1;align=center;verticalAlign=middle;whiteSpace=wrap;rounded=0;fontSize=16;" parent="Uh9wZkquu2cPhVOEW5Aj-42" vertex="1">
          <mxGeometry x="663" width="233" height="111" as="geometry" />
        </mxCell>
        <mxCell id="Uh9wZkquu2cPhVOEW5Aj-32" value="" style="shape=flexArrow;endArrow=classic;html=1;rounded=0;fontSize=12;startSize=8;endSize=8;curved=1;" parent="Uh9wZkquu2cPhVOEW5Aj-42" edge="1">
          <mxGeometry width="50" height="50" relative="1" as="geometry">
            <mxPoint x="857" y="144" as="sourcePoint" />
            <mxPoint x="941" y="144" as="targetPoint" />
          </mxGeometry>
        </mxCell>
        <mxCell id="Uh9wZkquu2cPhVOEW5Aj-33" value="ACTION" style="text;html=1;align=center;verticalAlign=middle;whiteSpace=wrap;rounded=0;fontSize=16;" parent="Uh9wZkquu2cPhVOEW5Aj-42" vertex="1">
          <mxGeometry x="857" y="107" width="60" height="30" as="geometry" />
        </mxCell>
        <mxCell id="Uh9wZkquu2cPhVOEW5Aj-34" value="" style="shape=image;verticalLabelPosition=bottom;labelBackgroundColor=default;verticalAlign=top;aspect=fixed;imageAspect=0;image=data:image/png,iVBORw0KGgoAAAANSUhEUgAAAjwAAAQ4CAYAAAANTga2AAAAAXNSR0IArs4c6QAAAARnQU1BAACxjwv8YQUAAAAJcEhZcwAAHYcAAB2HAY/l8WUAAG5QSURBVHhe7f0JgCRpWSD8Z3bP9H3ODCAMCIL8uWEGBTmUY0UFF8EDFBRQ9tvDA8EZRfFAZfHAdVHhA9f9y66iKKKAsqCOigosMDicglzLigf3MdP3OdNdX74ZkV3xPpGVUdmVWcdbv1/1UxUZGRkZERkZ+XS8T77Rv+Od776wdeuW3m1uc+vejh3be8nd73XP3tP+4/f07vTldx7eLkO//svmUPjrvVD/XRXL25ab5x22jtd0lfaL/ly2QVz4jbVHbailncN+Uq3/auwXXfq9f/rHf+z99ste1vvwBz84HHP69Jne5z73+V7/y+9+n4Xbfcltelsv2Tqc7xOf+qTetzz5CcOJyrKx3jysVOGv9yp9sFWWty03zztsna/p3PeN+aQ7lebCb6w9akMt7Vz2kXnuFxfnNa/6w96rXvGK4Ytz7pZzvf7DHvGohZTs3PXu/7/eU//j03tffre71pOWZmO9eVipTfB6r+igtXbbZ+1fmU16LJjph9z6+3BbDzbMNplbUlxtgfW0HT720Y/2Xv6y/9H7Px/9SK//yEd9w0JKdp73wl+o7y6Vt+fmskle76kPXOtju8x3KbzXlzSzD7pqG9vSy7PuttPcEp6R9ZcQ/9Szf7S3Ja14OrNTvvQKzyJY/zbRYbg/WNepon7cGpvfu2mdrGDxqldw9DrGILf5tkm1b6wn3/3v/5/elic+7UkFN2OtVDp4xgDYoGZ+CGumOaNgzQxfgsGL3BVz/0yb13wv3l3vdrde/zNnjtlDW9bfi7V52PbLt4JttQHf9ctbW/vPzKxoH1HjM86qbJNhQjONSS/0bJZ4vewLW+q/sMbSW2K9vC02gQ24qbs/f+0/M7XCzel/0m1pm4yL9We2x+P1so4bIOEZbfgY8zLPecMszOg9MJpNjHWsOnCOW+gUrB/VR/noAz0GubXdJvG9M5/30np43dd5wjNpw1/Mi5Ie0xWsPtt9aXH/3Ozbqp99cC4VzMiSu1vcJ5cKVt2FzT94J8RY8t2xOV6zTdKkVf4LSalGB6mu2CzGrXs7RkOs1OC4Oe7bfivktWmbzT47em2WmNPKX7oVmc06Xrx1nPCs8SsDG8paHkbWo/HbY3TAnSY2rwnH4Bkcnsdt6xSb3fTbIL0Yo9gY1uq1nvu3tB5yz7v3Hnr/hd7tb32+98nPb+m97T393ts/9NH63pVazqJvnJ1gc1u912nWO/z62cNmtCRrcSSam8VvC81itdb/0WQVl3DO+8n639bztbLvuU14cab+Ftf8rPaSzDXhefZT7tb7nm/t9R70FTvrMZXv/clTvV9+xf+pb+Uecs+7DROi0d+lLXexN/vbpkQre03nscOvj73sIpZizh9aa2ttXpW13RdW+dnnuP+sj/fUWlrpV/uXenHqua6D9/5qv8ZzS3jSmZ0P/PmO3jvefar3D1/8sd6DHnyP3juu/3Dv3lf80jABevUbTvSe99Ktg6TmI8PpU3L0qAef7z3hsbuHt5Ofe9GJ3rN+5WP1reXyNinb4uu7nj6r136vu8glWE8bcabW9hXZVM8+x31o7d9Xa63aAhe3Hca9MGFO6/T9P6/XfW4Jzwdfe7fh3z13/e3ene54v+HwyD+88eregx72sF7vxDuHt1NSNEqCDl/6472tt/xD7x5f8qfVNAPHrvjN4d9u3h7lq17j9fo5Pf0euMb77JpvyDLfs+tvrVZ5iWa8X5W5l0xjTh05rtcD6cA81ncuRcsvuvauwwQmndmJyU7y4c/+23qoMkp2Hv3Uv+896UlP6j3xKT/Xu/ej3tt7x1veMrw/zQ9G1vF7dLhsXbHIYbxU7dd6ra3y0sx4115f23ItrL9rU83bPNZ3Lmd4Rmd3UtIyztve/tbeN9zjR+tbvQvJTjSaLp0Bute3LqfQ2QfIxjP9a1bCG79a6w22v85lw2/O9+zarPUaPOsM9pnz58/3PvWJT/SOHD40HL4YW7Zs6R04cLB35R3uMBy+eGkbrsURqHrtZv4KLrEqD7rqfr1b3/pWvVe8+jW9ffv212Onc/Tokd5Tn/iE3uc//4Xe9e99Xz12OrNe35mf4Um1OLFIucveu7y0Hso99CFffaG5K9UEUZo1OACvEyUkbWwU6X22cd9rKdk5dNONF53sJOmxNw3mkea1MrN+545em66opGcfFxctn/0FKdl59zvf2fvOb/2WYeIyrfSY9Nh33XDDcF7rxUwTnpSUpG9lJZ/8zMXvnE3D+ex+wPCr7eN2gEXjxsH6lU5SxwPXuKA8F/e6No9/08QamsHiHD58aPj3Tne+S+9e973f2Lh3R3zZ4LHJaF5r7yI3xlgzaO4Ki5LO7Fz9FV/Re++73z110jNKdtJj0zx+949eXd8znVltnaaZJjzf8ehzF87u3P62+az/+V/+vvfgB91/2Ez16Y9fV4+tXHnl3npoCXVxc260w4wClueGt729d7vtu3vf+djH12PWUjO1GR/pd7na69sdZRi3ZktFUce4KVdloT6zs3vPnt7WrVvHxpYx45qxb3/VLLOSs0SLVvpazPK1rPaO9Hc0dNEai5WasX7/tX88ddITk500j2mbxNJizHILNc0s4Ulndx711dXsRs1QKbmJ/vZv3zz8BlZT+rp6Soa+/5k/VI+ppCRp9DX10ZkjyvToh3xN7+5fcuUwGekyekPM602xHq34YMYGtpn29I2g+W5sHo2WG/Mw+/lOm/RMSnbiFpgU8zSzhCed3RkZneU59o8/MPybfOpTx3rP+qEf7X3ll/7h8HZKikaRvoae3O42eVtfekxqzkqqOp6qGHpR2vEuJmC9ax8C1nzPbS7SpJibuT/BOlXgWb45vIxrc3Rf61cmf0+seBuMZlXPNp0ZW07S03VmZ21em7aZJTx3v8tiopOSmCSdnfm1n73fsN+d9G2rf/8NLx6OS/3rpGlHkc74XPuMb+w95SmPHT5uZP/JH1xszhokPotJ1XrZfFy8xTdpct3b/3fvI5/9VO+BD31IPWYzy7dN02jP74o1tfTir8BcZrqhrPnrOmtzeknje6G47bYMK1rv8Lp0JT1dyc56MrOE5yP/uJjopCRmdPbmp541SHDqROiCRhKTpPuf/m//pnfvfd/X+6NX/FTvD/7gD6rOCdPj6mnSY1JSNZvddzO+BeYlvTsuJmZjdnMqy5rv4V6YGas+wqrf7diwZns4WFK1jUZPNi6YZKmkZ9pkZ6331ZklPK+6bms9VCU+6dtVrURnpJHEXFCPe/q3H+sduPkXL/Sy3EyOYiE0a232B4rmQXy5URYH37bNsE1GH7xdAWtjXNKzUc7sjMwsg0jXxPoPP9W/kOw0r4nVEs7wDDWSnyd8xyN6r37Vm+pbA/V0sYfmpdx2+97ekx/7LcPhv77uL4fDaVyKRz/k4b0/+cPXDO8bec4zrxnct6f3u7/5P+oxbd/7lO8eTvPX1/1FPaZyw9uuv3Bfigff4769l77wV4f3jcZF//JP/zR8zjTtuMdF6f4nP/abh8NpmtHj0t/mMqdle/RDHnZhnmm5Pvj+D9T3tqX70jR3/5LbD6dPf9NyHbrxpnqKyVKh8W237x7M5/2DW3ka8id/+EfD+773KU9r3Zeet7rvuwe3K09+7OOH46Lmt6leN5jnYwbPmcalSI//0IT1i9On4fj6jZNenx9/5g/1HnKP+1x4bBp+wU//bGvbjOY/bjnS86f7mus5kqbP75v9B1q+1ZeOuWl+Tk+KsSObsf7cdsfOmcZKzfV1XA2r8jJXW6m57698u63P/XNkNuu4KCY9GynZSWZ+yuSNbz0/bN5alkaSM2oOG44bREqYhuNSslNP93dvz7/d1SUlNk95/LcNh5/1Y8/uPeLrHtX7+3e/p/d9T/2e4Qf7yFP//b8b/v31X3nR8G+UPuRe90ev6d3pznfufe2jv6Eem+b/6t7j/83XDe9L807Pcae73Ln3cz/x3Gz+0YPufp/ey//7bw6n/e7/9B96j3/it/UOHbpp+LgX/PTz6qna0jxf8bLf6j386752+Hz//PGP9370Gc8aJj1pWdK6HrzssuE807Km5fq2r3/M2AQmTf+oBzx4OM3VX/mV1bIPHpOW68H3uu/wQ7/Ldz29+rB+01+9cfi36R1vfdvwb5p/9J6/+7vh34c+vD6Ltwwp2XjOIAm542AZR+v3v/7o1YP1e/TYZU0JS3qd0zZK2+qZg/VLnvr4b+398auqwvlxUpLy4Lvfe7gd9h88MHyuxz3xCcP7XvxLv9x7yL3ukyU33/n07xn+nbQN0nJG7/67G4Z/H/rwhw9+r+1Bc5YHxNwoYemI9IcVG324xdgwVmU/aG+h6mcajX13g5hu/co100tLpK+mX/3Ah/Xee8Nbej/zA+fyszyjxKWRwCypniZdcmI0j2munJ7O5KQPxJREvOYv/7x3r/vep76nOquRkoAjhw73XvG611xIYNLZkvTh+MZ3Xp9Nn6TkIH14/tQvPL/3Az9cJTLpzE5KdtKH4qTnSD5z5vjw70j6X/2PP/9ne3f8si+rx1RJVUo00mM+9Ol/7R28/LL6nuoMT3qetE6vfP2fXLgvna1ISU4an5b9v/3ub/e++durD+cknRVKH8T/5SUv6j31P/w/9dhq+VKyUy37ddmyp+TpR5/xzOEH/QtePP6M08hoPimheOUb/qQeW0lniw4evGy4XK/7m7/qPfChD67vqdY/JULv+Mg/XNgG6QxPWtZPnzkxvD2SzoKk5UzzeuWf/a9sm6UzP+kxKZl5zn/+2XpstQ4/NliH+33F/Xu///rXZdsyJTTptUzScv/+G143HE5SIvOoBzxo+Hwvf80ftQqoUxKVEqE03z9/+/8ejhs9Js4ruceXXHlhG/zJ37wxm18685USoes/8sFsndbSxR2+Z3jQL+KovH4/BDfOx3Pu/e95z/Bv6mAw9alzsd7/3mo+9736/sO/0Zwuz7murHQNjx7Ja3aSac/yrOVWntkZnpTs/NdfeXHv11/8a8O/b7w+zHqU5Iz+1s1UF/4mo+FGQpSSnvs85vSyk52R9CHzgsGyxOQl3U7jkz96xe8P/ybff+2zhn9f/+rXDv82/cavvXj497HfWjUrJf/zv/3G8O9Sz/HS3166eew3XvHy1odc+lBOZ1qSj32kfd2wlAi98Ddemn14p2QtffimdU0JSjPZSb7jaU8Z/n3bm6uLsI78v//lvw7//s7gQz0ue0qMRmd6upq20mPTtCnpaE6bErG0vE/5908f3v6bv/jL4d+RN73xr4fLnbZB9X+sydK8fu1l/721zX7ox39s+Pf978mv2fYLz/3p4d/f+L3fybZX8vhvf+KFsz3Ri+vtkl7Tcd8W+8XB+JTYpLOEo6axe973vo1tkHpxTW/n/uD+v6y3QXX2MG6DN7/xjRe2wcZV/gcEs1S9N9YrZ0Emi8lOSnCazVvpvua3t9ajmSQ8o2QnXfsqdRaY/h648gm95/x6o+YmJjYxAUoaw9/7k6eGSVNqHkv1QYtvlmZMFhOAkdH49ME78tjBi5XEJpjUXJI+4FKzU/PDafTYpZ6j2fQ1Tjo7ks5EpCasdCYmnWFKH5qTxOQkSU1YyYO++qHDv023u/LK4d8jh/OdMK1jOotRnXUZpRyLkZraknGJV5S2S/Kedy6+du98+zuG809nw4bJQGM7pzNjKRF4xKO+dvhsyzUuARmNa263dMZlOP9BYrJUMvFvvuHr66HcqOkpJUVLeczjHzf8+9EPfmj4Nxk1eeXb4PrhNvj+H752uA1SgjOSOldMy/jwRz2qHrM+tPeEyTFz3W/pdW59r8BcXrOprMYSND8fmrEcBfZ3FFzse3dcspPO5qSYNulZy208k4Tn337Tt11Idu50x/tVl4/43BeG/eo87WceODxL00ps4hmeRkKUHvOVD/uxYdJUfftrqR027tSjqJoruqQPnZF0JiCdJUlnS1IyMvLK3/qd4d9HP+6bhn9HRh+q00pnQlKCk5qCUv3Ni37pl4fj7/cVVw8/GJfS9Vyj5Ga50vKPiptjdCVeTQ94yIOGf//qzxYvF5ISqm8eJg39Yb1RShhHZz/e+Y6qfuebnlAlSssxzXY+fuzY8O9XP/IRw7/T6nquu93zHsO/b/3bxaL6Bzykaq5745/92fBvkpKnahv0GtugOgv2rne8Y/j3cVNsg01j3Nt5XKw763KhWkYfeDFWz7yerWvHWO7rczE1PRvPNOu3VLIzcjFJz1qZScLT7DAwJT2/9wevHtbxpEtG/OgPP713+NIfHyYxF5KfpHGGJxUnp29lpbM6f/Hh/zIc/X//sap8TmeOVsvXfeOjh39/92X/c/g3GZ0NaZ7J6WrqmeT7v/vfDROKlFy94yMfGNb3pPqX1Mw1OrOyGtI6pQ/3SbF7b/sbZlE6k5Xm9ea/qs7ipGQxJY2jM06P+sbHDP+++a//evgme/1rXjuc/p5jzlZtJPsOHBj8rg6icRuks0zVNvjq4e1HfeM3Dv++ZbANklK2wZp+KKyb/KLrg3ZjWN3X8iK315IPW+78pnnejZPypLWaFEtZzhqOTXb2D5KdMONpk5703GuxhVec8KTmrHRWJyU6yZO/4+nDZCd5y9vfMbw8xJOe9KRh4vNdT3rCMPlJTV0pUgKU6nPS19mf99Ktvbe9p9/7xL9+cvjYJJ0lSrd/4Hv+Qz1m+f75Hz9eD7WNvtWTaiia0gdXOsuSvlKdpOaX9MH1Pf8xf/5RXch73/Wu4d9xxiVFaVxKdtJzpILgtazfGBYBDxKtSTGuCW2cdCYjbae0XUdnhx7+tVWT1f0fUJ25S99YSuufznSMznzM0/vf+756qO1YfRZonK6zWx/90IeHf+979VWD36O37UJjG3x8MI+/SpP0HjbYBsniNnjrqm6D1bC4BSYHLFpqj4gf1WOiPybmol/MfnuxW2jJMztLvKkvtnkrxjytOOFJ9TWjZCdJ39IaGSU+6f6U+KTkJSU/6YxQipQEpelTk1i6tEQaTmd2RtfUSn/T7YfVzSbTSB8+KWEZ5w2vrb5RlOpIolRom5p7UlHqa+uvLz/56akvmVxKWtJ0Sz3H7//2y+uhRaOamHFnctIH4aQEapZGhc5LLfu0Rmdz3vLGv+m9/jV/3Hv8E59wISlMf1ONS0oiRzUuo7M+83DXu999+DfVzIxLOpP/8ZJfr4dyo1qc9E2upfz56/7X8G86A9aUb4PXDuc1eRtUZ302tnGHqxiV/FZJylmrtV+T8UvQ31J9TJ04nn/bdRrpwzvpbxmVSHRFZbTfxlhPLnaZFteyrasZaynjkp5jg6Qn36qTzXP7zqRJa3iRz1pKYkZe+arf6l155d7h8I9c+8xh8pLqe9JZoFe84g3Dx6Wk5lv+5A9793zR64fTJV9+l7sMx6VIRs1b0/rpZ/9Yq4+W9BXz1N9NalIYl8iMvomValLSB1T6YBt3JubHnld9E+hp3/bErOYnSYlE6i8nuuvdq4ufprMIzcekD+Zfet7zs5qieXr2T//k8G/aPnHZk7SNmh0aLhrttnmksznJn73u9cOzF49+3GOznTb1t5PWbZRojM54zENKLlJzYXq+7/ymx7eSnrReSyWW/+77/tPwb+rvZ9xV29PX0tNrl/aJ2Bw1OpuTEqK0DR4z2AZNqb+d1doG60t++BodnFcSF6Tdb10Yt5QxNoZxS55i9bSf7cDBg8O//zz4HEhfUW/Fe7vjnz9efYYcOFDNa6VWf7t0m7Q8075Vnjr4D9q0yc5ImvaVjaTnKeuoVnEmCU9KZlKz1kiqu4m1Nyn5GdX6pKumN+t+/vibv30YI3f40tsP/770wY8cNmstbbTbxaj+B36nO3/ZsJO/VCScIvVCPOqDpWpSutNwuCklN+mbR+lr2ekDavTV7ijV9Iw+WFMBcvM5Uv88o4SoKX0Ypw7+ktRPz+gxqf+d973r3a0mtnlJTXdp2dMHc3PZh8tyj/sOt9HRo0frqUeqt8y4rX1gsF5pe4+ag656QPX1+pGHPerfDP+m+5tnPublR3/mp4fbMq1f6igw9deTIvWWnL6y/hPP/8/1lLn0ra/Ul1F6Tb958BqmXpSbjx31wfPSl7eT2bROy9sGf7Uq26BkzX2vzrknx7owXNoNay2X/so73GHwfrn8wpmei5Eee/Cyy4fz2qymeVt8/vNf6H3lAx84dbIzMkp6vnLwH7vPDeY1rQvv7xmbScKTmrV+7ud/vr412EGv3DuMdAbnI2952vBsTipgHt2XmrVGwymhGSU1P3D93w7P6qTxH/jhHx+e/UkxPunp3hy/8YrfHnYWmP5nkD6IUjNOSmbe+M63DxOWpYy+kZXOAk2aLiVNaf6peSvNP0VKslJHe0s97jn/+WeGj0k1NGn6dLYh1XMMOxSsv2K+GtKyp44XRx/SF5b/LncefuiPOlhsmrTFR1/XTglBPCOWbo++gTZN78oXKyUTqcPBlNQlo+2cvi113fVvvfBNq3HSV9L/ZPD6pcem/aW5XX7pJS8edji4VLKy/G2QeldmFkYHxkmxfpIeurVfrC2DZOUOd7xj7z5XXdW77/3v3x1Xt+M+97tqOI80r5IN9/cZuP697+u97i/+6qKSnZH02P/1l2/s/d37FktemgnXcmLWZt7Tcjp7k87QpHqddBHQZm/L6RtazctOHL/023uPfOTDh9/qGtXtJM0EJ9XvfMd/XOwleNHSi516Wk4f5Knw9mKMelZOZ2NSgnIxUlPKPW/3pcMPues/nK41VYJ57IKze5OuP/PZXhvL+tgG/TXdycraD+a3NmPmPM3rNnr4Kr/W6/XVXdFyzWAbrsftMtOEJ0lJz0PvX83yN34+XBSv2eFgMrj9tB/p9x75wD29j/7LzizRSQlQquV50a/9l97bPzSuA7ylF3ulCc/ipQ8+0Pqf+nKNLvuQziilr5yzlOptscrHqFWwXg+Dy7XRlz83XJupd7KytsE8rWxLTXj0tK/ZaFZrcEBZj3vLipZpBttwvW2TuZzfu/2tzw/jwgVBR0bJTqOTwcc94G97n/q/VcFySnxSjJqx0pmd8cnO/KQi55TspITpYpOd5GUv+W/Dv6vRhLOxrfdUJ71lLyY2so2+/G1pL1tovDzD2xOixG0wT4vb7GJiDuY0201lBi/P4vtpfZh5wpPqeT75+S29u9+l1/vkZ87XY4NGp4OpietRX72l94Lv/9Pe3oXX937lJX/W+8lf+oXeS3/7N6tplrTUK7GyV+gXn1tdhPKa+jpNS0nfxHrpC3+19S2gdDtd1TzVfaQaoNElK4C1d+EAPPFgvsKj/CY1lw+2aV+K5kKMXuMYc7JaH+yrtDpFmnmTVvLsp9yt96gHV8lOSmhS8pNdOb0WzwD99mt7w84HV3pWJ10eYZomrZS4vPVv3zzsrDAVqqaC1a4rhaeEJ30bK0nPNZKKY9O3fFKyE6+iXr6Le/ut1oHi4m22w8omWd8ld7xq/X2YXIz2Vpvbdlz/B46hWa9/nN+kzdD53Ku4Dee2H0xhbjU8o4RnZHT19NTUlc4Apb8pEbr9bbf0HvQVO4fJT+pxeRZNWNMmPKlvlnRdq5Sk/OCzf3jsN5SidCbnDa/942HfM+lszkj6hk7q0PA/PesHN9lXj8vpmXS89fB2XU2Fr2/nzlqt/2Z71edjjttyAx10ZrX+cT6TNsHE51yDbTeXfWAKczjDs9arxOorPdkZsW+3rcNtMrOdcfnrZs/o0p/PNprzgWepZb6Yp53V+sf5TFqWic+5hgftuewLyzCDGp606M0AWEPxkLRUdEqfCKNgpeayFZf1Ol68WS7zrOY12iNHEU21i28yc6nhmZ6XZmOrXr91sCPN2WbZTzfR+3FZO+3ytsfm2GqzWctV2VYzPiDFZZ529qu1fyz7eeZ0wF6t9bwY66TbyfI/KjeDtKN3BawrM9wp01FsObExzfYdvCrbYsYHnLi808x+xosyG7N9SYfW5Xo2rJOEh41t+Yeu9f6GWNrGXXLWl1X5sF+R0SdhMxhn3JYaF+vajBZw3a/ngISHGRkdxscFG8dGOGzN2OhTaakoxriVGxcsxdFsY1snCY83WbkWX9uNm/7YP8s1+pCfEOnPHKz+e2H9vftGx4RxMRNzeO3GLWuKDWtGC78RtsEqJDyNA8eSQenW75th3P4Yg/JM+drOaTcYfVjGmJ/5zn2WNs6SVtbL8mbLkW50xQzNYZYzNeeEx4cF6/kNsNn3z9GHfjM2gnHLPW2sb+v5Q4MNYgY70cW+W9br/jvHhGf9H1SYldHbYlywdsa9Hs3YiNZwuTfqJssUsRLTGe3uo2DTmmPC4/8oZWsfQdIrPi5YKyVu/TVep1X80Jz9+2eVFnyGRtugGSzTDF7ui93m63VPWycdD06y8d6k5ctfk813ENpI+6T3T2WVt8Oc3xT52mzO1/ii13pOr816exWy5ZnhOm/kvW2dfEtrks33cQrMWlnHkWpt0kfPxvr4GS1xV2wk63WZ0z5yYa+f0QJutNcm2gAJD+tLvstLR2GMVfhk8N6bYPRpPy6mlF7KScHGscpNWnaPtTf712AVd6B1YCPtw6W+3zbIeq3KG6O9LTbiqz5umbs235LrOePtvlG258TlnME2mfQabZht9Lg33bAqb0ugXNue89x6qHLVNefrocrBfXvqocqB/bvroUUH9ubT7NubT7N37656qLJ7x456qLJzx7Z6qHL6zNl6qHLi5Ol6qHLs+Ml6qHLk2Il6qHL42PF6qHL4SLj/aLg/PP74iXz+J07lz3/qdL5801q47q71UOXsC55fD8HmE49BV197rh6q7B8cXzRpAQDFk/AAAMWT8AAAxZPwAPOXqhqb0RrR7y0M/jSjH2MhRLi/JVUnNiLcbMdgJlmkZcoin761QB0WBpM0A5indFBoxOA9LeEBAIon4QEAiifhAQCKJ+EBZq5fNZkv1teEApaFMZEma0Yqc2nG1MIMw832iMEyNKMfolqKRoSio9FsRhEfAaye9JZtRiqzk/AAAMWT8AAAxZPwAADFk/AAs7eQR6rQacZY4TGxJiYKk08tVd00f9K/ZoQSnfzOQbTvz1VTLQawhgZvQgkPAFA8CQ8AUDwJDwBQPAkPMHML/YUsliPWxMQanRiDSaarkQkPiP0AtYQnDA9v3R913A3M0bi+wCQ8AEDxJDwAQPEkPABA8SQ8wOx1FLA0+79Z/k963GJ0PEX7/jgiNvJ33T/414x4d7wfWEPh/Zz6/5LwAADFk/AAAMWT8AAAxZPwAHMQClpSXzyNiP30DCP+hH5y6qb4CxGeoaV9f5xDLtbk5Ff/aj9/Kwa/mgGsofSmb8aAhAcAKJ6EBwAonoQHACiehAeYvdB+3uxNp/ppTdKKOCLW1EwrPaIZ/YXBfBoRJxiOasRwZDZBfjMsbmcAczTm/SnhAQCKJ+EBAIon4QEAiifhAeYuNKcPxIqWFMHCYFwzuqbv0KwgSj+t2UdpXDPaI3Lh7lgDlNa7GcD8tN5vg/ekhAcAKJ6EBwAonoQHACiehAeYvc4CljhiODLT7y9kEU1+9Dgdjwg1OK0RHQ9vrXN4OLCK4vtv8JaU8AAAxZPwAADFk/AAAMWT8ABzkDeg9wd/mrEwGNuKwa9JEWYZby5D1yPi/elJGxHvDvcvDEY2Y/ArD2DVxLdr6mtLwgMAFE/CAwAUT8IDABRPwgPMXmhAb5WzxBGDiHU+wwdmsUJhdqlrn2bEBVq86lb10xIWOE3RDGDttGoAB78kPABA8SQ8AEDxJDwAQPEkPMDMtepjQoTyl2HEybqupTW11hOEiPfHEaEooOvhcf2A1ZP3ipXekRIeAGATkPAAAMWT8AAAxZPwAPOXaliasQyhZKYqjGnGlDofHopuWs8fViKNakZ4ePv+EMD8LKT3cCPSm1LCAwAUT8IDABRPwgMAFE/CA8xBqGCJN8dEW6h6CTe7pFk2I1XdNKPr+etm/wvR7lwol8Y0A1hHBm9yCQ8AUDwJDwBQPAkPAFA8CQ8wB8OilwuR31oiFvJojUjjmtEhzj+OyW8l+RPkFT+D6QejsxhMlUXH/YNRWQCrS8IDABRPwgMAFE/CAwAUT8IDzNxCP8ZCFq0ClzRNelwj4iSpqqb50ynOMGgtYxrXiLyCJz1jGDOYaFI/PmlUM4DVMzzMNMO1tACAzUDCAwAUT8IDABRPwgPMXWxPbxfQ9FvXroo1MqnnnOZPpzRJM6LhciwdC4NlakZrJbrmP2Or/HSwsY15w0h4AIDiSXgAgOJJeACA4kl4gFUQGtTDzRQLgz/NGDdNFlOK8481Q2mWWfQXsmhPkUtlPs2I0qhmTCsuPzBBeMMsLCxIeACA8kl4AIDiSXgAgOJJeICZq682dSFa9S2hfX0YwbCrm0bEfnm6xOnT0zYj9rOTL3GKwTSNiI+P4vJWU016BDAv6TjTDNfSAgA2BQkPAFA8CQ8AUDwJDzBzsX6mXRAz+BUiVbk0I44INzvFfnZaMxizDFkM/mURRsTZtUfk0+e3gFU1eNNJeACA4kl4AIDiSXgAgOJJeIDZaxXQ5GKNz7DOJxTBtO9foTSPCZE/e/o1+N2IvI+ewbjw+HBzauk5mwGsQHhDpio6CQ8AUDwJDwBQPAkPAFA8CQ8wf6GPm/6Yn9TG3vwJJTSDMXl06Zo+zr/zAaGoqHWtnsHoZnTOL5hycmCi/B2V3uISHgCgeBIeAKB4Eh4AoHgSHmDmUnt5M1pjws1hRHkTfOfkUZw+zC6W5LS0e94JP4PHZDU7UVwAYNU03qnDn4V+X8IDAJRPwgMAFE/CAwAUT8IDzF1/YSGLcT+dNTFRmqYZQbw7ltTEfnhSlU4eYR5pmmbE+0PUz9IIYNWEt1867kh4AIDiSXgAgOJJeACA4kl4gJlbSHU6zejl9THjfuI0rSKbwb8sOnROHotuQhFRuNmp9XyD9c4CWD3h/ZfegRIeAKB4/ce96Qb/9QAyb3/St9ZDG8f7PvWseqhy+szZeqhy4uTpeqhy7PjJeqhy+PiJeqhy5Mjxeqhy6Fh+/+Fw/9Fw/9Ew/xOn8uePyzethevuWg9Vzr7g+fUQbD7bnvPceqhy9TXn6qHK/n17nOEBAMon4QGKlE5dNyPquj9W5cS+hMLd7fmF+4HVk66d1Yz+ICQ8AEDx1PAALbGG5wuf+UQ9tH7c6rZ3qIfGu/7j31cPVU6GGp5YY3OkVcMTanaOHquHKrGm58jR/PaxE6GGJzy/Gh6YnVjDc9W15+uhykE1PADAZiDhATaFWGMTS2xivzuta2eFmoA4wzSqGfF+YO2kt6CEBwAonoQHACiehAcAKJ6EByhSKqOZFOl6Xc1oiTU4MbrEJwRWTew3K70FJTwAQPEkPABA8SQ8AEDxJDzAprAQfvIKnlSUE4tuQtFOvDtEurxWM9oTAasnf/8tDN6UEh4AoHgSHgCgeBIeAKB4Eh5gU+iHn3itrOEFtJoRVJUAixFLfNo6JwBWkYQHACiehAeYu1vd9g5ZAKw2CQ8AUDwJD7A5xBqdVFbTjKDfz6PZh0/6ac0vFfY0It4d7wfmp/leTT+JhAcAKJ6EBwAonoQHACiehAfYHELHO6NSmlEMm/mbEfTTYyZE6/HhCcJNYI4G78rwI+EBADYBCQ8AUDwJDwBQPAkPUKZQUxNutqOfrq/ViF6MfPpeq6OdyRYGkzQDmJ/0Fosh4QEAiifhAQCKJ+EBAIon4QHKFDq+CTfbI0KRTT9EVQXQiGHfO4sxms0o4iOAVRTfkAMSHgCgeBIeAKB4Eh4AoHgSHmBTWrzGTvWT/jUjlOjkdw6ifX+ummoxgLXUl/AAAOWT8AAAxZPwAADFk/AAm9JC+ImXxmrW9wx/BiOb0aJoB9aN1ttx8EvCAwAUT8IDABRPwgMAFE/CA2wKqeqmGa0RodG/Wd9T/fSzGNb5NCLNIos0rhHA6lkYvOmaka6HJ+EBAIon4QHm7guf+UQWAKtNwgMAFE/CA2wKoUSnFQuh5qa/kOp0mpHGLUZV17P4E+fXHgGsln5/8J5txMIgJDwAQPEkPABA8SQ8AEDxJDzAprAQItbY9EPER8Sf+IB86nBjOAJYLfHtl97SEh4AoHgSHgCgeBIeAKB4Eh6gSK1+dQbjmhHvj43+qd+OZrTExwSxHxBg9cR+s9KbXMIDABRPwgMAFE/CAwAUT8IDFCmVzTSjy7CZvxGxyCfNYpqo5tIMYLUsDN6EzUgHAQkPAFC8/uPedIP/egCZtz/pW+uhjesdH/++eqhy4uTpeqhy9PjJeqhy5NiJeqhy+OjxeqhyJNw+fDSf/sjx/PaxMP/j4flPnzlbD12chevuWg9Vzr7g+fUQbD7bnvPceqhy1bXn66HKwX17nOEBAMon4QE2pWGzfiPiiHBz2BdPFmncFBHnB8zP33/oH7N40zv+XsIDAJRPwgO0POQPXpsFwEYn4QEAiudbWkCnjfitrevDt7ROhm9JHTsRv6WV3z509Fg9VDkSvpV1qPUtrvz+42H+vqUFsxO/lbUczvAAAMVzhgdYsa4+MA7s21MPVQ7s3V0PLTqwP59m/558mn17dtVDld27dtRDlR3bt9VDlVPhDIozPFAOZ3gAAMaQ8ADzF65LNU5/MDqLfh6DB2aR32pLD2lGFBdpYfCrGa05VBMtRtBeXmC19B/9sc6Q8AAAxZPwAADFk/AAAMXzLS1gxTq/pRW+lXVw/956aNH+ffk0+8NjWt/S2jn5W1rxW1Dxaunxauatq6V3XD09fkvraJj+aPjW14lTvqUFsxKPOT/9p19VD1W2b7u0HqpsG9x2hgcAKJ6EBwAonoQHACiehAeYuXafOv0sxkljJ0VHNzgtaZKJMZhpMzqfMERcx05x/sDMxH600luyGem3hAcAKJ6EBwAonoQHACiehAeYva56lYWFVrRGpcka0TXLKE7fisFMm7EwGNuM4QWxGhHvT8vUjCg8vPV8wOy03m9pXDMG7zkJDwBQPAkPAFA8CQ8AUDwJDzB7qUalEa0+Mvr9VrSEeUwvtuIH4e7+YLma0fX04eH5xIMIN4E56nq/pXESHgCgeBIeAKB4Eh4AoHgSHmDm4nWq4rW0Us1LjPaIXJxnZ6N99wQTxZqe1vLF6LCypQEmWU4/VxIeAKB4Eh4AoHgSHgCgeBIeYP5Sm3ojUi838Se2waeueZoxmCSPNK4ZQZw8SmU5zYha/QSFB6SHNCPqWDxghuL7tVXzNwgJDwBQPAkPAFA8CQ8AUDwJDzB7ocBlsVKn+mlXuIxpcw/zqKZajC6xJqgl1eU0Ij7/4F94vjAmzbMR8fELg2maMRiVBTBL8Q3ZHiXhAQCKJ+EBAIon4QEAiifhAeYgbzyP9SvjoiVM0KwBSj+dwuOjeK2szpqf4XM2omP+cfr8FjBLrbdjHDEICQ8AUDwJDwBQPAkPAFA8CQ8wc6nXmeZPvM5NvC7VMII0phnN+aWfLvHxLY22/SoGv5rRsXzDhzRjMEkW46ZpBDA7Nx0+nsXRI3kcO3ZSwgMAlE/CAwAUT8IDABSv/7g33dBunAaYwrbnPLceqlx97fl6qHJg7+56qHJg/956aNH+ffk0+/fkt/ft2VUPVXbt2lEPVXZu31YPVU6dOVsPVU6ePFUPVY6dyG8fOXaiHqocPhpvH6+HKoePHKuHKoePn6yHKsfC7ZMnT9dDlbh801q47q71UOXsC55fD0H54jFnOZzhAQCKJ+EBAIon4QEAiqeGB1ixVg3PNefqocr+fXvqocrB/fntZP/efNz+UPcTa3h278xreHbsyGt4TocamROhhuZoqLE5Gmp4DoWanSOxhifW+BzPbx8P8z8enj8u37TU8MB0nOEBAIon4QEAiifhAQCKJ+EBZi5eO6sfonWhqzGVhF3XnlpIs2nE1NJjJsbgVyPiOnUsfuf9wOqS8AAAxZPwAADFk/AAAMWT8ABzt5x6lgulM3W0RoSIo6YVH78w+N2MuNT9hRCDSbIYTNWMls4JgHmS8AAAxZPwAADFk/AAAMWT8AAz16p3SeMa0erTZlwRTF5C044u004fHtC1OC1dE3TdD8yVhAcAKJ6EBwAonoQHACiehAeYg7wCZmFhIYtxZl3iEq+1FeefFqMZ/RCtBwAbmoQHACiehAcAKJ6EBwAonoQHWH2xgGYYafxihJut6FJVDy0d7RHBsG+gxeiHiAsUbrakhzQDWF0SHgCgeBIeAKB4Eh4AoHgSHmDmFsJPSyxoWUZRS5qiGSvWVXQzts5oMWI/P12rE2cBrC4JDwBQPAkPAFA8CQ8AUDwJDzBz/dZPGrcYrYKWQcQamBip7GVSTKvVr87gXx5pXCOCeO2tuEpxAYezbASwuiQ8AEDxJDwAQPEkPABA8SQ8wMyNKWHJolUfM4iF3uRIdS/N6NJ+zjwWFhZCpHGL0RKXN82jEYN/WcQRaZbNAFaXhAcAKJ6EBwAonoQHACiehAeYvVC/shz9hYWJMbVQNJNm0YxQktOKwSR5DB7UjNgPz8WsM7B6JDwAQPEkPABA8SQ8AEDxJDzAKggFLqmIJkaHNEUzwhxbWnU5aVwj4vziFLEnoDjDhfgzmGSK1QFWmYQHACiehAcAKJ6EBwAonoQHmLnFSpgq4ohwcxhxRLxW1azFfnRiPzu9wb880rhGhJqeVs1PWoksgLUk4QEAiifhAQCKJ+EBAIon4QFmLtbDxOtipQqXrojaNTLTSc+a/+TP1091OI1o1RANxmURte6PzwCsJQkPAFA8CQ8AUDwJDwBQPAkPMHPtepg8ht3SxAgjYj85o/GLMZ3BHLOf9K8Zse4oThDrkPJ70+PzyO9NAawlCQ8AUDwJDwBQPAkPAFA8CQ8wc6mEpRmxmiXW5wxrdEIRTOwHJ/Wc0/wZPCrEZMOnaETr0WFEuNl6fFjc1vT1VBeifT+wmiQ8AEDxJDwAQPEkPABA8SQ8wMx11ecMrzUVojUqzSeL/CfVxeQRxTnk4iLF2bX65QkLOJrrKOIM4v35vcBqk/AAAMWT8AAAxZPwAADFk/AAMxf70In1L+OkMplmrFyayWIMF6MRcUS4OfiVRjYiLGBcx3i9sMVnrgJYWxIeAKB4Eh4AoHgSHgCgeP3HvekGzcvAimx7znProUr/0R+rh5iXhevuWg9Vzr7g+fUQMI4zPABA8SQ8AEDxJDwAQPHU8ABTizU7rD9qeiDnDA8AUDwJDwBQPAkPAFA8NTzA1PS7s/7olwcmc4YHACiehAcAKJ6EBwAonhoeYGqxhuen//Sr6qHK9m2X1kOVbeH2pZdsrYcW3XzLLfVQ5czZ/PbZszfXQ5VTp8/UQ5VTp8/WQ5WT4f6Tp07XQ5V4+0Tr/vzxJ07m9586M/n5zoTlOX02v3325nx9br75XD10cdTwwGTO8AAAxZPwAADFk/AAAMWT8AArtrCwkEca14j8VjWmZaGfxeB3FtXjmtGeIhenn6xrbr3+YGwzwuz7IbqlZ2kGME8SHgCgeBIeAKB4Eh4AoHgSHmDFYnlLqkjJYhn1Lf3BHc1oFcnEuaZpmtESpu8weNYs2tJzNGK62beF2QHzJeEBAIon4QEAiifhAQCKJ+EBVqyrHKXr/qQ1TSwMak2RxjUj3j9ZrNnJb417fHi++HShpmg0ehTtEcBqkvAAAMWT8AAAxZPwAADFk/AAKxbKVy5OelwzwoiFwZ9mjMZfiFBiE262tGt2wiMmz37wK41sxODfpOlbJUnxAcBcSXgAgOJJeACA4kl4AIDiSXiAFVvo90OkcYvRKmgZJ07TmkmXNM1idFXIdN0fZtcprwhaxgNSIU8zgLmS8AAAxZPwAADFk/AAAMWT8AAzECpiws1WjJXqWBoRbrZqXsbNtxntEZn+YB7N6DJ5boP5DcY2Y6Gfx/BBWaRxjQDmSsIDABRPwgMAFE/CAwAUT8IDrFiqgGlGa0SMcWJNSypraUR/MC6LwejJs+yYYvgcixF/otbcYj9BqQ6oEalspxlx8sHYEMA8SXgAgOJJeACA4kl4AIDi9R/3phvajdUAE2x7znProcozfu+e9VBl145t9VBlx/b89vZwO9l26SX1UOXScPvmW26phypnbs5vnz1zth6qbN+WP8eZcP/pcPvk6Xj7TD1UOXnqdD1UibdPtO6Pj598+9SZ/Pbp8Pynz95cD1XOng3r/4Yvq4cqZ1/w/HoISJzhAQCKJ+EBAIon4QEAiqeGB5harOFh/VHDAzlneACA4kl4AIDiSXgAgOKp4QEAiucMDwBQPAkPAFA8CQ8AUDwJDwBQPAkPAFA8CQ8AUDwJDwBQPAkPAFA8CQ8AUDwJDwBQPAkPAFA8CQ8AUDwJDwBQPAkPAFA8CQ8AUDwJDwBQPAkPAFA8CQ8AUDwJDwBQPAkPAFA8CQ8AUDwJDwBQPAkPAFA8CQ8AUDwJDwBQPAkPAFA8CQ8AUDwJDwBQPAkPAFA8CQ8AUDwJDwBQPAkPAFA8CQ8AUDwJDwBQPAkPAFA8CQ8AUDwJDwBQPAkPAFA8CQ8AUDwJDwBQPAkPAFA8CQ8AUDwJDwBQPAkPAFA8CQ8AUDwJDwBQPAkPAFA8CQ8AUDwJDwBQPAkPAFA8CQ8AUDwJDwBQPAkPAFA8CQ8AUDwJDwBQPAkPAFA8CQ8AUDwJDwBQPAkPAFA8CQ8AUDwJDwBQPAkPAFA8CQ8AUDwJDwBQPAkPAFA8CQ8AUDwJDwBQPAkPAFA8CQ8AUDwJDwBQPAkPAFA8CQ8AUDwJDwBQPAkPAFA8CQ8AUDwJDwBQPAkPAFA8CQ8AUDwJDwBQvP7j3nTDQj0MALDubXvOc+uh5XOGBwAonoQHACiehAcAKJ4aHgBgQ4k1PM/4vXvWQ5VdO7bVQ5Ud27c5wwMAlE/CAwAUT8IDABRPwgMAbGiXHdiTxb79eezdu0vCAwCUT8IDABRPwgMAFE/CAwBsaKlDwWa0RgxCwgMAFE/CAwAUT8IDABRPwgMAbHD9PMLNFBIeAKB4Eh4AoHgSHgCgeBIeAGBD6y8shEjjFkM/PADApiDhAQCKJ+EBAIon4QEANrSFfh7jSHgAgOJJeACA4kl4AIDiSXgAgA0tle00I0rjJDwAQPEkPABA8SQ8AEDxJDwAwIa2sBAijWtGX8IDAGwCEh4AoHgSHgCgeBIeAGBD6/f7eaRxjUi/JTwAQPEkPABA8SQ8AEDx+o970w3pK+oAABvCtuc8tx6q9B/9sXpoac7wAADFk/AAAMWT8AAAxVPDAwBsKLGGZzmc4QEAiucMD6vi0uf8VD1UufkFP1cPAcB0nOEBABjDGR5mKp7JWcroDM9oemd8ALhYy+mXxxkeAKB4zvBwUZZ7JmfklW95Qz1UefLDHlsP5Zz5AWBazvAAAAw4w8NE057JieKZnS7xzI8zPAB0iWd4rrr2fD1UObhvjzM8AED5nOFhrK4zO6/8ra+vh3JPfvpf1kOViz3DM3pcV60PADjDAwAw4AwPE43O9Cx1RicaneFZae1O17e6nOEBYCSe4bn6mvwMz4F9u53hAQDKJ+Ehk87oNCOd2Zl0died0WkGAKxHEh4AoHhqeDa5dBZnktHZnfP//Mrh36V81/Mur4cqP/faX6iHKne54r710HhdNTwjankAiHxLCwBgQMKzyaUzJM2zJKOana7anVlLZ3SaZ3XSmZx4NgcALpaEBwAonoQHACieouVNblS03NV8NW3R8si0xctdltvMpZgZYPNodTwYipb3K1oGADYDZ3g2qfh19HiGp+uMzlK6vp4eTft19S6v6lWdH35HL18fZ3wAyuUMDwDAgDM8m9yrb/OWeqhysWd2Rpaq5RlZ6ozPT33rT9RDyzM6k7MUZ3gANo9Wx4PXnKuHKjoeBAA2BWd4Npl51e506Trz06XrjM6IMzsAm48zPAAAA87wbDLxDM/v/cyN9dDyjM7UTPu4aKkzPss9kzMSz+hEzvAAlM+3tAAABpzh2WRGZ3i6ztB01dzM6gzPxdbmLJczPADlc4YHAGDAGZ5Noqt2Z6XfohqZ9sxRPMMz7Zmcpc4Q+bYWwObR+pZWOMNzYK8zPADAJuAMzyYRz/As1yvf8oZ6aLx4ravlnuEZnZlZ7hmdab+99a0vuKEeAqB0zvAAAAw4w7NJdJ3h6TqT0/KPLx7+efLT8zMvS53hmbZ2Z7lndJY6Q6RmB2Dz6D7Ds9sZHgCgfM7wbDKvfshV9dBFqs/sjMQzPC989KfrodwPX3e7eqgSa3hWekZnKc70AJTPGR4AgAFneAoXa3emrtVZQvx21lJndpay1BmfEWdyAFiu1hmea8IZnn3O8AAAm4AzPIVb6ttZr/ytcAblLs+sB3LxTM5Spj3Ds5R45idyJgeAyBkeAIABZ3g2iVYtzxJneJZ7RmdkVmd2RkZneJzJAWC54hmeq53hAQA2I2d4NomlanmWa9ZnciJndgC4WM7wAAAMOMOzyXWd+ZlXjU4XZ3oAWK72t7TO1UOVA/tcLR0A2ASc4SETz/iMzvB0nZmJZ4KWeyZnxBkdAC6WMzwAAAPO8LAsS9X6jM7MdNUCjTiTA8CsdX1La79vaQEAm4EzPCzL6AzOUmdo4hkeZ3IAWC3O8AAADDjDAwBsaM7wAAAMSHgAgOJJeACA4kl4AIDCpPLkxej3+xIeAKB8Eh4AoHgSHgCgeBIeAKAoC/1+HoNxEh4AoHgSHgCgeBIeAKB4Eh4AoGj9QUh4AIDiSXgAgOJJeACA4kl4AICi9BcWslgYhIQHACiehAcAKJ6EBwAoXv9xb7ohXWICYNm2Pee59RDr1dkXPL8egvLFY9LV156vhyoH9u52hgcAKJ+EBwAonoQHACieGh5garG9/Bm/d896qLJrx7Z6qLJje357e7idbLv0knqocmm4ffMtt9RDlTM357fPnjlbD1W2b8uf40y4/3S4ffJ0vH2mHqqcPHW6HqrE2yda98fHT7596kx++3R4/tNnb66HKmfPhvV/w5fVQxU1PGwmrRqea/Ianv379zjDAwCUT8IDABRPwgMAFE8NDzC12F7+03/6wHqosi3W7MT6nEvy28nNsSYn3C69BifWKE1r4bq71kMVNTxsJvGYdNU15+qhysF9angAgE1AwgMAFE/CAwAUT8IDrFgqBGxGa0SMcfr9EGncYiwMxmUxGD15lh1TDJ9jMeJP1Jpbf/C7GQt5LAyXeTHi5IOxIYDZSe/hxUjvMAkPAFA8CQ8AUDwJDwBQPAkPMAN5e3m82YqxQk1LuBlrZMbOtxntEZmFVGfTiC6T5zaY32BsM/oLeQwflEUa1whgdobvscVIdXkSHgCgeBIeAKB4Eh4AoHgSHmDF+gsLIdK4xahqcBoxTpymNZMuaZrFCE34LV33h9l1yit4lvGAVDfUDGB+Bm9yCQ8AUDwJDwBQPAkPAFA8CQ+wYqmbmWZclPS4ZoQR7W5rqvEXIpXBNCLcbMkrbtI8wiMmz37wK41sxODfpOnbJTvhAcDMxBLA1NeWhAcAKJ6EBwAonoQHACiehAdYsa5qlK77k9Y0raKXOEUa14x4/2R5Bc9CuDXu8eH54tOFmp7R6FG0RwBzE95v/b5raQEAm4CEBwAonoQHACiehAdYsVhuM/iXRz+PcRYGdzSj1Qgf55qmaUZLmL7DYvVOFW3pORox3ezbwuyAGRrz/pTwAADFk/AAAMWT8AAAxZPwACuW+rjIIo1rRH6rGtMSLn4zanofRfW4ZrSnyMXpJ+uaW1Wc1Igw+86Sopb0LM0AZiW+H11LCwDYFCQ8AEDxJDwAQPH6j3vTDRqPgalse85z66FK/9Efq4dYKwvX3bUeqpx9wfPrIShfPCZdde35eqhyYO9uZ3gAgPJJeACA4kl4AIDiqeEBphbby1l/1PCwmXTW8Ozb4wwPAFA+CQ8AUDwJDwBQPDU8wIrpl2f16XcHFsVj0NXXnKuHKvvV8AAAm4GEBwAonoQHACieGh5gxbr6wDi4b089VEl9YkT79+6uhyoH9uW39+7eVQ9Vdu/aUQ9VdmzfVg9VTp85Ww9VTpw8XQ9Vjp44WQ9Vjh49UQ9VDh3Lbx8+cqweqhwO9x8Jt48dz+cfnz8u37TU8MCi1jHomtgPj2tpAQCbgIQHACiehAcAKJ6EB5i5/kIevYXBr2aM0e/nsXJpJosxXIxGxBHh5uBXGtmIsIBxHfuDabIYzKIZwOoJb9fhLwkPAFA8CQ8AUDwJDwBQPAkPMHML/TxaDeqpJiZEa1SaTxb5z2BGIaI4h1xcpDi7/mBkM+ICjuY6ijiDeH9+LzBPrfff4JeEBwAonoQHACiehAcAKJ6EB5i5WK8S29Njjc+4Op9WPzfhZ/CoEJMNn6IRrUeHEeFm6/FhcVvT11NdiPb9wNzEN9zgbSjhAQCKJ+EBAIon4QEAiifhAWZuIfVT04h4nalW+3qKMKJV4xPun1bqOaf5k/41o9XvTphgYTAuizBFekgz8ntTrK24fFsGv5qxdUuIrR0Rpo/zG/zLAlZT2uWakd6CEh4AoHgSHgCgeBIeAKB4Eh5g5mI9TKx/ie3r4yJaGIxtxrTSs+Y/+fO1644G4xsxGJlH1Lo/PsN8DTZrFrHGZuvWLVnsvLSfxb4QBy+ZHHH6OL/4fHF54vLCTKV9qhHpHSnhAQCKJ+EBAIon4QEAitd/3JtuSE1bKxbbYKsW8kWtNtp4OwpLFZvMh/1oNMT7gdWz7TnPrYcqV117vh6qHNi7px6qHNi3ux5adHBfPs3+vfk0e/bsqocqe3btqIcqO7Zvq4cqp8+crYcqJ06erocqR0+crIcqR4/ltw8fPVYPVQ4dPVEPVQ4fye8/Eh5/LMw/Pn9cvmktXHfXeqhy/r/+fD1U2bO1Hqjt3pofdJ9xz3x7bg3//d3aUVhzLhx0z+Uvee8lHwrrfy6f/vi5eqC2cD6//3yYv2M8k8Rj0NXX5Dvk/sHxxRkeAKB4Eh4AoHgSHgCgeMuu4YnNuelaKU39Lfnt7SGV2hYeH5qXW0Lzbu9sWMozob1Y+y+sne4anrwe58D+vfXQooNhmljDszfU8OwKNTw7Qw3PqdOhhudUXkNzPNTYHDmW1+h01uyE+48cz28fPb66NTy3evEv1EOVZ94r316XhmP0peEYHe4e/G84jAjOhzrKcAju3RyO0TeHCV78wVDzFGp8Tt5SD9TOdxzj2dxaNTxjjkHO8AAAxZPwAADFk/AAAMW7UMMzbY2OPh6Yp7h76NdpfWvV8IQ+MGK/O+NqeA509MOzb/fOeqjSWcMTamROhhqe2O9OrOGJtw8fPV4PVQ6F20dDTU/s52feNTwv+NsX1UOVba1jbj1Qax3jw/1TvqVa75l4jA2H6N7ZcEw/HSZ44QfC6xFqes6dz2fQ9Z51TClb1zHo4H798AAAm4CEBwAonoQHAChe/5vf/M5hy+KWUKOz65J6oLY3NADr44GViO3l+nVamdWuT4gTXPJjk69jE2t40nVtotTG3tS6ltbu/Jizu6OGp+taWsdOnKqHKkeO5TU5hzv64WndH2p+joV+eGINUawxmlas4XnRW/IanpXW6KxU3GXiPhTfU7Gm58Qt+f0vCDU98f74nu07pqzIah9TVlrz1FnD41paAMBmIOEBAIon4QEAitd/8tveNWwpizU6z7p33l6+Pdy/0fp4OBMm+NV/yNuDD8U+HsL0anqmE19v/TqtzLTbc971CbfE+oQf+cl6qHLVNfkcYh87Y/vh6biW1r5wLa1Yw7NjyhqeeK2rox397rT64QnTx8ev9rW0XvLWF9dDlcnviLUX3yLnwnvqVNgJX9Q6ZufTnwnT73RMmWi9HVOmrXmKO9ClHdfSSnWDYRUAAMoj4QEAiifhAQCK1/+hd7572BL2vaFfnR2h/a7dr05o7wvteeHmzIXmu84an9hvT7xuy698IG9vvTG0D6vpmSzuD/p1is8XnjCYtj19rWue/v8fzrfHp37wJ+qhSuyHZ3+8ltaYfni6rqW1N9Tw7FlpDU+41lW8FlbsV6dV03Mk3I798IT5t/rhOT3bGp6XhhqejSa+J28J+2A8Zv+3f8i3b6wR+d7wHnBMyUdstDrKE7Hmqf47siXUEV59bf6A/XvV8AAAm4CEBwAonoQHAChe/59Pf2TYFBbb4y6J7X2heW5ya93ai+17sbnzbGgPPRVqdv5ruG7LTTfXA7Vz5/MGyI7m1OLE9uCtob33YKjZuebeeT3GZu/XKdpoNU/x9rMf8ax6qNJZwzOuH544zZ7JNTxd/fDEa1W1rqU1ZT88h8LtI2H6I6EGKNYIzbsfno1ewxPfIfE9Gmt6Yg1IfHw8hjim1AO1jVZH+ZJQ8xRrtr74zO46Qmd4AIDiSXgAgOJJeACA4vU/c/NHxzYETtueud7FlYztrbH99ESo6fnFUNNz4ub8/ngdmC7t7ZuPiPdP26Ac128hTBDv79JVs3P5Jfnta++TtwfvCNOX3q/Tr4b25qNhf4k22rXsoh/8mmfWQ5Wr47W0Qs1Ouq5NdDDU8OxfYQ3P6dDPzYnQD07sJyf2o3Mk1vCEfnfU8MzXtPtgF8eU9X1M6ap5Ch/JrRqg5zwyryO8KtTwpOOLMzwAQPEkPABA8SQ8AEDx+p+7ZXwNT+niSscanFPhS/4vDDU8nzubT38+dAoR599q/wydGGwPqee20CAaLnPSEvskCIvXOxPahxfC+sb209geu2VLvoCXXVoP1H7kPnm9xc5Q07MtrO9qt6evVHw9Y/tz7Nepdd2f0P4ebbRr2UU/8NV5Dc9V1+Y7XLxO1sFwnaykdS2tUNPTquHZubJrabVreMLto8fqocqRUMPTqvkJt4+Gfn5iDVGsMZpW6TU8pXNMyXVtj3h/HPHMh4VjUKuGx7W0AIBNQMIDABRPwgMAFG/T1vBE8Tv98ToesV+eX35/aL+PRTTB7lCEszt0cvCMe+btrfHaZltjg2pwLvZhEGp2XvKhUE8Q2oNPdCz/vrD8P3LfvL4irk/s42Gta0xmLewurfbmruv+RBv9WnZdNTyp/bzpwJgantg3T5wm1vDsCv3w7Jyyhif2kxOvpXUo9KsTr611OPbLczyfPl6rSz88TOKYsjKddYR71fAAAJuAhAcAKJ6EBwAonhqeWtwIsV+e2I/Nr/9D3l5/qqM99RmhT4RLO/tEqAdqWzpaWM+HNWjXJNUDtVij9JKOPh12huX7/nvn9RWxH6Gtsd+d+m+p4v4T29+ntdHa12P7ebyWVqzPObg/v53s3xv64Qk1PPu6+uHZMWUNT6ixadfwhBqdWMMTa3xCDc/xMP/janiYwmY/pkyrVcMTr+e3b68zPABA+SQ8AEDxJDwAQPHU8Cwh1sDEa03Fmpg4fWwgDZeW6oVualZ8HZP49LG9Ny5/6IanF7oZas0w1hR1XYclTk/ZWjU8rT4w8nqcA/v31kOL4rWz9u+ZXMPT1Q/PqVAjc/LkqXqocuxEfjteC6tVo9Pqhye/1tbhULMT++E5GWp44vJNSw0PLFrOMcgZHgCgeBIeAKB4Eh4AoHgSniWkkpRmpBqVZmzbmseOjkj97jQj9VPTjMG/LAb/sugSp4/zi88Xl2fcMjcjrm/cHoN/WbDJpRqwRiwMdopmDIvMYkRpP2pG0HH3GF2PCPeH5VsIEXf6fhrVjDBHYO2k446EBwAonoQHACiehAcAKJ6EZwmx/X3L4FcztsYYbMkswv3x8YN/WUQLMUL9QOpXZ3JUfQONYjAqjzD/uDyhPKG1/DEG/7JgvuLrt9L9I0bqp6kZ46ZpRjRYiuynP3jOZrR2sBRBGtOM5vzST5f4+JY0iywGv5rRsXzDhzRjMEkW46ZpxGprLcNgHddynxn8y4K1FV+Pjb5/tB+/IOEBAMon4QEAiifhAQCKJ+FZJ2J747Ttp7eEuPn85LilFb0sYnvrYJZ5hOVlvuL2Xm/7R1uqeVmM4TJ3REuYoB9+OoXHR7FvoFiD05ZGNqJj/nH6/Nb8xcVbb/vMYJZ5hOVlvuL2Ln7/GLypJTwAQPEkPABA8SQ8AEDx+p+75aMX1RzGbJ0Pr0JqI2366KFD9VAltXk2xRfxsycO1EPLk66H1ZT6Dmp62O0n35/64mF+1vv+8drvfFY9VLnq2nwBDu7dUw9V9u/fXQ8tak2zL59mz+5d9VBlz64d9VBlx/Zt9VDl1Jmz9VDl5MnT9VDl6PGT9VDl6LET9VDlULh9+MixeqhyONx/9Gh++9iJfP7Hw/OfDss3rYXr7loPVV761hfXQxXHFCYpbf/4ga9+Zj1Uueqac/VQ5cC+vc7wAADlk/AAAMWT8AAAxSu2hif1IzBP/dD+OK24dOdDg+rNsT31psP1UOXW2/NcNa7u+w7trYcqV1+W1x/EBeiHBtH337SvHqo8IrSnXhJS5Y3W3m7/mO3+8brv6qjh2ZfX5xwIt5NYs7N/T357795Qw7Mj1PDsyGt4Yo3MiVBDE2tsjoQanMNHj9dDlVjTcyTcHx9/NMw/Pv+sa3heEmt4HFNWlWPK2u4fsYbn6mvzGp79angAgM1AwgMAFE/CAwAUr//pm6sanq7Wwdh82DX93IX2wIX2iMzZ02fqoVpogAyTD27HNcxvb9uZ1wu0tkjH9op9IJwLy/PmT9YDtXj/LQt5jUQ7c82n/4rL8/bUT5/O2zdvt+OSeqjyvpv210OVh7faU/PbsY+ENd9fwva1f0T59CvdP17/lB+qhypXX5M/f6zPObA/b+9PDuwNNTzh9r49eQ3P7o5+eE6fubkeqpw4eaoeqnTV8LT74Yk1O+F27JcnzD/2AxT7CZpWrOF50VvyGh7HlBnLV39wszUi45iyuvvHD35N6IdnTF9gzvAAAMWT8AAAxZPwAADF6//LmY8MG95ie1/XdS5Wuz21q4+Ds6embC8N958PaxDbO+Mabtu5vR6qdW6AfIKu5XnzJ/Pb9zt4tB6qxPbjLf0wx7A8W8P0YerB+ue573tvzNtTv+bKfIZbww4Q+0hY7f3F/rG2+8cbYg1PaD+P/e7Eep1kf5gm1v3sC9fS6q7h6eiHJ1xL63C4HWt0DoUanthPz9HjeQ1PnH98/lnX8LzwzXkNj2PKyjimbKz944ce1lXDs9sZHgCgfBIeAKB4Eh4AoHj9//l/qxqemPnE9rKH374eqMX21Hhdi2jq9tbQ4BfbDzvbTzvaX8+Fu2P76TtuyusDJs9tIKxQqz02boBw/0OvrAdqb/1UPsHVlx2phyqfOX1LPVS5/c78Ffx0uP/KnXmfB586mbdv3nr71nqo8q6bDtRDI/nyx9f70tXeX8L2s3+s7f5x3VMn98NzYH/3tbQOxGtphTqfPaGGZ09HDU+skem6ltbRjn53Ys3O4dBvz5FQw3P0WKjhOR2upXV6tjU83/SKF9VDFceUnGNK/bdW2v7xuu+aXMOTji8xzwEAKI6EBwAonoQHAChe/3WfvH7YcHfljrw97QOH99VDlUeE9r7YPBjb12I/PjGzitOHmytuP81vtds3Yx8It+TNfb133JT3eXC/y/LrgsRniMsfZtf79Ol8zGdPHqyHKg8P2/dtn87n/xWXT25PvTK2p57K779dbE89FdpTt+Wv/w2hT4Rb7cqf//bhOij/cDi/NtJK95d8adqPj9vf/rG2+8dfPu2aeqjSaj8P9TgHx1xLK/a703ktrZ2z7YcnXgvrcLwd++WJ/fDEa2nFGp5ToYZnxv3wPPp38xoex5R8hGNK2Z85f/qUZ9VDlVYd4T7X0gIANgEJDwBQPAkPAFC8/n//6AeHDXf90KB5SWz/bLV35mK/PTGT+prQh8IlYX6t9tTQ/nk2tH9P3X4abp9byJ8w3n/9odCeGq4r8tkzob0y1EDFPhc+fTof8dlTeZ8DjwjXDYntqV8Z2lNji21sv14I9/fDK9LaHufzGdxwY17DdT5sry2hBbnrujdR1/7ysI4+N+Ls7R9ru3/85dOurYcqXTU84/rhOdhxLa29u3fWQ5Vdu/LbO6es4Tk6ZQ3PkSN5TcWhVs1OfjvWCB0Pzz/rGp6v/91fq4cqjik5x5SyP3P+rNUX2Ll6qLJ/397WPgEAUBwJDwBQPAkPAFC8/hs+9dZhy1rsh6erT4O8tW4gtLe9/6a8Pe7Bl+ft1bH9LT7fpTvy9vibQ58IsT216zol14frlLSmr/8uChN03s7dErZHLFJaCPc/8vb57a721Hn3ifDO8PrdZufheqhyh51xf8mXd8X7yxVhfwnz277z0nqoYv9Y2/3jL57aUcMT6nNiTU8Sr7e1f09HPzxTXkvrZMe1tI6EfnMOHc1rdo6Ea2fFfnji/cfD/Oddw/N1v5PX8DimOKY0lf6Z8/xv/Nl6qBL74dk/OL6EtAMAoDwSHgCgeBIeAKB4/T//9FuGDWGxvS1mQqF1sLcQxsTvzL/vpvy6GA+5LG8P3RqeIPbLc+nOvE+CadtTz4UG0reH9tT7Xpb3cdDvaC8NzaGD568HavHRnziV9wEQt9dnT1xWD1UeHvqIePun64HaA67I2zM/czqf/x2mbE/9REd76rtuyq9T8iW78ue/fWhP3RraU8Pmmn5/uTzsL2GGO3fZP5rWev+47qk/XA9V2n1g5PU5Y6+lFep6pr6WVqj7m/ZaWoePx353wrWzYj894f4j4fFx/rGGKNYYTatVw/PyvIbHMcUxpan0z5znPeZ59VClVcPjWloAwGYg4QEAiifhAQCKt2VLb2GQ9aQ4n8VnT9+SRWrvbEZqz2tG+k58FhfmW0XV4tiM+Wo/Y/7z6cE6NaM/WOZmfP7MzVnE9fvcmXNZpPbYZsTnT62Jk+L0yTNZxPuj2+3YkkWU2k+bEcXHp/biZqQ5NmMwKovUftqM2e8v8xVfn8U9o/qxf+SP79o/onxtBw8IUj1EjDRVFoNfzWgZTtSIKcXXII4IN3v9tIzNSOOmiDi/WYv7xHrfZ9I2aYZjimPKSvaPKJV0NSPNpL3UAACFkfAAAMWT8AAAxdsyau/r0tW+FxsQO6dfZa32wn7ePhojTj/4l0V7DfMp8ltVZtmMuL3+6cypLGJ9Q7pOSzPWWlz7qOv+uP6d089ZfL3H7RPNiNMP/mXRXqN8ivxWeftH3D5xxHBUiLTYWQx+NaMe24jJ2o+fLC5PXOY0i2mimksz5iwswEbbZ+I7Juq6P65/5/RzFnafsceRZsTpB//C3hPXKJ8iv1XeMSWufae0zI0YbRMAgKJJeACA4kl4AIDi9a/79JuHrXNXhutUpPaupn4/z41abXrhOibv6bqWVmqkbLgkpF4rvZbWLaGR7/pD+fzud/BIPVTZOqxmWtTvhxks5At4y/m4vvl1QG4J22PYjtiQelFoClP3toQRD7w8X97Pn53xdU2256//e27M1+c28bomu/Ln2xpaVVe8v1yeX2co9bvRtNLr3tg/Zrt//Fm4ltZV1+aPP7g3v5bWgf357WT/vvzaWQfCtbT27N5ZD1X27Mpv79g++Vpax8O1rI6fyK91daTjWlmHjua3D4fp4+OPHcvnf+JU/vxx+aYVr6X1tS//1Xqost73GccUx5Smle4fP/uY59dDlavC9fwO7NvrDA8AUD4JDwBQPAkPAFC8JWt4Pns6bx+L7XGfCu1xt43tcVPW8MT2zG07dtRDlbOn8/bvVvtkuN3VnnrrXTfVQ5Xbh/bIeG2OL9mRr/8nw/p/5sSBeqhyv4N5e3+vHxYw3Pxk2N6fP5XP7wGXHa2HKrE99cop21Pj63frbfnr967QPnzbjvbUz4fttfL9JbS3h9R8Z6jxsn+s7f5xXazhuSZ//MFQs7N/X7uG50Cs89m7qx6q7NkTbu/KjxFdNTwnQg3PseN5jU2rJudoqOkJNTyHjh6rhypHw/zi7fj8s67h+fE3/Gw9VHFMcUzJbLBjyrT7x3//lp+vhyqxjvDA4JgTXnIAgPJIeACA4kl4AIDibVnopWvEpHqalPssRmrua0ZLmCC1ljWjpTV9/nPufB4nT57I4pbz57I4tzCYrhHnBzNtRpS6UGjGcJJmDLdBM6L8/tH1RS5EGteIeJ2Uz56+OYte/1wW53u3ZHHufIiFtM6LcZvtW7KI63fbHZdkEd1mx+BxjVgIP+cHM2nGLYPnbMb5wWuQRXoNGrEQohej02AlmhFunj11Oot4f5fmuqafuH1jxP0vrm+M9Bo0I61xM4bt6434zOmzWQy2eBZx/4jbt7ku6ee2g9e0GdFtdw7GNyLqenyX/N0yMFjNZvQHGyVGfFB4SEvX/VGcPkZ2HaP0/IPXJY80bjHS1YuaP3F+7RFz1nFMOT84jjRjsGdnP7fZPjguNCLutdPvM/kGcEzJo/uYMtjqk2LwnM2IC1zaMSVqLlv66TJ4yzrDAwCUT8IDABRPwgMAFK//p59667Dx6/ahH55hg1dDuLcX+yBITfBN77tpXz1U+aqDp+qhkdDmmtqdG1JdziRbw3VVegv5Ep4PudzfHcqvu3O/g3kfGpeEfoDidUVSm2lT67omh/I+RK4+mPch8OnQ50bVRr7oX0IfBp85cVk9VHng5XkfC58/k2+fO+68tB6qfPZMvsCxz4R/PZlv71tvz9fnHV/Mr2N0m9031kOVO4T95dKww1wSX5+wB/V7eV3R+w7l+0urz4y4P4bbUbzuzc3n8+11Nuxf//vGfHnud1n++qU6rKbYj1Tc/+L/Jd4drhNz9eV5HxefOp33U/Ul2/PHf+J0/np9/sTl9VDlQVfkfcZ8/my+fl8a+sT4TJjf7cL+s9J+eK4OfWDsD33sHBzTD0+8ltb+cC2tfaFfnl078354dk7ZD8/RcC2to7HfnXhtrdDvzqEw/dF4La3QD0+8ltes++F59ht+rB6qdB9T8vX5wtl8H7/jrnyf+FzotyXWYXziVDimbMvvj8eUWzum1EOV9jElf3xVa7vo3Tfm63f/cO2rjX5M+ZLQb9GVO+ILlD/fz//bX6yHKrEvsAP7dzvDAwCUT8IDABRPwgMAFK//mx/74LAh8Ssvy9tz3x9qUq4K7b3v+WLe3nbfg3lNwrtuzNtrH3hZ3p59fuHmeqjyu5/823qocvNC3v4cXdrP2w+fevtH1kMjefvhDTfl7f9bQnvwA67Ia2T+/qZ8/e8ban5uCOt/LrQnXnX5oXqostDL1/f3/vVt9VDlTGj/zefW620L7dP32vP19VDlQVfkNVIfOJRfF+X+4fX5uxvD+l2Wt5e+/F+ur4cq53r56xErVraH7fldd3xoPVT53Om8/fUO4Vpp7w/L+5DL8u11SWi+7ffz7RXb11M/Fk1nwv509ny+hV/2r2H/C+sba7ouDf9XeNKX5uv7qdP58nzmxMF6qHJVaM9/ZdgfzoUat/xWev58f3jaHR9cD1W+EGq47hSuE/S5vHm/d2Voj4/X7bnN9vz+d4WapL982o/UQ5WrQ/t5vHbWgVCvk8S6nljTs3d3qOEJ19Katobn2In8PXP4WH4MiNfOOnwk1vjk98caoGOhRmjeNTxXvPRB9VAlHlPyPSIdU/J9+N/c5qvqocqdwz7z+bBP3XZHfhT411P5+twq1AX+TjimxPeYY0q+vt8ejinvuTFfn1hXev/L19cxJdYFx2PKrcO1z+Jn6q125TVet9uRP/9C+JT8lW96YT1Uueqa/P4D+/Y6wwMAlE/CAwAUT8IDABSv/9KPfGDYMPbAK/IalQ8cytvTrr4s/47/O0MNyL1DvzPX35j3e/PR49fVQ5Wbe3l7784r8va9W0J7Z3RJaG889cU8d9uykLfn323PY+qhyqWhxTj2OfC+0CfA/cL6v/2L+fqna8E0fSSs7/l+3sC544p8+q721a1hec/emK/vjn5es/RdX5q3v0a/F9rTT4cao22X50sQ20ujS0LuHJfv0l7+ejz1S7+6Hqq8/6a8j5CHXT65vTtdsawp1lDdHNrTf+tf31QPVU728tfjkrC+cX6hC4xWe/uJL4YJFvL7W/1WheXfdUVonw71BNGWsD/cfGP+/NvD++O77/g19VDlkn7++K3hdqvfqXA79iv0pu/5iXqoEvvhORD61Ik1PcnB/fm4fbEfnlDDszvU8OxYYT88R0INzpFQw3Mo3G5NH/rhifOPzz/rGp7LXnlVPVTpOqbE9+yZsA/tmvaY8q/hmBJqXC69PN+Jzsf3WLDZjinxGH/ii/VAbeF8fn94S7a25541PqbEfpPOpwvQNdwcaqTeEep+b7Ur3wBv+vzf1UOVc2F7H3vGe+uhylXX5tvjwF41PADAJiDhAQCKJ+EBAIrXf+GH3zVsSPuqUMOTt8al9s68ve3mULPyu//y9nqociLU6Oy4PJ/+XLx2VrgdaxyifsjVtob2zXhto1NfyG9vC+2/T79T3gdFL7Q/vjK0T584n7cHxz4WzofbsUYj9msT23Oj2G/Q1rB+sU+NEzfmzxftvCx/wrj9z3bUUC2EFuR+aJ+NNS5bB2OaTn8xX/4d/bxPh3vtzfsZeuhleXvt733izfVQJS7vmdDP05nwem2/oh6otda34/VoXXcn1OzE/0uc+ELcnvn+veOK8Pg4/3A7XPqtF2va4v5xS2yPD9v7O0N9xrvCtfD+z/G/rocq8f150zPy93+8jk2szzmwjGtpxbqf2A9PZw3P6fwYdPxU6IcnXOvqSLjd7ocn1PAcy4+Zh4+GfndWuR+e7b9/j3qoNuU+vDXsQ9vCp8CpL04+pmy/PJ/hLaGmJNZlxiO8Y0o9MBKPKeE9feKL+fKs+jEl1C1uDzVfTwn9+HwiXP/xzZ9/Zz1UORVqpM6GGrBbQp1p/Ew9+Z0frIcq4/oCC1sEAKA8Eh4AoHgSHgCgeP3veudzhw1hO0J7XuwD4Ulf+oB6qPKKUNMS+xw4FdrbYh8A51t9AkxuH+50Pl+B2I/I2S/UA7V+aJ/eFvoQCCUzvd2X5yNubrVP57djvyunvxja60NN1I4r8vbSfld7axgRJ++dDysQlud4WJ7tV+TrH9uD+2GDnP5iaJ/uevlCe/TuK/L29UvCtdHO5JdRaV33ZvcV+YhYHxD7RbolrE+7/Ts37evRErZH3B/j/WfC9txxq/z5u4QuLQbzy9d3S3g/x3qN2IdGXL/dl+fTx3qLQ09+Tz1UadXwxGtp7c/rc5IDeyf3w7N3b6jhCddO2rljun54WjU8oR+d1rW14rW0Yo1PeHys4TkRaohOhRqjacUanvP/75fXQxXHlHz9HVPy5+/SOqZ8IV//fqjp2RK2d/xMDYegzs/U2G/RuXAts1M35tt7yw/+33qoMq4vsLAIAADlkfAAAMWT8AAAxes//Z+ePWypi5nP1jDm+I15e+DNoT1tZ+iDIfbr0tk+GcX2yQ6t5sywfGe+kN+OC7TnVnn7f7zOyvkt+ePj853vWuBwd2wfPR22b7Qj1FDEGqMorH7n9tge+mw4c2PcXrntoT269fq2Nkd4/lBjEvfA3bfK+3Ro7T5h/WO/MPN+PXaG16Pzvw5hdWP7e2xvj69H1N5+ufj42G9VPxQQxPd7S3wBwu2T3xH6wAjt5/HaWQdDvU5yIPTDE/vl2RP64dkz7bW0Tp2qhypHj4XbxyfX6MRracX7jxwL/e7E26dDPzwzruHZ9sq710MVx5T8+R1TJs+wtf3C/LaHmpv265lv0d3hM7VVszTjz9QzT/pIPVQZ1xdY1yYFANjwJDwAQPEkPABA8frf9S8/NGwJi5lPq30zNNfFfmZOdfRBsD30ARDn32rf7Gi+i1rti6E9sqv9Ml6rKm6QLaEBsrV9gtbihwbd2PrZah+v/460+lSI7d0dTreu5RR0bO/tt4rbb/L2jFrtyR37Q8fLMZhgvq9HHBEfH/fXVj1EWKDYnh9vx+0zrfb+nd+Oy9NqTw+3u7Z3dOrbP1wPVa6+Nq/h2x9qdg7u31sPLYrXzoo1PFNfS6ujH56joZ+co6EfnUOta2dNd/+x2A/PvK+l9aq8hscxJeeY0iE8vlWD1fWZGpZvtT9TT31HRw2Pa2kBAJuBhAcAKJ6EBwAoXv9p/1rV8ERx5PnQXtbuk6EeWEKrPTGkWrG9clpd12GJ7Y3xOi5d7bux35KVam3f0IlCq0+F0F7eal+NfSKExe3avq2XLz5/Rx8S2zvmHx+/M9YLxO0/ZfvuSrVej7hDh817KtYPdK3/TdNtv8727Clfn6mvqzTl9j8Za3hC+3msx4nX1kr278/H7Q81PftCDc+uUMOzs6OG5/jJvN+d48fz27EfnUNHj9VDlXitrFY/PEdjDU8+/xPh+Wddw7PzD+9RD1UcU+q/NceUyVr9Kk3b19caf6a2jkFj+gKLywAAUBwJDwBQPAkPAFC8i67h6Wp/jFo1BPXfC1aYesWaoqjzOiZh+eK1tGLRw0pbH7u2b1yfrj4vdsQ+KFrLX/+9WGGB4+7QVUPVWr7weq92+3qXFb8+YQWmraGZWtfrM+f9P7aft/vACH3shHqd5OC+vG+e/XvDtbPitbR2hn54dkzZD0+o4Tl6LK/JORRqcmLNTrwdr8V19Pjq9sPTquFxTKmHKitd3JUKi7/ujykb7TO1XcPT7gvMGR4AoHgSHgCgeBIeAKB4F13DE9tXd1yWt9e1GuTC7VamNWV7Xmuhw/K1mh/jA8Lt06FPg9g+Ouv24Lg4re0b+8jo6JOhq8+DmW/fMEG4u9W+29WeO+s+GWZtoWP9Yw1b13VwVtqeHZ6+/frUfy+IDwi3V7r/d9fwhD52Qk1PcjDU9ezbE2/nNTu7du2shyqxH55THTU8x0ONTetaWR397hw+0lHDE/r1OXFqbWt4HFPWF8eU6Zavy3L6AmvtwwAApZHwAADFk/AAAMVbdg1PZ3tesNL23pVa78u/4bdvWIHz7TXKrPXyrtTKX6+wvnNe4ZUvb9DxerVqeMJ1bA7szetxxl5LK9T1xMfs3ZvX7OyO/fB01PCcbPXDE2p4Qg3OkSOxhie/tlas8WlfS2tt++FxTFnfVv4eDes75xVe+fIGM369ltMXWGsZAABKI+EBAIon4QEAirdkwpPa05oxbG9rRPoO/aRIfSBkEec3Z/H54vKMW+ZmDCbKYjiPRqxUa37h+cYtUzPi+ozmM4p5GzxlFuOWsRnxAYPfq7q8K9Va3rA+49a5GYN/WcxbeooshsuwGOOWsRnDhWzEcB6N6JTa95sRxRkOZxpGhJstabbNCLoe3nV/fIKFwXZoRri7Pb9w/7y1nj8tYyPGvc7NiPvIaD6jmLfBU2YxbhmbER8w+L2qy7tSreUN6zNunZsx+JfFvKWnyGK4DIsxbhmbMVzIRgzn0Yj5GyxHPQQAUCwJDwBQPAkPAFC8ZSc8sb2tK9a7ccs8KeZt3HNOivVm3DJOio1u3DpNivVm3DJOimnF9v1+byGLcT9xmlYd0OBfFh06J48ruTD41Yhws1Pr+QbrncUqS884Taw345ZxUmx049ZpUqw345ZxUsxdeML0nnSGBwAonoQHACiehAcAKJ6EB5i72IfNuJ9pa2YGD8kjiHfHGptYIjRYghBhHmmaZsT7Q9TP0ghgtcT3ayLhAQCKJ+EBAIon4QEAiifhAWYuNZk3ozUm3BxGFIpiuiaP4vRhdp3d5MSKnmafQcOfwWMm1hzFBQBWT3pPNiK9gyU8AEDxJDwAQPEkPABA8SQ8wPyFgpdGJcyFn2afPOmn3U9OHl26po/z73xAKPqJ/XyEVRyMDNFhysmBCdrv776EBwAon4QHACiehAcAKJ6EB5i9VgN6LpTDDGMwYRbt+1cozWNC5M+efg1+N2LUG88o0mOaEW5OLT1nM4AZGrypJDwAQPEkPABA8SQ8AEDxJDzAzLXqb2LETmsG0aphCSPCzU6hBKd6UBbtZchi8C+LMCLOrj0inz6/BcxTPAalt7SEBwAonoQHACiehAcAKJ6EB5i52GtNvO7UsIglRtAqqQnRJU6fnrYZ/cGCZDFc0mYMpmlEfHwUl7eaatIjgPkJ77+FBQkPAFA+CQ8AUDwJDwBQvP4THvQNGpcBgKI5wwMAFE/CAwAUT8IDABSv/8lzv6yGBwAomjM8AEDxJDwAQPEkPABA8fo//Lf3HVvDc4+73asemo8Pf/SD9dB8WP7JLP9kln+yeS9/4jWYzPJPZvkn24zL7wwPAFA8CQ8AUDwJDwBQvAs1PNoLJ7P8k1n+ySx/N6/BZJZ/Mss/meV3hgcA2AQkPABA8SQ8AEDx+i/79JPnci0t7YWTWf7JLP9klr+b12Ayyz+Z5Z9sIy6/MzwAQPEkPABA8SQ8AEDxZlbDo71wMss/meWfzPJ38xpMZvkns/yTlbD8zvAAAMWT8AAAxZPwAADFu+gaHu2Fk1n+ySz/ZJa/m9dgMss/meWfrMTld4YHACiehAcAKJ6EBwAo3rJreLQXTmb5J7P8k1n+bl6DySz/ZJZ/ss2w/M7wAADFk/AAAMWT8AAAxVuyhkd74WSWfzLLP5nl7+Y1mMzyT2b5J9uMy+8MDwBQPAkPAFA8CQ8AULz+E3/2zhd1LS0AgI3CGR4AoHgSHgCgeBIeAKB4/Q//wWPV8AAARXOGBwAonoQHACiehAcAKF7/4x95qRoeAKBozvAAAMWT8AAAxZPwAADFk/AAAMWT8AAAxZPwAADFk/AAAMWT8AAAxZPwAADFk/AAAMWT8AAAxZPwAADFk/AAAMWT8AAAxZPwAADFk/AAAMWT8AAAxZPwAADFk/AAAMWT8AAAxZPwAADFk/AAAMWT8AAAxZPwAADFk/AAAMWT8AAAxZPwAADFk/AAAMWT8AAAxZPwAADFk/AAAMWT8AAAxZPwAADFk/AAAMWT8AAAxZPwAADFk/AAAMWT8AAAxZPwAADFk/AAAMWT8AAAxZPwAADFk/AAAMWT8AAAxZPwAADFk/AAAMWT8AAAxZPwAADFk/AAAMWT8AAAxZPwAADFk/AAAMWT8AAAxZPwAADFk/AAAMWT8AAAxZPwAADFk/AAAMWT8AAAxZPwAADFk/AAAMWT8AAAxZPwAADFk/AAAMWT8AAAxZPwAADFk/AAAMWT8AAAxZPwAADFk/AAAMWT8AAAxZPwAADFk/AAAMWT8AAAxZPwAADFk/AAAMWT8AAAxZPwAADFk/AAAMWT8AAAxZPwAADFk/AAAMWT8AAAxZPwAADFk/AAAMWT8AAAxZPwAADFk/AAAMWT8AAAxZPwAADFk/AAAMWT8AAAxZPwAADFk/AAAMWT8AAAxZPwAADFk/AAAMWT8AAAxZPwAADFk/AAAMWT8AAAxZPwAADFk/AAAMWT8AAAxZPwAADFk/AAAMWT8AAAxZPwAADFk/AAAMWT8AAAxZPwAADFk/AAAMWT8AAAxZPwAADFk/AAAMWT8AAAxZPwAADFk/AAAMWT8AAAxZPwAADFk/AAAMWT8AAAxZPwAADFk/AAAMWT8AAAxZPwAADFk/AAAMWT8AAAxZPwAADFk/AAAMWT8AAAxZPwAADFk/AAAMWT8AAAxZPwAADFk/AAAMWT8AAAxZPwAADFk/AAAMWT8AAAxZPwAADFk/AAAMWT8AAAxZPwAADFk/AAAMWT8AAAxZPwAADFk/AAAMWT8AAAxZPwAADFk/AAAMWT8AAAxZPwAADFk/AAAMWT8AAAxZPwAADFk/AAAMWT8AAAxZPwAADFk/AAAMWT8AAAxZPwAADFk/AAAMWT8AAAxdvyhus+Vg8CAJRpy5+84SO9j//zofomAEBZUp4zbNJ61Ws+OBwBAFCaV73mg73/D2R/lHZPuoYVAAAAAElFTkSuQmCC;" parent="Uh9wZkquu2cPhVOEW5Aj-42" vertex="1">
          <mxGeometry x="979" y="12.75" width="164.32" height="310.25" as="geometry" />
        </mxCell>
        <mxCell id="1vdJCeld9Hc0PdQ3T1fF-16" value="&lt;font style=&quot;font-size: 24px;&quot;&gt;NEXT STATE&lt;/font&gt;" style="text;html=1;align=center;verticalAlign=middle;whiteSpace=wrap;rounded=0;fontSize=16;strokeWidth=7;" vertex="1" parent="1">
          <mxGeometry x="-285" y="728" width="239" height="30" as="geometry" />
        </mxCell>
      </root>
    </mxGraphModel>
  </diagram>
</mxfile>
